NimbusSanL-BoldCond.ufo
<glyph name="exclam" format="1">
  <advance width="273"/>
  <unicode hex="0021"/>
  <outline>
    <contour>
      <point x="197" y="142" type="line"/>
      <point x="77" y="142" type="line"/>
      <point x="77" y="0" type="line"/>
      <point x="197" y="0" type="line"/>
    </contour>
    <contour>
      <point x="200" y="535" type="line"/>
      <point x="200" y="718" type="line"/>
      <point x="74" y="718" type="line"/>
      <point x="74" y="535" type="line"/>
      <point x="107" y="199" type="line"/>
      <point x="167" y="199" type="line"/>
    </contour>
  </outline>
</glyph>
<glyph name="quotedbl" format="1">
  <advance width="389"/>
  <unicode hex="0022"/>
  <outline>
    <contour>
      <point x="228" y="447" type="line"/>
      <point x="308" y="447" type="line"/>
      <point x="308" y="718" type="line"/>
      <point x="228" y="718" type="line"/>
    </contour>
    <contour>
      <point x="80" y="447" type="line"/>
      <point x="160" y="447" type="line"/>
      <point x="160" y="718" type="line"/>
      <point x="80" y="718" type="line"/>
    </contour>
  </outline>
</glyph>
<glyph name="numbersign" format="1">
  <advance width="456"/>
  <unicode hex="0023"/>
  <outline>
    <contour>
      <point x="417" y="289" type="line"/>
      <point x="338" y="289" type="line"/>
      <point x="352" y="409" type="line"/>
      <point x="431" y="409" type="line"/>
      <point x="441" y="499" type="line"/>
      <point x="362" y="499" type="line"/>
      <point x="384" y="698" type="line"/>
      <point x="307" y="698" type="line"/>
      <point x="285" y="499" type="line"/>
      <point x="205" y="499" type="line"/>
      <point x="228" y="698" type="line"/>
      <point x="151" y="698" type="line"/>
      <point x="128" y="499" type="line"/>
      <point x="49" y="499" type="line"/>
      <point x="39" y="409" type="line"/>
      <point x="118" y="409" type="line"/>
      <point x="104" y="289" type="line"/>
      <point x="25" y="289" type="line"/>
      <point x="15" y="199" type="line"/>
      <point x="94" y="199" type="line"/>
      <point x="72" y="0" type="line"/>
      <point x="149" y="0" type="line"/>
      <point x="171" y="199" type="line"/>
      <point x="251" y="199" type="line"/>
      <point x="228" y="0" type="line"/>
      <point x="305" y="0" type="line"/>
      <point x="328" y="199" type="line"/>
      <point x="407" y="199" type="line"/>
    </contour>
    <contour>
      <point x="275" y="409" type="line"/>
      <point x="261" y="289" type="line"/>
      <point x="181" y="289" type="line"/>
      <point x="195" y="409" type="line"/>
    </contour>
  </outline>
</glyph>
<glyph name="dollar" format="1">
  <advance width="456"/>
  <unicode hex="0024"/>
  <outline>
    <contour>
      <point x="420" y="501" type="line"/>
      <point x="411" y="633"/>
      <point x="358" y="697"/>
      <point x="247" y="710" type="curve"/>
      <point x="247" y="775" type="line"/>
      <point x="209" y="775" type="line"/>
      <point x="209" y="710" type="line"/>
      <point x="161" y="706"/>
      <point x="139" y="699"/>
      <point x="111" y="678" type="curve" smooth="yes"/>
      <point x="64" y="642"/>
      <point x="37" y="578"/>
      <point x="37" y="503" type="curve" smooth="yes"/>
      <point x="37" y="444"/>
      <point x="54" y="397"/>
      <point x="87" y="364" type="curve" smooth="yes"/>
      <point x="116" y="336"/>
      <point x="143" y="321"/>
      <point x="209" y="299" type="curve"/>
      <point x="209" y="89" type="line"/>
      <point x="154" y="102"/>
      <point x="137" y="129"/>
      <point x="132" y="215" type="curve"/>
      <point x="25" y="215" type="line"/>
      <point x="24" y="63"/>
      <point x="77" y="-3"/>
      <point x="209" y="-17" type="curve"/>
      <point x="209" y="-115" type="line"/>
      <point x="247" y="-115" type="line"/>
      <point x="247" y="-17" type="line"/>
      <point x="300" y="-11"/>
      <point x="325" y="-1"/>
      <point x="354" y="22" type="curve" smooth="yes"/>
      <point x="402" y="61"/>
      <point x="429" y="125"/>
      <point x="429" y="201" type="curve" smooth="yes"/>
      <point x="429" y="263"/>
      <point x="410" y="315"/>
      <point x="374" y="348" type="curve" smooth="yes"/>
      <point x="349" y="371"/>
      <point x="317" y="389"/>
      <point x="247" y="417" type="curve"/>
      <point x="247" y="604" type="line"/>
      <point x="291" y="604"/>
      <point x="309" y="576"/>
      <point x="314" y="501" type="curve"/>
    </contour>
    <contour>
      <point x="209" y="431" type="line"/>
      <point x="161" y="446"/>
      <point x="140" y="474"/>
      <point x="140" y="522" type="curve" smooth="yes"/>
      <point x="140" y="570"/>
      <point x="165" y="599"/>
      <point x="209" y="604" type="curve"/>
    </contour>
    <contour>
      <point x="247" y="282" type="line"/>
      <point x="298" y="262"/>
      <point x="319" y="233"/>
      <point x="319" y="184" type="curve" smooth="yes"/>
      <point x="319" y="129"/>
      <point x="294" y="95"/>
      <point x="247" y="89" type="curve"/>
    </contour>
  </outline>
</glyph>
<glyph name="percent" format="1">
  <advance width="729"/>
  <unicode hex="0025"/>
  <outline>
    <contour>
      <point x="151" y="710" type="curve" smooth="yes"/>
      <point x="64" y="710"/>
      <point x="23" y="649"/>
      <point x="23" y="520" type="curve" smooth="yes"/>
      <point x="23" y="394"/>
      <point x="65" y="332"/>
      <point x="150" y="332" type="curve" smooth="yes"/>
      <point x="234" y="332"/>
      <point x="276" y="394"/>
      <point x="276" y="521" type="curve" smooth="yes"/>
      <point x="276" y="647"/>
      <point x="235" y="710"/>
    </contour>
    <contour>
      <point x="150" y="640" type="curve" smooth="yes"/>
      <point x="183" y="640"/>
      <point x="194" y="610"/>
      <point x="194" y="521" type="curve" smooth="yes"/>
      <point x="194" y="431"/>
      <point x="183" y="402"/>
      <point x="149" y="402" type="curve" smooth="yes"/>
      <point x="116" y="402"/>
      <point x="105" y="431"/>
      <point x="105" y="516" type="curve" smooth="yes"/>
      <point x="105" y="612"/>
      <point x="115" y="640"/>
    </contour>
    <contour>
      <point x="556" y="710" type="line"/>
      <point x="495" y="710" type="line"/>
      <point x="169" y="-19" type="line"/>
      <point x="230" y="-19" type="line"/>
    </contour>
    <contour>
      <point x="581" y="366" type="curve" smooth="yes"/>
      <point x="494" y="366"/>
      <point x="453" y="305"/>
      <point x="453" y="176" type="curve" smooth="yes"/>
      <point x="453" y="50"/>
      <point x="495" y="-12"/>
      <point x="580" y="-12" type="curve" smooth="yes"/>
      <point x="665" y="-12"/>
      <point x="706" y="50"/>
      <point x="706" y="177" type="curve" smooth="yes"/>
      <point x="706" y="303"/>
      <point x="665" y="366"/>
    </contour>
    <contour>
      <point x="580" y="296" type="curve" smooth="yes"/>
      <point x="613" y="296"/>
      <point x="624" y="267"/>
      <point x="624" y="178" type="curve" smooth="yes"/>
      <point x="624" y="87"/>
      <point x="613" y="58"/>
      <point x="579" y="58" type="curve" smooth="yes"/>
      <point x="546" y="58"/>
      <point x="535" y="87"/>
      <point x="535" y="173" type="curve" smooth="yes"/>
      <point x="535" y="268"/>
      <point x="545" y="296"/>
    </contour>
  </outline>
</glyph>
<glyph name="ampersand" format="1">
  <advance width="592"/>
  <unicode hex="0026"/>
  <outline>
    <contour>
      <point x="468" y="157" type="line"/>
      <point x="512" y="227"/>
      <point x="528" y="279"/>
      <point x="536" y="373" type="curve"/>
      <point x="434" y="373" type="line"/>
      <point x="430" y="322"/>
      <point x="421" y="290"/>
      <point x="403" y="255" type="curve"/>
      <point x="320" y="381" type="line"/>
      <point x="387" y="431"/>
      <point x="417" y="483"/>
      <point x="417" y="554" type="curve" smooth="yes"/>
      <point x="417" y="649"/>
      <point x="355" y="718"/>
      <point x="269" y="718" type="curve" smooth="yes"/>
      <point x="181" y="718"/>
      <point x="116" y="648"/>
      <point x="116" y="554" type="curve" smooth="yes"/>
      <point x="116" y="503"/>
      <point x="132" y="457"/>
      <point x="170" y="403" type="curve"/>
      <point x="157" y="394" type="line" smooth="yes"/>
      <point x="79" y="336"/>
      <point x="44" y="274"/>
      <point x="44" y="190" type="curve" smooth="yes"/>
      <point x="44" y="67"/>
      <point x="121" y="-19"/>
      <point x="232" y="-19" type="curve" smooth="yes"/>
      <point x="300" y="-19"/>
      <point x="347" y="4"/>
      <point x="396" y="61" type="curve"/>
      <point x="436" y="0" type="line"/>
      <point x="575" y="0" type="line"/>
    </contour>
    <contour>
      <point x="264" y="464" type="curve"/>
      <point x="232" y="507"/>
      <point x="221" y="530"/>
      <point x="221" y="555" type="curve" smooth="yes"/>
      <point x="221" y="588"/>
      <point x="241" y="611"/>
      <point x="269" y="611" type="curve" smooth="yes"/>
      <point x="298" y="611"/>
      <point x="317" y="588"/>
      <point x="317" y="553" type="curve" smooth="yes"/>
      <point x="317" y="519"/>
      <point x="303" y="497"/>
    </contour>
    <contour>
      <point x="337" y="149" type="line"/>
      <point x="303" y="114"/>
      <point x="276" y="99"/>
      <point x="243" y="99" type="curve" smooth="yes"/>
      <point x="195" y="99"/>
      <point x="159" y="142"/>
      <point x="159" y="199" type="curve" smooth="yes"/>
      <point x="159" y="243"/>
      <point x="171" y="262"/>
      <point x="229" y="314" type="curve"/>
    </contour>
  </outline>
</glyph>
<glyph name="quotesingle" format="1">
  <advance width="195"/>
  <unicode hex="0027"/>
  <outline>
    <contour>
      <point x="57" y="447" type="line"/>
      <point x="138" y="447" type="line"/>
      <point x="138" y="718" type="line"/>
      <point x="57" y="718" type="line"/>
    </contour>
  </outline>
</glyph>
<glyph name="parenleft" format="1">
  <advance width="273"/>
  <unicode hex="0028"/>
  <outline>
    <contour>
      <point x="257" y="-207" type="line"/>
      <point x="175" y="-31"/>
      <point x="147" y="90"/>
      <point x="147" y="262" type="curve" smooth="yes"/>
      <point x="147" y="437"/>
      <point x="175" y="557"/>
      <point x="257" y="734" type="curve"/>
      <point x="173" y="734" type="line"/>
      <point x="109" y="625"/>
      <point x="83" y="567"/>
      <point x="59" y="479" type="curve" smooth="yes"/>
      <point x="39" y="408"/>
      <point x="29" y="335"/>
      <point x="29" y="263" type="curve" smooth="yes"/>
      <point x="29" y="99"/>
      <point x="70" y="-33"/>
      <point x="173" y="-207" type="curve"/>
    </contour>
  </outline>
</glyph>
<glyph name="parenright" format="1">
  <advance width="273"/>
  <unicode hex="0029"/>
  <outline>
    <contour>
      <point x="16" y="734" type="line"/>
      <point x="98" y="554"/>
      <point x="126" y="435"/>
      <point x="126" y="264" type="curve" smooth="yes"/>
      <point x="126" y="89"/>
      <point x="97" y="-34"/>
      <point x="16" y="-207" type="curve"/>
      <point x="100" y="-207" type="line"/>
      <point x="164" y="-100"/>
      <point x="190" y="-42"/>
      <point x="214" y="47" type="curve" smooth="yes"/>
      <point x="234" y="119"/>
      <point x="244" y="191"/>
      <point x="244" y="263" type="curve" smooth="yes"/>
      <point x="244" y="426"/>
      <point x="205" y="555"/>
      <point x="100" y="734" type="curve"/>
    </contour>
  </outline>
</glyph>
<glyph name="asterisk" format="1">
  <advance width="319"/>
  <unicode hex="002A"/>
  <outline>
    <contour>
      <point x="277" y="633" type="line"/>
      <point x="194" y="599" type="line"/>
      <point x="194" y="718" type="line"/>
      <point x="125" y="718" type="line"/>
      <point x="125" y="599" type="line"/>
      <point x="41" y="633" type="line"/>
      <point x="22" y="560" type="line"/>
      <point x="107" y="528" type="line"/>
      <point x="52" y="431" type="line"/>
      <point x="103" y="387" type="line"/>
      <point x="160" y="478" type="line"/>
      <point x="216" y="387" type="line"/>
      <point x="267" y="431" type="line"/>
      <point x="211" y="528" type="line"/>
      <point x="297" y="560" type="line"/>
    </contour>
  </outline>
</glyph>
<glyph name="plus" format="1">
  <advance width="479"/>
  <unicode hex="002B"/>
  <outline>
    <contour>
      <point x="194" y="309" type="line"/>
      <point x="33" y="309" type="line"/>
      <point x="33" y="197" type="line"/>
      <point x="194" y="197" type="line"/>
      <point x="194" y="0" type="line"/>
      <point x="286" y="0" type="line"/>
      <point x="286" y="197" type="line"/>
      <point x="446" y="197" type="line"/>
      <point x="446" y="309" type="line"/>
      <point x="286" y="309" type="line"/>
      <point x="286" y="506" type="line"/>
      <point x="194" y="506" type="line"/>
    </contour>
  </outline>
</glyph>
<glyph name="comma" format="1">
  <advance width="228"/>
  <unicode hex="002C"/>
  <outline>
    <contour>
      <point x="175" y="147" type="line"/>
      <point x="52" y="147" type="line"/>
      <point x="52" y="0" type="line"/>
      <point x="121" y="0" type="line"/>
      <point x="116" y="-67"/>
      <point x="99" y="-96"/>
      <point x="52" y="-115" type="curve"/>
      <point x="52" y="-168" type="line"/>
      <point x="133" y="-150"/>
      <point x="175" y="-85"/>
      <point x="175" y="20" type="curve" smooth="yes"/>
    </contour>
  </outline>
</glyph>
<glyph name="hyphen" format="1">
  <advance width="273"/>
  <unicode hex="002D"/>
  <outline>
    <contour>
      <point x="251" y="345" type="line"/>
      <point x="22" y="345" type="line"/>
      <point x="22" y="215" type="line"/>
      <point x="251" y="215" type="line"/>
    </contour>
  </outline>
</glyph>
<glyph name="slash" format="1">
  <advance width="228"/>
  <unicode hex="002F"/>
  <outline>
    <contour>
      <point x="255" y="737" type="line"/>
      <point x="159" y="737" type="line"/>
      <point x="-27" y="-19" type="line"/>
      <point x="69" y="-19" type="line"/>
    </contour>
  </outline>
</glyph>
<glyph name="zero" format="1">
  <advance width="456"/>
  <unicode hex="0030"/>
  <outline>
    <contour>
      <point x="231" y="710" type="curve" smooth="yes"/>
      <point x="160" y="710"/>
      <point x="111" y="683"/>
      <point x="76" y="623" type="curve" smooth="yes"/>
      <point x="46" y="571"/>
      <point x="26" y="461"/>
      <point x="26" y="343" type="curve" smooth="yes"/>
      <point x="26" y="99"/>
      <point x="92" y="-19"/>
      <point x="228" y="-19" type="curve" smooth="yes"/>
      <point x="301" y="-19"/>
      <point x="354" y="15"/>
      <point x="388" y="84" type="curve" smooth="yes"/>
      <point x="413" y="134"/>
      <point x="430" y="243"/>
      <point x="430" y="346" type="curve" smooth="yes"/>
      <point x="430" y="429"/>
      <point x="420" y="505"/>
      <point x="401" y="574" type="curve" smooth="yes"/>
      <point x="393" y="601"/>
      <point x="379" y="627"/>
      <point x="360" y="652" type="curve" smooth="yes"/>
      <point x="329" y="690"/>
      <point x="284" y="710"/>
    </contour>
    <contour>
      <point x="229" y="598" type="curve" smooth="yes"/>
      <point x="291" y="598"/>
      <point x="312" y="534"/>
      <point x="312" y="346" type="curve" smooth="yes"/>
      <point x="312" y="156"/>
      <point x="291" y="93"/>
      <point x="228" y="93" type="curve" smooth="yes"/>
      <point x="166" y="93"/>
      <point x="144" y="156"/>
      <point x="144" y="336" type="curve" smooth="yes"/>
      <point x="144" y="538"/>
      <point x="164" y="598"/>
    </contour>
  </outline>
</glyph>
<glyph name="one" format="1">
  <advance width="456"/>
  <unicode hex="0031"/>
  <outline>
    <contour>
      <point x="57" y="489" type="line"/>
      <point x="196" y="489" type="line"/>
      <point x="196" y="0" type="line"/>
      <point x="310" y="0" type="line"/>
      <point x="310" y="710" type="line"/>
      <point x="216" y="710" type="line"/>
      <point x="210" y="629"/>
      <point x="161" y="587"/>
      <point x="73" y="587" type="curve" smooth="yes"/>
      <point x="57" y="587" type="line"/>
    </contour>
  </outline>
</glyph>
<glyph name="two" format="1">
  <advance width="456"/>
  <unicode hex="0032"/>
  <outline>
    <contour>
      <point x="139" y="459" type="line"/>
      <point x="141" y="554"/>
      <point x="164" y="592"/>
      <point x="221" y="592" type="curve" smooth="yes"/>
      <point x="270" y="592"/>
      <point x="303" y="551"/>
      <point x="303" y="488" type="curve" smooth="yes"/>
      <point x="303" y="433"/>
      <point x="279" y="392"/>
      <point x="212" y="331" type="curve" smooth="yes"/>
      <point x="60" y="200"/>
      <point x="27" y="143"/>
      <point x="21" y="0" type="curve"/>
      <point x="419" y="0" type="line"/>
      <point x="419" y="123" type="line"/>
      <point x="166" y="123" type="line"/>
      <point x="179" y="150"/>
      <point x="190" y="161"/>
      <point x="255" y="218" type="curve" smooth="yes"/>
      <point x="335" y="287"/>
      <point x="335" y="287"/>
      <point x="349" y="303" type="curve" smooth="yes"/>
      <point x="396" y="355"/>
      <point x="418" y="415"/>
      <point x="418" y="487" type="curve" smooth="yes"/>
      <point x="418" y="619"/>
      <point x="337" y="710"/>
      <point x="219" y="710" type="curve" smooth="yes"/>
      <point x="151" y="710"/>
      <point x="96" y="680"/>
      <point x="64" y="624" type="curve" smooth="yes"/>
      <point x="39" y="581"/>
      <point x="30" y="541"/>
      <point x="28" y="459" type="curve"/>
    </contour>
  </outline>
</glyph>
<glyph name="three" format="1">
  <advance width="456"/>
  <unicode hex="0033"/>
  <outline>
    <contour>
      <point x="175" y="311" type="line"/>
      <point x="270" y="310"/>
      <point x="305" y="282"/>
      <point x="305" y="208" type="curve" smooth="yes"/>
      <point x="305" y="139"/>
      <point x="270" y="93"/>
      <point x="218" y="93" type="curve" smooth="yes"/>
      <point x="166" y="93"/>
      <point x="136" y="135"/>
      <point x="135" y="209" type="curve" smooth="yes"/>
      <point x="135" y="218" type="line"/>
      <point x="22" y="218" type="line"/>
      <point x="25" y="132"/>
      <point x="38" y="86"/>
      <point x="72" y="45" type="curve" smooth="yes"/>
      <point x="106" y="4"/>
      <point x="160" y="-19"/>
      <point x="222" y="-19" type="curve" smooth="yes"/>
      <point x="341" y="-19"/>
      <point x="423" y="74"/>
      <point x="423" y="210" type="curve" smooth="yes"/>
      <point x="423" y="294"/>
      <point x="393" y="350"/>
      <point x="334" y="376" type="curve"/>
      <point x="383" y="407"/>
      <point x="405" y="450"/>
      <point x="405" y="516" type="curve" smooth="yes"/>
      <point x="405" y="633"/>
      <point x="332" y="710"/>
      <point x="221" y="710" type="curve" smooth="yes"/>
      <point x="153" y="710"/>
      <point x="96" y="679"/>
      <point x="65" y="625" type="curve" smooth="yes"/>
      <point x="43" y="586"/>
      <point x="35" y="551"/>
      <point x="32" y="482" type="curve"/>
      <point x="139" y="482" type="line"/>
      <point x="140" y="560"/>
      <point x="165" y="598"/>
      <point x="217" y="598" type="curve" smooth="yes"/>
      <point x="262" y="598"/>
      <point x="290" y="562"/>
      <point x="290" y="504" type="curve" smooth="yes"/>
      <point x="290" y="441"/>
      <point x="259" y="411"/>
      <point x="193" y="411" type="curve" smooth="yes"/>
      <point x="175" y="411" type="line"/>
    </contour>
  </outline>
</glyph>
<glyph name="four" format="1">
  <advance width="456"/>
  <unicode hex="0034"/>
  <outline>
    <contour>
      <point x="431" y="265" type="line"/>
      <point x="366" y="265" type="line"/>
      <point x="366" y="710" type="line"/>
      <point x="236" y="710" type="line"/>
      <point x="22" y="277" type="line"/>
      <point x="22" y="157" type="line"/>
      <point x="252" y="157" type="line"/>
      <point x="252" y="0" type="line"/>
      <point x="366" y="0" type="line"/>
      <point x="366" y="157" type="line"/>
      <point x="431" y="157" type="line"/>
    </contour>
    <contour>
      <point x="107" y="265" type="line"/>
      <point x="255" y="574" type="line"/>
      <point x="253" y="483"/>
      <point x="253" y="447"/>
      <point x="252" y="265" type="curve"/>
    </contour>
  </outline>
</glyph>
<glyph name="five" format="1">
  <advance width="456"/>
  <unicode hex="0035"/>
  <outline>
    <contour>
      <point x="163" y="580" type="line"/>
      <point x="400" y="580" type="line"/>
      <point x="400" y="698" type="line"/>
      <point x="80" y="698" type="line"/>
      <point x="40" y="308" type="line"/>
      <point x="142" y="302" type="line"/>
      <point x="160" y="337"/>
      <point x="183" y="353"/>
      <point x="217" y="353" type="curve" smooth="yes"/>
      <point x="271" y="353"/>
      <point x="305" y="304"/>
      <point x="305" y="225" type="curve" smooth="yes"/>
      <point x="305" y="146"/>
      <point x="270" y="93"/>
      <point x="217" y="93" type="curve" smooth="yes"/>
      <point x="170" y="93"/>
      <point x="144" y="124"/>
      <point x="137" y="190" type="curve"/>
      <point x="22" y="190" type="line"/>
      <point x="26" y="137"/>
      <point x="32" y="112"/>
      <point x="50" y="79" type="curve" smooth="yes"/>
      <point x="83" y="16"/>
      <point x="143" y="-19"/>
      <point x="216" y="-19" type="curve" smooth="yes"/>
      <point x="341" y="-19"/>
      <point x="423" y="83"/>
      <point x="423" y="237" type="curve" smooth="yes"/>
      <point x="423" y="371"/>
      <point x="349" y="465"/>
      <point x="244" y="465" type="curve" smooth="yes"/>
      <point x="204" y="465"/>
      <point x="177" y="454"/>
      <point x="142" y="426" type="curve"/>
    </contour>
  </outline>
</glyph>
<glyph name="six" format="1">
  <advance width="456"/>
  <unicode hex="0036"/>
  <outline>
    <contour>
      <point x="414" y="530" type="line"/>
      <point x="405" y="593"/>
      <point x="398" y="614"/>
      <point x="376" y="645" type="curve" smooth="yes"/>
      <point x="346" y="687"/>
      <point x="297" y="710"/>
      <point x="235" y="710" type="curve" smooth="yes"/>
      <point x="168" y="710"/>
      <point x="112" y="677"/>
      <point x="77" y="614" type="curve" smooth="yes"/>
      <point x="42" y="554"/>
      <point x="25" y="465"/>
      <point x="25" y="341" type="curve" smooth="yes"/>
      <point x="25" y="100"/>
      <point x="93" y="-19"/>
      <point x="231" y="-19" type="curve" smooth="yes"/>
      <point x="347" y="-19"/>
      <point x="426" y="84"/>
      <point x="426" y="234" type="curve" smooth="yes"/>
      <point x="426" y="368"/>
      <point x="354" y="459"/>
      <point x="247" y="459" type="curve" smooth="yes"/>
      <point x="197" y="459"/>
      <point x="166" y="442"/>
      <point x="137" y="397" type="curve"/>
      <point x="146" y="542"/>
      <point x="173" y="598"/>
      <point x="234" y="598" type="curve" smooth="yes"/>
      <point x="273" y="598"/>
      <point x="295" y="576"/>
      <point x="300" y="530" type="curve"/>
    </contour>
    <contour>
      <point x="227" y="347" type="curve" smooth="yes"/>
      <point x="278" y="347"/>
      <point x="311" y="299"/>
      <point x="311" y="226" type="curve" smooth="yes"/>
      <point x="311" y="144"/>
      <point x="280" y="93"/>
      <point x="230" y="93" type="curve" smooth="yes"/>
      <point x="177" y="93"/>
      <point x="140" y="148"/>
      <point x="140" y="225" type="curve" smooth="yes"/>
      <point x="140" y="300"/>
      <point x="174" y="347"/>
    </contour>
  </outline>
</glyph>
<glyph name="seven" format="1">
  <advance width="456"/>
  <unicode hex="0037"/>
  <outline>
    <contour>
      <point x="433" y="698" type="line"/>
      <point x="22" y="698" type="line"/>
      <point x="20" y="575" type="line"/>
      <point x="310" y="575" type="line"/>
      <point x="186" y="404"/>
      <point x="114" y="206"/>
      <point x="102" y="0" type="curve"/>
      <point x="220" y="0" type="line"/>
      <point x="234" y="225"/>
      <point x="302" y="414"/>
      <point x="433" y="591" type="curve"/>
    </contour>
  </outline>
</glyph>
<glyph name="eight" format="1">
  <advance width="456"/>
  <unicode hex="0038"/>
  <outline>
    <contour>
      <point x="343" y="382" type="curve"/>
      <point x="390" y="415"/>
      <point x="410" y="458"/>
      <point x="410" y="523" type="curve" smooth="yes"/>
      <point x="410" y="634"/>
      <point x="335" y="710"/>
      <point x="227" y="710" type="curve" smooth="yes"/>
      <point x="118" y="710"/>
      <point x="44" y="632"/>
      <point x="44" y="516" type="curve" smooth="yes"/>
      <point x="44" y="451"/>
      <point x="64" y="411"/>
      <point x="115" y="377" type="curve"/>
      <point x="52" y="337"/>
      <point x="26" y="287"/>
      <point x="26" y="203" type="curve" smooth="yes"/>
      <point x="26" y="67"/>
      <point x="104" y="-19"/>
      <point x="226" y="-19" type="curve" smooth="yes"/>
      <point x="348" y="-19"/>
      <point x="430" y="75"/>
      <point x="430" y="214" type="curve" smooth="yes"/>
      <point x="430" y="295"/>
      <point x="407" y="339"/>
    </contour>
    <contour>
      <point x="231" y="598" type="curve" smooth="yes"/>
      <point x="272" y="598"/>
      <point x="300" y="562"/>
      <point x="300" y="510" type="curve" smooth="yes"/>
      <point x="300" y="457"/>
      <point x="272" y="422"/>
      <point x="229" y="422" type="curve" smooth="yes"/>
      <point x="186" y="422"/>
      <point x="154" y="460"/>
      <point x="154" y="512" type="curve" smooth="yes"/>
      <point x="154" y="564"/>
      <point x="184" y="598"/>
    </contour>
    <contour>
      <point x="228" y="316" type="curve" smooth="yes"/>
      <point x="278" y="316"/>
      <point x="312" y="271"/>
      <point x="312" y="206" type="curve" smooth="yes"/>
      <point x="312" y="139"/>
      <point x="278" y="93"/>
      <point x="228" y="93" type="curve" smooth="yes"/>
      <point x="177" y="93"/>
      <point x="144" y="137"/>
      <point x="144" y="206" type="curve" smooth="yes"/>
      <point x="144" y="274"/>
      <point x="176" y="316"/>
    </contour>
  </outline>
</glyph>
<glyph name="nine" format="1">
  <advance width="456"/>
  <unicode hex="0039"/>
  <outline>
    <contour>
      <point x="37" y="164" type="line"/>
      <point x="42" y="118"/>
      <point x="49" y="96"/>
      <point x="65" y="67" type="curve" smooth="yes"/>
      <point x="97" y="12"/>
      <point x="151" y="-19"/>
      <point x="215" y="-19" type="curve" smooth="yes"/>
      <point x="270" y="-19"/>
      <point x="318" y="4"/>
      <point x="352" y="47" type="curve" smooth="yes"/>
      <point x="403" y="111"/>
      <point x="428" y="213"/>
      <point x="428" y="354" type="curve" smooth="yes"/>
      <point x="428" y="591"/>
      <point x="359" y="710"/>
      <point x="223" y="710" type="curve" smooth="yes"/>
      <point x="101" y="710"/>
      <point x="25" y="614"/>
      <point x="25" y="462" type="curve" smooth="yes"/>
      <point x="25" y="325"/>
      <point x="96" y="233"/>
      <point x="202" y="233" type="curve" smooth="yes"/>
      <point x="254" y="233"/>
      <point x="287" y="251"/>
      <point x="314" y="296" type="curve"/>
      <point x="311" y="218"/>
      <point x="305" y="180"/>
      <point x="288" y="147" type="curve" smooth="yes"/>
      <point x="271" y="111"/>
      <point x="247" y="93"/>
      <point x="216" y="93" type="curve" smooth="yes"/>
      <point x="179" y="93"/>
      <point x="159" y="114"/>
      <point x="150" y="164" type="curve"/>
    </contour>
    <contour>
      <point x="225" y="595" type="curve" smooth="yes"/>
      <point x="277" y="595"/>
      <point x="310" y="546"/>
      <point x="310" y="468" type="curve" smooth="yes"/>
      <point x="310" y="392"/>
      <point x="277" y="345"/>
      <point x="223" y="345" type="curve" smooth="yes"/>
      <point x="169" y="345"/>
      <point x="140" y="390"/>
      <point x="140" y="474" type="curve" smooth="yes"/>
      <point x="140" y="551"/>
      <point x="171" y="595"/>
    </contour>
  </outline>
</glyph>
<glyph name="colon" format="1">
  <advance width="273"/>
  <unicode hex="003A"/>
  <outline>
    <contour>
      <point x="198" y="147" type="line"/>
      <point x="75" y="147" type="line"/>
      <point x="75" y="0" type="line"/>
      <point x="198" y="0" type="line"/>
    </contour>
    <contour>
      <point x="198" y="512" type="line"/>
      <point x="75" y="512" type="line"/>
      <point x="75" y="365" type="line"/>
      <point x="198" y="365" type="line"/>
    </contour>
  </outline>
</glyph>
<glyph name="semicolon" format="1">
  <advance width="273"/>
  <unicode hex="003B"/>
  <outline>
    <contour>
      <point x="198" y="147" type="line"/>
      <point x="75" y="147" type="line"/>
      <point x="75" y="0" type="line"/>
      <point x="144" y="0" type="line"/>
      <point x="139" y="-67"/>
      <point x="122" y="-96"/>
      <point x="75" y="-115" type="curve"/>
      <point x="75" y="-168" type="line"/>
      <point x="95" y="-165"/>
      <point x="110" y="-158"/>
      <point x="134" y="-141" type="curve" smooth="yes"/>
      <point x="178" y="-109"/>
      <point x="198" y="-58"/>
      <point x="198" y="20" type="curve" smooth="yes"/>
    </contour>
    <contour>
      <point x="198" y="512" type="line"/>
      <point x="75" y="512" type="line"/>
      <point x="75" y="365" type="line"/>
      <point x="198" y="365" type="line"/>
    </contour>
  </outline>
</glyph>
<glyph name="less" format="1">
  <advance width="479"/>
  <unicode hex="003C"/>
  <outline>
    <contour>
      <point x="448" y="-15" type="line"/>
      <point x="448" y="107" type="line"/>
      <point x="164" y="253" type="line"/>
      <point x="448" y="399" type="line"/>
      <point x="448" y="521" type="line"/>
      <point x="31" y="305" type="line"/>
      <point x="31" y="201" type="line"/>
    </contour>
  </outline>
</glyph>
<glyph name="equal" format="1">
  <advance width="479"/>
  <unicode hex="003D"/>
  <outline>
    <contour>
      <point x="446" y="419" type="line"/>
      <point x="33" y="419" type="line"/>
      <point x="33" y="307" type="line"/>
      <point x="446" y="307" type="line"/>
    </contour>
    <contour>
      <point x="446" y="199" type="line"/>
      <point x="33" y="199" type="line"/>
      <point x="33" y="87" type="line"/>
      <point x="446" y="87" type="line"/>
    </contour>
  </outline>
</glyph>
<glyph name="greater" format="1">
  <advance width="479"/>
  <unicode hex="003E"/>
  <outline>
    <contour>
      <point x="31" y="-15" type="line"/>
      <point x="448" y="201" type="line"/>
      <point x="448" y="305" type="line"/>
      <point x="31" y="521" type="line"/>
      <point x="31" y="399" type="line"/>
      <point x="315" y="253" type="line"/>
      <point x="31" y="107" type="line"/>
    </contour>
  </outline>
</glyph>
<glyph name="question" format="1">
  <advance width="501"/>
  <unicode hex="003F"/>
  <outline>
    <contour>
      <point x="306" y="208" type="line"/>
      <point x="307" y="274"/>
      <point x="316" y="294"/>
      <point x="357" y="330" type="curve" smooth="yes"/>
      <point x="433" y="398"/>
      <point x="456" y="442"/>
      <point x="456" y="519" type="curve" smooth="yes"/>
      <point x="456" y="644"/>
      <point x="373" y="727"/>
      <point x="248" y="727" type="curve" smooth="yes"/>
      <point x="177" y="727"/>
      <point x="117" y="694"/>
      <point x="83" y="636" type="curve" smooth="yes"/>
      <point x="59" y="596"/>
      <point x="51" y="561"/>
      <point x="49" y="493" type="curve"/>
      <point x="165" y="493" type="line"/>
      <point x="165" y="509" type="line" smooth="yes"/>
      <point x="165" y="521"/>
      <point x="176" y="558"/>
      <point x="183" y="570" type="curve" smooth="yes"/>
      <point x="197" y="595"/>
      <point x="222" y="609"/>
      <point x="252" y="609" type="curve" smooth="yes"/>
      <point x="302" y="609"/>
      <point x="333" y="572"/>
      <point x="333" y="512" type="curve" smooth="yes"/>
      <point x="333" y="471"/>
      <point x="320" y="445"/>
      <point x="282" y="411" type="curve" smooth="yes"/>
      <point x="212" y="349"/>
      <point x="198" y="315"/>
      <point x="198" y="208" type="curve"/>
    </contour>
    <contour>
      <point x="315" y="142" type="line"/>
      <point x="195" y="142" type="line"/>
      <point x="195" y="0" type="line"/>
      <point x="315" y="0" type="line"/>
    </contour>
  </outline>
</glyph>
<glyph name="at" format="1">
  <advance width="800"/>
  <unicode hex="0040"/>
  <outline>
    <contour>
      <point x="501" y="493" type="line"/>
      <point x="475" y="539"/>
      <point x="447" y="558"/>
      <point x="402" y="558" type="curve" smooth="yes"/>
      <point x="306" y="558"/>
      <point x="227" y="448"/>
      <point x="227" y="316" type="curve" smooth="yes"/>
      <point x="227" y="218"/>
      <point x="286" y="137"/>
      <point x="358" y="137" type="curve" smooth="yes"/>
      <point x="388" y="137"/>
      <point x="415" y="154"/>
      <point x="446" y="193" type="curve"/>
      <point x="449" y="157"/>
      <point x="465" y="137"/>
      <point x="491" y="137" type="curve" smooth="yes"/>
      <point x="536" y="137"/>
      <point x="595" y="171"/>
      <point x="635" y="220" type="curve" smooth="yes"/>
      <point x="678" y="273"/>
      <point x="702" y="346"/>
      <point x="702" y="425" type="curve" smooth="yes"/>
      <point x="702" y="601"/>
      <point x="576" y="737"/>
      <point x="414" y="737" type="curve" smooth="yes"/>
      <point x="237" y="737"/>
      <point x="97" y="569"/>
      <point x="97" y="358" type="curve" smooth="yes"/>
      <point x="97" y="146"/>
      <point x="237" y="-19"/>
      <point x="418" y="-19" type="curve" smooth="yes"/>
      <point x="469" y="-19"/>
      <point x="516" y="-5"/>
      <point x="560" y="23" type="curve" smooth="yes"/>
      <point x="604" y="51"/>
      <point x="628" y="77"/>
      <point x="668" y="142" type="curve"/>
      <point x="595" y="142" type="line"/>
      <point x="541" y="85"/>
      <point x="489" y="61"/>
      <point x="423" y="61" type="curve" smooth="yes"/>
      <point x="279" y="61"/>
      <point x="179" y="183"/>
      <point x="179" y="357" type="curve" smooth="yes"/>
      <point x="179" y="534"/>
      <point x="276" y="657"/>
      <point x="414" y="657" type="curve" smooth="yes"/>
      <point x="546" y="657"/>
      <point x="635" y="556"/>
      <point x="635" y="406" type="curve" smooth="yes"/>
      <point x="635" y="310"/>
      <point x="593" y="229"/>
      <point x="544" y="229" type="curve" smooth="yes"/>
      <point x="536" y="229"/>
      <point x="531" y="236"/>
      <point x="531" y="248" type="curve" smooth="yes"/>
      <point x="531" y="257"/>
      <point x="533" y="272"/>
      <point x="536" y="291" type="curve" smooth="yes"/>
      <point x="584" y="546" type="line"/>
      <point x="512" y="546" type="line"/>
    </contour>
    <contour>
      <point x="412" y="461" type="curve" smooth="yes"/>
      <point x="449" y="461"/>
      <point x="477" y="425"/>
      <point x="477" y="375" type="curve" smooth="yes"/>
      <point x="477" y="302"/>
      <point x="431" y="237"/>
      <point x="379" y="237" type="curve" smooth="yes"/>
      <point x="341" y="237"/>
      <point x="315" y="272"/>
      <point x="315" y="324" type="curve" smooth="yes"/>
      <point x="315" y="397"/>
      <point x="360" y="461"/>
    </contour>
  </outline>
</glyph>
<glyph name="B" format="1">
  <advance width="592"/>
  <unicode hex="0042"/>
  <outline>
    <contour>
      <point x="62" y="0" type="line"/>
      <point x="311" y="0" type="line" smooth="yes"/>
      <point x="413" y="0"/>
      <point x="457" y="15"/>
      <point x="498" y="64" type="curve" smooth="yes"/>
      <point x="532" y="105"/>
      <point x="549" y="157"/>
      <point x="549" y="216" type="curve" smooth="yes"/>
      <point x="549" y="255"/>
      <point x="541" y="292"/>
      <point x="527" y="320" type="curve" smooth="yes"/>
      <point x="511" y="351"/>
      <point x="495" y="367"/>
      <point x="458" y="387" type="curve"/>
      <point x="509" y="418"/>
      <point x="530" y="460"/>
      <point x="530" y="531" type="curve" smooth="yes"/>
      <point x="530" y="647"/>
      <point x="461" y="718"/>
      <point x="348" y="718" type="curve" smooth="yes"/>
      <point x="62" y="718" type="line"/>
    </contour>
    <contour>
      <point x="180" y="315" type="line"/>
      <point x="337" y="315" type="line" smooth="yes"/>
      <point x="393" y="315"/>
      <point x="426" y="282"/>
      <point x="426" y="225" type="curve" smooth="yes"/>
      <point x="426" y="159"/>
      <point x="393" y="123"/>
      <point x="331" y="123" type="curve" smooth="yes"/>
      <point x="180" y="123" type="line"/>
    </contour>
    <contour>
      <point x="180" y="595" type="line"/>
      <point x="321" y="595" type="line" smooth="yes"/>
      <point x="384" y="595"/>
      <point x="412" y="571"/>
      <point x="412" y="519" type="curve" smooth="yes"/>
      <point x="412" y="466"/>
      <point x="380" y="437"/>
      <point x="324" y="437" type="curve" smooth="yes"/>
      <point x="180" y="437" type="line"/>
    </contour>
  </outline>
</glyph>
<glyph name="E" format="1">
  <advance width="547"/>
  <unicode hex="0045"/>
  <outline>
    <contour>
      <point x="495" y="718" type="line"/>
      <point x="62" y="718" type="line"/>
      <point x="62" y="0" type="line"/>
      <point x="509" y="0" type="line"/>
      <point x="509" y="127" type="line"/>
      <point x="182" y="127" type="line"/>
      <point x="182" y="313" type="line"/>
      <point x="470" y="313" type="line"/>
      <point x="470" y="440" type="line"/>
      <point x="182" y="440" type="line"/>
      <point x="182" y="591" type="line"/>
      <point x="495" y="591" type="line"/>
    </contour>
  </outline>
</glyph>
<glyph name="F" format="1">
  <advance width="501"/>
  <unicode hex="0046"/>
  <outline>
    <contour>
      <point x="185" y="302" type="line"/>
      <point x="444" y="302" type="line"/>
      <point x="444" y="429" type="line"/>
      <point x="185" y="429" type="line"/>
      <point x="185" y="591" type="line"/>
      <point x="481" y="591" type="line"/>
      <point x="481" y="718" type="line"/>
      <point x="62" y="718" type="line"/>
      <point x="62" y="0" type="line"/>
      <point x="185" y="0" type="line"/>
    </contour>
  </outline>
</glyph>
<glyph name="K" format="1">
  <advance width="592"/>
  <unicode hex="004B"/>
  <outline>
    <contour>
      <point x="194" y="243" type="line"/>
      <point x="251" y="315" type="line"/>
      <point x="434" y="0" type="line"/>
      <point x="592" y="0" type="line"/>
      <point x="338" y="424" type="line"/>
      <point x="578" y="718" type="line"/>
      <point x="419" y="718" type="line"/>
      <point x="194" y="426" type="line"/>
      <point x="194" y="718" type="line"/>
      <point x="71" y="718" type="line"/>
      <point x="71" y="0" type="line"/>
      <point x="194" y="0" type="line"/>
    </contour>
  </outline>
</glyph>
<glyph name="N" format="1">
  <advance width="592"/>
  <unicode hex="004E"/>
  <outline>
    <contour>
      <point x="422" y="214" type="line"/>
      <point x="186" y="718" type="line"/>
      <point x="57" y="718" type="line"/>
      <point x="57" y="0" type="line"/>
      <point x="171" y="0" type="line"/>
      <point x="171" y="515" type="line"/>
      <point x="414" y="0" type="line"/>
      <point x="536" y="0" type="line"/>
      <point x="536" y="718" type="line"/>
      <point x="422" y="718" type="line"/>
    </contour>
  </outline>
</glyph>
<glyph name="Q" format="1">
  <advance width="638"/>
  <unicode hex="0051"/>
  <outline>
    <contour>
      <point x="604" y="29" type="line"/>
      <point x="540" y="103" type="line"/>
      <point x="584" y="179"/>
      <point x="602" y="251"/>
      <point x="602" y="358" type="curve" smooth="yes"/>
      <point x="602" y="481"/>
      <point x="574" y="577"/>
      <point x="521" y="642" type="curve" smooth="yes"/>
      <point x="472" y="702"/>
      <point x="398" y="737"/>
      <point x="319" y="737" type="curve" smooth="yes"/>
      <point x="240" y="737"/>
      <point x="166" y="702"/>
      <point x="117" y="642" type="curve" smooth="yes"/>
      <point x="64" y="577"/>
      <point x="36" y="481"/>
      <point x="36" y="359" type="curve" smooth="yes"/>
      <point x="36" y="238"/>
      <point x="64" y="140"/>
      <point x="117" y="76" type="curve" smooth="yes"/>
      <point x="166" y="16"/>
      <point x="240" y="-19"/>
      <point x="318" y="-19" type="curve" smooth="yes"/>
      <point x="373" y="-19"/>
      <point x="418" y="-5"/>
      <point x="470" y="29" type="curve"/>
      <point x="539" y="-52" type="line"/>
    </contour>
    <contour>
      <point x="326" y="195" type="line"/>
      <point x="385" y="127" type="line"/>
      <point x="362" y="114"/>
      <point x="343" y="108"/>
      <point x="318" y="108" type="curve" smooth="yes"/>
      <point x="219" y="108"/>
      <point x="159" y="204"/>
      <point x="159" y="363" type="curve" smooth="yes"/>
      <point x="159" y="514"/>
      <point x="221" y="610"/>
      <point x="319" y="610" type="curve" smooth="yes"/>
      <point x="418" y="610"/>
      <point x="479" y="514"/>
      <point x="479" y="359" type="curve" smooth="yes"/>
      <point x="479" y="297"/>
      <point x="471" y="253"/>
      <point x="452" y="205" type="curve"/>
      <point x="389" y="276" type="line"/>
    </contour>
  </outline>
</glyph>
<glyph name="R" format="1">
  <advance width="592"/>
  <unicode hex="0052"/>
  <outline>
    <contour>
      <point x="62" y="0" type="line"/>
      <point x="182" y="0" type="line"/>
      <point x="182" y="280" type="line"/>
      <point x="309" y="280" type="line" smooth="yes"/>
      <point x="354" y="280"/>
      <point x="379" y="271"/>
      <point x="392" y="248" type="curve" smooth="yes"/>
      <point x="402" y="231"/>
      <point x="405" y="208"/>
      <point x="405" y="144" type="curve" smooth="yes"/>
      <point x="406" y="76"/>
      <point x="409" y="41"/>
      <point x="419" y="0" type="curve"/>
      <point x="555" y="0" type="line"/>
      <point x="555" y="19" type="line"/>
      <point x="534" y="29"/>
      <point x="530" y="45"/>
      <point x="529" y="108" type="curve" smooth="yes"/>
      <point x="530" y="276"/>
      <point x="520" y="309"/>
      <point x="454" y="344" type="curve"/>
      <point x="477" y="355"/>
      <point x="487" y="362"/>
      <point x="499" y="376" type="curve" smooth="yes"/>
      <point x="529" y="411"/>
      <point x="545" y="459"/>
      <point x="545" y="514" type="curve" smooth="yes"/>
      <point x="545" y="638"/>
      <point x="472" y="718"/>
      <point x="359" y="718" type="curve" smooth="yes"/>
      <point x="62" y="718" type="line"/>
    </contour>
    <contour>
      <point x="182" y="402" type="line"/>
      <point x="182" y="595" type="line"/>
      <point x="336" y="595" type="line" smooth="yes"/>
      <point x="391" y="595"/>
      <point x="422" y="560"/>
      <point x="422" y="498" type="curve" smooth="yes"/>
      <point x="422" y="432"/>
      <point x="392" y="402"/>
      <point x="327" y="402" type="curve" smooth="yes"/>
    </contour>
  </outline>
</glyph>
<glyph name="S" format="1">
  <advance width="547"/>
  <unicode hex="0053"/>
  <outline>
    <contour>
      <point x="32" y="221" type="line"/>
      <point x="34" y="163"/>
      <point x="41" y="134"/>
      <point x="59" y="98" type="curve" smooth="yes"/>
      <point x="97" y="22"/>
      <point x="174" y="-19"/>
      <point x="277" y="-19" type="curve" smooth="yes"/>
      <point x="425" y="-19"/>
      <point x="516" y="70"/>
      <point x="516" y="214" type="curve" smooth="yes"/>
      <point x="516" y="320"/>
      <point x="472" y="376"/>
      <point x="362" y="409" type="curve" smooth="yes"/>
      <point x="218" y="452" type="line" smooth="yes"/>
      <point x="173" y="466"/>
      <point x="156" y="486"/>
      <point x="156" y="527" type="curve" smooth="yes"/>
      <point x="156" y="581"/>
      <point x="196" y="614"/>
      <point x="261" y="614" type="curve" smooth="yes"/>
      <point x="334" y="614"/>
      <point x="370" y="581"/>
      <point x="379" y="505" type="curve"/>
      <point x="497" y="505" type="line"/>
      <point x="488" y="655"/>
      <point x="406" y="737"/>
      <point x="265" y="737" type="curve" smooth="yes"/>
      <point x="125" y="737"/>
      <point x="41" y="652"/>
      <point x="41" y="512" type="curve" smooth="yes"/>
      <point x="41" y="450"/>
      <point x="58" y="401"/>
      <point x="91" y="369" type="curve" smooth="yes"/>
      <point x="116" y="343"/>
      <point x="153" y="326"/>
      <point x="228" y="305" type="curve" smooth="yes"/>
      <point x="291" y="287" type="line" smooth="yes"/>
      <point x="374" y="263"/>
      <point x="398" y="243"/>
      <point x="398" y="196" type="curve" smooth="yes"/>
      <point x="398" y="138"/>
      <point x="354" y="104"/>
      <point x="278" y="104" type="curve" smooth="yes"/>
      <point x="196" y="104"/>
      <point x="155" y="142"/>
      <point x="150" y="221" type="curve"/>
    </contour>
  </outline>
</glyph>
<glyph name="W" format="1">
  <advance width="774"/>
  <unicode hex="0057"/>
  <outline>
    <contour>
      <point x="180" y="0" type="line"/>
      <point x="294" y="0" type="line"/>
      <point x="319" y="142" type="line" smooth="yes"/>
      <point x="332" y="217"/>
      <point x="355" y="364"/>
      <point x="386" y="565" type="curve"/>
      <point x="409" y="403"/>
      <point x="418" y="349"/>
      <point x="478" y="0" type="curve"/>
      <point x="596" y="0" type="line"/>
      <point x="762" y="718" type="line"/>
      <point x="637" y="718" type="line"/>
      <point x="570" y="367"/>
      <point x="554" y="279"/>
      <point x="540" y="187" type="curve"/>
      <point x="525" y="294"/>
      <point x="517" y="343"/>
      <point x="452" y="718" type="curve"/>
      <point x="321" y="718" type="line"/>
      <point x="276" y="439"/>
      <point x="256" y="313"/>
      <point x="239" y="187" type="curve"/>
      <point x="226" y="286"/>
      <point x="214" y="353"/>
      <point x="144" y="718" type="curve"/>
      <point x="13" y="718" type="line"/>
    </contour>
  </outline>
</glyph>
<glyph name="Y" format="1">
  <advance width="547"/>
  <unicode hex="0059"/>
  <outline>
    <contour>
      <point x="338" y="269" type="line"/>
      <point x="535" y="718" type="line"/>
      <point x="396" y="718" type="line"/>
      <point x="279" y="406" type="line"/>
      <point x="157" y="718" type="line"/>
      <point x="12" y="718" type="line"/>
      <point x="215" y="271" type="line"/>
      <point x="215" y="0" type="line"/>
      <point x="338" y="0" type="line"/>
    </contour>
  </outline>
</glyph>
<glyph name="Z" format="1">
  <advance width="501"/>
  <unicode hex="005A"/>
  <outline>
    <contour>
      <point x="481" y="127" type="line"/>
      <point x="170" y="127" type="line"/>
      <point x="479" y="600" type="line"/>
      <point x="479" y="718" type="line"/>
      <point x="28" y="718" type="line"/>
      <point x="28" y="591" type="line"/>
      <point x="325" y="591" type="line"/>
      <point x="20" y="127" type="line"/>
      <point x="20" y="0" type="line"/>
      <point x="481" y="0" type="line"/>
    </contour>
  </outline>
</glyph>
<glyph name="bracketleft" format="1">
  <advance width="273"/>
  <unicode hex="005B"/>
  <outline>
    <contour>
      <point x="152" y="625" type="line"/>
      <point x="253" y="625" type="line"/>
      <point x="253" y="722" type="line"/>
      <point x="52" y="722" type="line"/>
      <point x="52" y="-196" type="line"/>
      <point x="253" y="-196" type="line"/>
      <point x="253" y="-99" type="line"/>
      <point x="152" y="-99" type="line"/>
    </contour>
  </outline>
</glyph>
<glyph name="bracketright" format="1">
  <advance width="273"/>
  <unicode hex="005D"/>
  <outline>
    <contour>
      <point x="121" y="-99" type="line"/>
      <point x="20" y="-99" type="line"/>
      <point x="20" y="-196" type="line"/>
      <point x="221" y="-196" type="line"/>
      <point x="221" y="722" type="line"/>
      <point x="20" y="722" type="line"/>
      <point x="20" y="625" type="line"/>
      <point x="121" y="625" type="line"/>
    </contour>
  </outline>
</glyph>
<glyph name="asciicircum" format="1">
  <advance width="479"/>
  <unicode hex="005E"/>
  <outline>
    <contour>
      <point x="140" y="323" type="line"/>
      <point x="239" y="586" type="line"/>
      <point x="338" y="323" type="line"/>
      <point x="428" y="323" type="line"/>
      <point x="280" y="698" type="line"/>
      <point x="199" y="698" type="line"/>
      <point x="51" y="323" type="line"/>
    </contour>
  </outline>
</glyph>
<glyph name="grave" format="1">
  <advance width="273"/>
  <unicode hex="0060"/>
  <outline>
    <contour>
      <point x="101" y="604" type="line"/>
      <point x="184" y="604" type="line"/>
      <point x="107" y="750" type="line"/>
      <point x="-19" y="750" type="line"/>
    </contour>
  </outline>
</glyph>
<glyph name="b" format="1">
  <advance width="501"/>
  <unicode hex="0062"/>
  <outline>
    <contour>
      <point x="164" y="718" type="line"/>
      <point x="50" y="718" type="line"/>
      <point x="50" y="0" type="line"/>
      <point x="162" y="0" type="line"/>
      <point x="162" y="70" type="line"/>
      <point x="190" y="13"/>
      <point x="231" y="-14"/>
      <point x="290" y="-14" type="curve" smooth="yes"/>
      <point x="402" y="-14"/>
      <point x="474" y="98"/>
      <point x="474" y="272" type="curve" smooth="yes"/>
      <point x="474" y="437"/>
      <point x="401" y="546"/>
      <point x="291" y="546" type="curve" smooth="yes"/>
      <point x="235" y="546"/>
      <point x="198" y="521"/>
      <point x="164" y="460" type="curve"/>
    </contour>
    <contour>
      <point x="259" y="424" type="curve" smooth="yes"/>
      <point x="319" y="424"/>
      <point x="356" y="364"/>
      <point x="356" y="264" type="curve" smooth="yes"/>
      <point x="356" y="165"/>
      <point x="318" y="101"/>
      <point x="260" y="101" type="curve" smooth="yes"/>
      <point x="196" y="101"/>
      <point x="160" y="159"/>
      <point x="160" y="261" type="curve" smooth="yes"/>
      <point x="160" y="367"/>
      <point x="195" y="424"/>
    </contour>
  </outline>
</glyph>
<glyph name="d" format="1">
  <advance width="501"/>
  <unicode hex="0064"/>
  <outline>
    <contour>
      <point x="452" y="718" type="line"/>
      <point x="338" y="718" type="line"/>
      <point x="338" y="460" type="line"/>
      <point x="303" y="522"/>
      <point x="267" y="546"/>
      <point x="211" y="546" type="curve" smooth="yes"/>
      <point x="101" y="546"/>
      <point x="28" y="437"/>
      <point x="28" y="272" type="curve" smooth="yes"/>
      <point x="28" y="98"/>
      <point x="100" y="-14"/>
      <point x="212" y="-14" type="curve" smooth="yes"/>
      <point x="271" y="-14"/>
      <point x="312" y="13"/>
      <point x="340" y="70" type="curve"/>
      <point x="340" y="0" type="line"/>
      <point x="452" y="0" type="line"/>
    </contour>
    <contour>
      <point x="246" y="424" type="curve" smooth="yes"/>
      <point x="307" y="424"/>
      <point x="342" y="364"/>
      <point x="342" y="260" type="curve" smooth="yes"/>
      <point x="342" y="159"/>
      <point x="306" y="101"/>
      <point x="242" y="101" type="curve" smooth="yes"/>
      <point x="183" y="101"/>
      <point x="146" y="164"/>
      <point x="146" y="264" type="curve" smooth="yes"/>
      <point x="146" y="365"/>
      <point x="183" y="424"/>
    </contour>
  </outline>
</glyph>
<glyph name="h" format="1">
  <advance width="501"/>
  <unicode hex="0068"/>
  <outline>
    <contour>
      <point x="167" y="718" type="line"/>
      <point x="53" y="718" type="line"/>
      <point x="53" y="0" type="line"/>
      <point x="167" y="0" type="line"/>
      <point x="167" y="305" type="line" smooth="yes"/>
      <point x="167" y="381"/>
      <point x="203" y="428"/>
      <point x="260" y="428" type="curve" smooth="yes"/>
      <point x="312" y="428"/>
      <point x="334" y="397"/>
      <point x="334" y="323" type="curve" smooth="yes"/>
      <point x="334" y="0" type="line"/>
      <point x="448" y="0" type="line"/>
      <point x="448" y="368" type="line" smooth="yes"/>
      <point x="448" y="476"/>
      <point x="389" y="546"/>
      <point x="298" y="546" type="curve" smooth="yes"/>
      <point x="236" y="546"/>
      <point x="190" y="516"/>
      <point x="167" y="459" type="curve"/>
    </contour>
  </outline>
</glyph>
<glyph name="i" format="1">
  <advance width="228"/>
  <unicode hex="0069"/>
  <outline>
    <contour>
      <point x="57" y="532" type="line"/>
      <point x="57" y="0" type="line"/>
      <point x="171" y="0" type="line"/>
      <point x="171" y="532" type="line"/>
    </contour>
    <contour>
      <point x="171" y="725" type="line"/>
      <point x="57" y="725" type="line"/>
      <point x="57" y="595" type="line"/>
      <point x="171" y="595" type="line"/>
    </contour>
  </outline>
</glyph>
<glyph name="k" format="1">
  <advance width="456"/>
  <unicode hex="006B"/>
  <outline>
    <contour>
      <point x="171" y="168" type="line"/>
      <point x="219" y="228" type="line"/>
      <point x="323" y="0" type="line"/>
      <point x="461" y="0" type="line"/>
      <point x="302" y="326" type="line"/>
      <point x="456" y="532" type="line"/>
      <point x="315" y="532" type="line"/>
      <point x="171" y="330" type="line"/>
      <point x="171" y="718" type="line"/>
      <point x="57" y="718" type="line"/>
      <point x="57" y="0" type="line"/>
      <point x="171" y="0" type="line"/>
    </contour>
  </outline>
</glyph>
<glyph name="m" format="1">
  <advance width="729"/>
  <unicode hex="006D"/>
  <outline>
    <contour>
      <point x="162" y="532" type="line"/>
      <point x="52" y="532" type="line"/>
      <point x="52" y="0" type="line"/>
      <point x="166" y="0" type="line"/>
      <point x="166" y="324" type="line" smooth="yes"/>
      <point x="166" y="393"/>
      <point x="190" y="428"/>
      <point x="239" y="428" type="curve" smooth="yes"/>
      <point x="289" y="428"/>
      <point x="307" y="400"/>
      <point x="307" y="320" type="curve" smooth="yes"/>
      <point x="307" y="0" type="line"/>
      <point x="421" y="0" type="line"/>
      <point x="421" y="319" type="line" smooth="yes"/>
      <point x="421" y="389"/>
      <point x="448" y="428"/>
      <point x="498" y="428" type="curve" smooth="yes"/>
      <point x="541" y="428"/>
      <point x="563" y="392"/>
      <point x="563" y="323" type="curve" smooth="yes"/>
      <point x="563" y="0" type="line"/>
      <point x="677" y="0" type="line"/>
      <point x="677" y="368" type="line" smooth="yes"/>
      <point x="677" y="474"/>
      <point x="618" y="546"/>
      <point x="530" y="546" type="curve" smooth="yes"/>
      <point x="476" y="546"/>
      <point x="442" y="523"/>
      <point x="408" y="461" type="curve"/>
      <point x="373" y="526"/>
      <point x="345" y="546"/>
      <point x="290" y="546" type="curve" smooth="yes"/>
      <point x="228" y="546"/>
      <point x="189" y="517"/>
      <point x="162" y="451" type="curve"/>
    </contour>
  </outline>
</glyph>
<glyph name="p" format="1">
  <advance width="501"/>
  <unicode hex="0070"/>
  <outline>
    <contour>
      <point x="161" y="532" type="line"/>
      <point x="51" y="532" type="line"/>
      <point x="51" y="-207" type="line"/>
      <point x="165" y="-207" type="line"/>
      <point x="165" y="71" type="line"/>
      <point x="195" y="10"/>
      <point x="230" y="-14"/>
      <point x="289" y="-14" type="curve" smooth="yes"/>
      <point x="402" y="-14"/>
      <point x="474" y="97"/>
      <point x="474" y="272" type="curve" smooth="yes"/>
      <point x="474" y="437"/>
      <point x="401" y="546"/>
      <point x="290" y="546" type="curve" smooth="yes"/>
      <point x="231" y="546"/>
      <point x="194" y="519"/>
      <point x="161" y="452" type="curve"/>
    </contour>
    <contour>
      <point x="258" y="424" type="curve" smooth="yes"/>
      <point x="319" y="424"/>
      <point x="356" y="364"/>
      <point x="356" y="265" type="curve" smooth="yes"/>
      <point x="356" y="165"/>
      <point x="319" y="101"/>
      <point x="260" y="101" type="curve" smooth="yes"/>
      <point x="196" y="101"/>
      <point x="161" y="158"/>
      <point x="161" y="260" type="curve" smooth="yes"/>
      <point x="161" y="368"/>
      <point x="194" y="424"/>
    </contour>
  </outline>
</glyph>
<glyph name="q" format="1">
  <advance width="501"/>
  <unicode hex="0071"/>
  <outline>
    <contour>
      <point x="343" y="532" type="line"/>
      <point x="343" y="450" type="line"/>
      <point x="313" y="518"/>
      <point x="276" y="546"/>
      <point x="218" y="546" type="curve" smooth="yes"/>
      <point x="105" y="546"/>
      <point x="28" y="431"/>
      <point x="28" y="261" type="curve" smooth="yes"/>
      <point x="28" y="96"/>
      <point x="102" y="-14"/>
      <point x="214" y="-14" type="curve" smooth="yes"/>
      <point x="274" y="-14"/>
      <point x="310" y="10"/>
      <point x="339" y="69" type="curve"/>
      <point x="339" y="-207" type="line"/>
      <point x="453" y="-207" type="line"/>
      <point x="453" y="532" type="line"/>
    </contour>
    <contour>
      <point x="243" y="424" type="curve" smooth="yes"/>
      <point x="303" y="424"/>
      <point x="341" y="362"/>
      <point x="341" y="263" type="curve" smooth="yes"/>
      <point x="341" y="162"/>
      <point x="306" y="104"/>
      <point x="243" y="104" type="curve" smooth="yes"/>
      <point x="180" y="104"/>
      <point x="146" y="157"/>
      <point x="146" y="258" type="curve" smooth="yes"/>
      <point x="146" y="363"/>
      <point x="181" y="424"/>
    </contour>
  </outline>
</glyph>
<glyph name="t" format="1">
  <advance width="273"/>
  <unicode hex="0074"/>
  <outline>
    <contour>
      <point x="181" y="676" type="line"/>
      <point x="67" y="676" type="line"/>
      <point x="67" y="532" type="line"/>
      <point x="8" y="532" type="line"/>
      <point x="8" y="432" type="line"/>
      <point x="67" y="432" type="line"/>
      <point x="67" y="109" type="line" smooth="yes"/>
      <point x="67" y="25"/>
      <point x="99" y="-6"/>
      <point x="183" y="-6" type="curve" smooth="yes"/>
      <point x="198" y="-6" type="line" smooth="yes"/>
      <point x="211" y="-6"/>
      <point x="214" y="-6"/>
      <point x="253" y="-4" type="curve"/>
      <point x="253" y="102" type="line"/>
      <point x="240" y="100"/>
      <point x="235" y="100"/>
      <point x="228" y="100" type="curve" smooth="yes"/>
      <point x="188" y="100"/>
      <point x="181" y="106"/>
      <point x="181" y="143" type="curve" smooth="yes"/>
      <point x="181" y="432" type="line"/>
      <point x="253" y="432" type="line"/>
      <point x="253" y="532" type="line"/>
      <point x="181" y="532" type="line"/>
    </contour>
  </outline>
</glyph>
<glyph name="v" format="1">
  <advance width="456"/>
  <unicode hex="0076"/>
  <outline>
    <contour>
      <point x="445" y="532" type="line"/>
      <point x="323" y="532" type="line"/>
      <point x="230" y="136" type="line"/>
      <point x="139" y="532" type="line"/>
      <point x="11" y="532" type="line"/>
      <point x="167" y="0" type="line"/>
      <point x="288" y="0" type="line"/>
    </contour>
  </outline>
</glyph>
<glyph name="w" format="1">
  <advance width="638"/>
  <unicode hex="0077"/>
  <outline>
    <contour>
      <point x="631" y="532" type="line"/>
      <point x="513" y="532" type="line"/>
      <point x="444" y="145" type="line"/>
      <point x="377" y="532" type="line"/>
      <point x="262" y="532" type="line"/>
      <point x="199" y="145" type="line"/>
      <point x="130" y="532" type="line"/>
      <point x="8" y="532" type="line"/>
      <point x="131" y="0" type="line"/>
      <point x="249" y="0" type="line"/>
      <point x="318" y="393" type="line"/>
      <point x="387" y="0" type="line"/>
      <point x="505" y="0" type="line"/>
    </contour>
  </outline>
</glyph>
<glyph name="x" format="1">
  <advance width="456"/>
  <unicode hex="0078"/>
  <outline>
    <contour>
      <point x="295" y="271" type="line"/>
      <point x="439" y="532" type="line"/>
      <point x="304" y="532" type="line"/>
      <point x="231" y="377" type="line"/>
      <point x="157" y="532" type="line"/>
      <point x="18" y="532" type="line"/>
      <point x="161" y="271" type="line"/>
      <point x="12" y="0" type="line"/>
      <point x="151" y="0" type="line"/>
      <point x="226" y="160" type="line"/>
      <point x="302" y="0" type="line"/>
      <point x="444" y="0" type="line"/>
    </contour>
  </outline>
</glyph>
<glyph name="z" format="1">
  <advance width="410"/>
  <unicode hex="007A"/>
  <outline>
    <contour>
      <point x="386" y="417" type="line"/>
      <point x="386" y="532" type="line"/>
      <point x="32" y="532" type="line"/>
      <point x="32" y="420" type="line"/>
      <point x="241" y="420" type="line"/>
      <point x="16" y="109" type="line"/>
      <point x="16" y="0" type="line"/>
      <point x="394" y="0" type="line"/>
      <point x="394" y="115" type="line"/>
      <point x="165" y="115" type="line"/>
    </contour>
  </outline>
</glyph>
<glyph name="braceleft" format="1">
  <advance width="319"/>
  <unicode hex="007B"/>
  <outline>
    <contour>
      <point x="299" y="-108" type="line"/>
      <point x="262" y="-108" type="line" smooth="yes"/>
      <point x="230" y="-108"/>
      <point x="216" y="-88"/>
      <point x="216" y="-42" type="curve" smooth="yes"/>
      <point x="216" y="154" type="line" smooth="yes"/>
      <point x="216" y="186"/>
      <point x="198" y="222"/>
      <point x="172" y="242" type="curve" smooth="yes"/>
      <point x="157" y="253"/>
      <point x="145" y="258"/>
      <point x="118" y="263" type="curve"/>
      <point x="145" y="268"/>
      <point x="157" y="273"/>
      <point x="172" y="284" type="curve" smooth="yes"/>
      <point x="198" y="304"/>
      <point x="216" y="340"/>
      <point x="216" y="372" type="curve" smooth="yes"/>
      <point x="216" y="568" type="line" smooth="yes"/>
      <point x="216" y="614"/>
      <point x="230" y="634"/>
      <point x="262" y="634" type="curve" smooth="yes"/>
      <point x="299" y="634" type="line"/>
      <point x="299" y="722" type="line"/>
      <point x="231" y="722" type="line" smooth="yes"/>
      <point x="165" y="722"/>
      <point x="116" y="664"/>
      <point x="116" y="585" type="curve" smooth="yes"/>
      <point x="116" y="385" type="line" smooth="yes"/>
      <point x="116" y="340"/>
      <point x="88" y="313"/>
      <point x="39" y="309" type="curve"/>
      <point x="39" y="217" type="line"/>
      <point x="89" y="213"/>
      <point x="116" y="186"/>
      <point x="116" y="141" type="curve" smooth="yes"/>
      <point x="116" y="-59" type="line" smooth="yes"/>
      <point x="116" y="-138"/>
      <point x="165" y="-196"/>
      <point x="231" y="-196" type="curve" smooth="yes"/>
      <point x="299" y="-196" type="line"/>
    </contour>
  </outline>
</glyph>
<glyph name="braceright" format="1">
  <advance width="319"/>
  <unicode hex="007D"/>
  <outline>
    <contour>
      <point x="280" y="309" type="line"/>
      <point x="231" y="313"/>
      <point x="203" y="340"/>
      <point x="203" y="385" type="curve" smooth="yes"/>
      <point x="203" y="585" type="line" smooth="yes"/>
      <point x="203" y="663"/>
      <point x="154" y="722"/>
      <point x="88" y="722" type="curve" smooth="yes"/>
      <point x="20" y="722" type="line"/>
      <point x="20" y="634" type="line"/>
      <point x="57" y="634" type="line" smooth="yes"/>
      <point x="89" y="634"/>
      <point x="103" y="614"/>
      <point x="103" y="568" type="curve" smooth="yes"/>
      <point x="103" y="372" type="line" smooth="yes"/>
      <point x="103" y="340"/>
      <point x="121" y="304"/>
      <point x="147" y="284" type="curve" smooth="yes"/>
      <point x="162" y="273"/>
      <point x="174" y="268"/>
      <point x="201" y="263" type="curve"/>
      <point x="174" y="258"/>
      <point x="162" y="253"/>
      <point x="147" y="242" type="curve" smooth="yes"/>
      <point x="121" y="222"/>
      <point x="103" y="186"/>
      <point x="103" y="154" type="curve" smooth="yes"/>
      <point x="103" y="-42" type="line" smooth="yes"/>
      <point x="103" y="-88"/>
      <point x="89" y="-108"/>
      <point x="57" y="-108" type="curve" smooth="yes"/>
      <point x="20" y="-108" type="line"/>
      <point x="20" y="-196" type="line"/>
      <point x="88" y="-196" type="line" smooth="yes"/>
      <point x="154" y="-196"/>
      <point x="203" y="-137"/>
      <point x="203" y="-59" type="curve" smooth="yes"/>
      <point x="203" y="141" type="line" smooth="yes"/>
      <point x="203" y="186"/>
      <point x="230" y="213"/>
      <point x="280" y="217" type="curve"/>
    </contour>
  </outline>
</glyph>
<glyph name="asciitilde" format="1">
  <advance width="479"/>
  <unicode hex="007E"/>
  <outline>
    <contour>
      <point x="373" y="321" type="line"/>
      <point x="357" y="294"/>
      <point x="343" y="285"/>
      <point x="317" y="285" type="curve" smooth="yes"/>
      <point x="292" y="285"/>
      <point x="270" y="292"/>
      <point x="234" y="311" type="curve" smooth="yes"/>
      <point x="201" y="329"/>
      <point x="179" y="336"/>
      <point x="157" y="336" type="curve" smooth="yes"/>
      <point x="112" y="336"/>
      <point x="84" y="311"/>
      <point x="50" y="242" type="curve"/>
      <point x="106" y="187" type="line"/>
      <point x="122" y="215"/>
      <point x="136" y="224"/>
      <point x="162" y="224" type="curve" smooth="yes"/>
      <point x="187" y="224"/>
      <point x="209" y="217"/>
      <point x="245" y="198" type="curve" smooth="yes"/>
      <point x="279" y="180"/>
      <point x="300" y="173"/>
      <point x="322" y="173" type="curve" smooth="yes"/>
      <point x="367" y="173"/>
      <point x="395" y="198"/>
      <point x="429" y="267" type="curve"/>
    </contour>
  </outline>
</glyph>
<glyph name="exclamdown" format="1">
  <advance width="273"/>
  <unicode hex="00A1"/>
  <outline>
    <contour>
      <point x="77" y="390" type="line"/>
      <point x="197" y="390" type="line"/>
      <point x="197" y="532" type="line"/>
      <point x="77" y="532" type="line"/>
    </contour>
    <contour>
      <point x="74" y="-3" type="line"/>
      <point x="74" y="-186" type="line"/>
      <point x="200" y="-186" type="line"/>
      <point x="200" y="-3" type="line"/>
      <point x="167" y="333" type="line"/>
      <point x="107" y="333" type="line"/>
    </contour>
  </outline>
</glyph>
<glyph name="cent" format="1">
  <advance width="456"/>
  <unicode hex="00A2"/>
  <outline>
    <contour>
      <point x="430" y="342" type="line"/>
      <point x="423" y="438"/>
      <point x="384" y="499"/>
      <point x="314" y="530" type="curve"/>
      <point x="336" y="628" type="line"/>
      <point x="294" y="628" type="line"/>
      <point x="274" y="543" type="line"/>
      <point x="261" y="545"/>
      <point x="247" y="546"/>
      <point x="237" y="546" type="curve" smooth="yes"/>
      <point x="104" y="546"/>
      <point x="28" y="441"/>
      <point x="28" y="257" type="curve" smooth="yes"/>
      <point x="28" y="188"/>
      <point x="39" y="133"/>
      <point x="61" y="89" type="curve" smooth="yes"/>
      <point x="83" y="45"/>
      <point x="103" y="26"/>
      <point x="148" y="2" type="curve"/>
      <point x="120" y="-118" type="line"/>
      <point x="163" y="-118" type="line"/>
      <point x="188" y="-10" type="line"/>
      <point x="200" y="-13"/>
      <point x="215" y="-14"/>
      <point x="229" y="-14" type="curve" smooth="yes"/>
      <point x="342" y="-14"/>
      <point x="412" y="59"/>
      <point x="429" y="194" type="curve"/>
      <point x="313" y="194" type="line"/>
      <point x="309" y="139"/>
      <point x="277" y="101"/>
      <point x="234" y="101" type="curve" smooth="yes"/>
      <point x="226" y="101"/>
      <point x="220" y="102"/>
      <point x="214" y="105" type="curve"/>
      <point x="286" y="410" type="line"/>
      <point x="300" y="395"/>
      <point x="308" y="374"/>
      <point x="314" y="342" type="curve"/>
    </contour>
    <contour>
      <point x="177" y="129" type="line"/>
      <point x="154" y="161"/>
      <point x="146" y="198"/>
      <point x="146" y="265" type="curve" smooth="yes"/>
      <point x="146" y="370"/>
      <point x="179" y="428"/>
      <point x="237" y="428" type="curve" smooth="yes"/>
      <point x="247" y="428" type="line"/>
    </contour>
  </outline>
</glyph>
<glyph name="sterling" format="1">
  <advance width="456"/>
  <unicode hex="00A3"/>
  <outline>
    <contour>
      <point x="309" y="381" type="line"/>
      <point x="192" y="381" type="line"/>
      <point x="157" y="476"/>
      <point x="152" y="491"/>
      <point x="152" y="513" type="curve" smooth="yes"/>
      <point x="152" y="568"/>
      <point x="186" y="606"/>
      <point x="236" y="606" type="curve" smooth="yes"/>
      <point x="263" y="606"/>
      <point x="285" y="596"/>
      <point x="299" y="576" type="curve" smooth="yes"/>
      <point x="311" y="559"/>
      <point x="317" y="538"/>
      <point x="324" y="487" type="curve"/>
      <point x="431" y="487" type="line"/>
      <point x="428" y="551"/>
      <point x="421" y="582"/>
      <point x="403" y="619" type="curve" smooth="yes"/>
      <point x="370" y="683"/>
      <point x="310" y="718"/>
      <point x="233" y="718" type="curve" smooth="yes"/>
      <point x="119" y="718"/>
      <point x="37" y="634"/>
      <point x="37" y="516" type="curve" smooth="yes"/>
      <point x="37" y="478"/>
      <point x="43" y="453"/>
      <point x="71" y="381" type="curve"/>
      <point x="23" y="381" type="line"/>
      <point x="23" y="321" type="line"/>
      <point x="99" y="321" type="line"/>
      <point x="110" y="290"/>
      <point x="117" y="256"/>
      <point x="117" y="232" type="curve" smooth="yes"/>
      <point x="117" y="185"/>
      <point x="78" y="122"/>
      <point x="26" y="86" type="curve"/>
      <point x="71" y="-11" type="line"/>
      <point x="128" y="20"/>
      <point x="139" y="24"/>
      <point x="161" y="24" type="curve" smooth="yes"/>
      <point x="178" y="24"/>
      <point x="198" y="19"/>
      <point x="220" y="10" type="curve" smooth="yes"/>
      <point x="269" y="-10"/>
      <point x="293" y="-16"/>
      <point x="322" y="-16" type="curve" smooth="yes"/>
      <point x="362" y="-16"/>
      <point x="401" y="-2"/>
      <point x="444" y="29" type="curve"/>
      <point x="410" y="138" type="line"/>
      <point x="380" y="115"/>
      <point x="351" y="102"/>
      <point x="328" y="102" type="curve" smooth="yes"/>
      <point x="322" y="102"/>
      <point x="310" y="105"/>
      <point x="294" y="112" type="curve" smooth="yes"/>
      <point x="267" y="123"/>
      <point x="249" y="127"/>
      <point x="227" y="127" type="curve" smooth="yes"/>
      <point x="197" y="127"/>
      <point x="174" y="120"/>
      <point x="127" y="98" type="curve"/>
      <point x="151" y="122"/>
      <point x="165" y="138"/>
      <point x="175" y="151" type="curve" smooth="yes"/>
      <point x="201" y="185"/>
      <point x="215" y="225"/>
      <point x="215" y="267" type="curve" smooth="yes"/>
      <point x="215" y="281"/>
      <point x="214" y="298"/>
      <point x="211" y="321" type="curve"/>
      <point x="309" y="321" type="line"/>
    </contour>
  </outline>
</glyph>
<glyph name="currency" format="1">
  <advance width="456"/>
  <unicode hex="00A4"/>
  <outline>
    <contour>
      <point x="-2" y="142" type="line"/>
      <point x="52" y="76" type="line"/>
      <point x="132" y="174" type="line"/>
      <point x="165" y="151"/>
      <point x="194" y="141"/>
      <point x="228" y="141" type="curve" smooth="yes"/>
      <point x="263" y="141"/>
      <point x="293" y="151"/>
      <point x="324" y="174" type="curve"/>
      <point x="404" y="76" type="line"/>
      <point x="458" y="142" type="line"/>
      <point x="378" y="240" type="line"/>
      <point x="397" y="279"/>
      <point x="405" y="315"/>
      <point x="405" y="357" type="curve" smooth="yes"/>
      <point x="405" y="398"/>
      <point x="397" y="433"/>
      <point x="378" y="472" type="curve"/>
      <point x="458" y="570" type="line"/>
      <point x="404" y="636" type="line"/>
      <point x="324" y="538" type="line"/>
      <point x="293" y="561"/>
      <point x="263" y="571"/>
      <point x="228" y="571" type="curve" smooth="yes"/>
      <point x="195" y="571"/>
      <point x="165" y="561"/>
      <point x="132" y="538" type="curve"/>
      <point x="52" y="636" type="line"/>
      <point x="-2" y="570" type="line"/>
      <point x="78" y="472" type="line"/>
      <point x="61" y="434"/>
      <point x="53" y="398"/>
      <point x="53" y="356" type="curve" smooth="yes"/>
      <point x="53" y="313"/>
      <point x="60" y="279"/>
      <point x="78" y="240" type="curve"/>
    </contour>
    <contour>
      <point x="229" y="468" type="curve" smooth="yes"/>
      <point x="277" y="468"/>
      <point x="313" y="420"/>
      <point x="313" y="357" type="curve" smooth="yes"/>
      <point x="313" y="292"/>
      <point x="277" y="244"/>
      <point x="228" y="244" type="curve" smooth="yes"/>
      <point x="180" y="244"/>
      <point x="145" y="291"/>
      <point x="145" y="357" type="curve" smooth="yes"/>
      <point x="145" y="423"/>
      <point x="179" y="468"/>
    </contour>
  </outline>
</glyph>
<glyph name="yen" format="1">
  <advance width="456"/>
  <unicode hex="00A5"/>
  <outline>
    <contour>
      <point x="450" y="405" type="line"/>
      <point x="340" y="405" type="line"/>
      <point x="463" y="698" type="line"/>
      <point x="346" y="698" type="line"/>
      <point x="233" y="404" type="line"/>
      <point x="116" y="698" type="line"/>
      <point x="-7" y="698" type="line"/>
      <point x="120" y="405" type="line"/>
      <point x="13" y="405" type="line"/>
      <point x="13" y="345" type="line"/>
      <point x="146" y="345" type="line"/>
      <point x="179" y="271" type="line"/>
      <point x="13" y="271" type="line"/>
      <point x="13" y="211" type="line"/>
      <point x="179" y="211" type="line"/>
      <point x="179" y="0" type="line"/>
      <point x="282" y="0" type="line"/>
      <point x="282" y="211" type="line"/>
      <point x="450" y="211" type="line"/>
      <point x="450" y="271" type="line"/>
      <point x="283" y="271" type="line"/>
      <point x="314" y="345" type="line"/>
      <point x="450" y="345" type="line"/>
    </contour>
  </outline>
</glyph>
<glyph name="brokenbar" format="1">
  <advance width="230"/>
  <unicode hex="00A6"/>
  <outline>
    <contour>
      <point x="69" y="-19" type="line"/>
      <point x="161" y="-19" type="line"/>
      <point x="161" y="271" type="line"/>
      <point x="69" y="271" type="line"/>
    </contour>
    <contour>
      <point x="69" y="447" type="line"/>
      <point x="161" y="447" type="line"/>
      <point x="161" y="737" type="line"/>
      <point x="69" y="737" type="line"/>
    </contour>
  </outline>
</glyph>
<glyph name="section" format="1">
  <advance width="456"/>
  <unicode hex="00A7"/>
  <outline>
    <contour>
      <point x="393" y="544" type="line"/>
      <point x="389" y="595"/>
      <point x="384" y="619"/>
      <point x="369" y="648" type="curve" smooth="yes"/>
      <point x="342" y="699"/>
      <point x="292" y="727"/>
      <point x="229" y="727" type="curve" smooth="yes"/>
      <point x="132" y="727"/>
      <point x="62" y="652"/>
      <point x="62" y="549" type="curve" smooth="yes"/>
      <point x="62" y="503"/>
      <point x="75" y="468"/>
      <point x="104" y="432" type="curve"/>
      <point x="48" y="391"/>
      <point x="28" y="355"/>
      <point x="28" y="294" type="curve" smooth="yes"/>
      <point x="28" y="222"/>
      <point x="53" y="179"/>
      <point x="117" y="139" type="curve" smooth="yes"/>
      <point x="243" y="61" type="line" smooth="yes"/>
      <point x="279" y="39"/>
      <point x="291" y="22"/>
      <point x="291" y="-6" type="curve" smooth="yes"/>
      <point x="291" y="-49"/>
      <point x="267" y="-77"/>
      <point x="230" y="-77" type="curve" smooth="yes"/>
      <point x="188" y="-77"/>
      <point x="166" y="-52"/>
      <point x="160" y="3" type="curve"/>
      <point x="52" y="3" type="line"/>
      <point x="61" y="-117"/>
      <point x="122" y="-184"/>
      <point x="222" y="-184" type="curve" smooth="yes"/>
      <point x="327" y="-184"/>
      <point x="401" y="-107"/>
      <point x="401" y="3" type="curve" smooth="yes"/>
      <point x="401" y="56"/>
      <point x="386" y="95"/>
      <point x="350" y="134" type="curve"/>
      <point x="399" y="166"/>
      <point x="428" y="219"/>
      <point x="428" y="278" type="curve" smooth="yes"/>
      <point x="428" y="341"/>
      <point x="396" y="390"/>
      <point x="330" y="431" type="curve" smooth="yes"/>
      <point x="197" y="512" type="line" smooth="yes"/>
      <point x="176" y="525"/>
      <point x="166" y="541"/>
      <point x="166" y="563" type="curve" smooth="yes"/>
      <point x="166" y="596"/>
      <point x="191" y="620"/>
      <point x="226" y="620" type="curve" smooth="yes"/>
      <point x="264" y="620"/>
      <point x="284" y="596"/>
      <point x="289" y="544" type="curve"/>
    </contour>
    <contour>
      <point x="163" y="263" type="line" smooth="yes"/>
      <point x="137" y="280"/>
      <point x="125" y="298"/>
      <point x="125" y="322" type="curve" smooth="yes"/>
      <point x="125" y="348"/>
      <point x="139" y="372"/>
      <point x="160" y="383" type="curve"/>
      <point x="280" y="309" type="line" smooth="yes"/>
      <point x="312" y="289"/>
      <point x="326" y="269"/>
      <point x="326" y="243" type="curve" smooth="yes"/>
      <point x="326" y="216"/>
      <point x="316" y="197"/>
      <point x="291" y="179" type="curve"/>
    </contour>
  </outline>
</glyph>
<glyph name="dieresis" format="1">
  <advance width="273"/>
  <unicode hex="00A8"/>
  <outline>
    <contour>
      <point x="108" y="729" type="line"/>
      <point x="5" y="729" type="line"/>
      <point x="5" y="614" type="line"/>
      <point x="108" y="614" type="line"/>
    </contour>
    <contour>
      <point x="268" y="729" type="line"/>
      <point x="165" y="729" type="line"/>
      <point x="165" y="614" type="line"/>
      <point x="268" y="614" type="line"/>
    </contour>
  </outline>
</glyph>
<glyph name="copyright" format="1">
  <advance width="604"/>
  <unicode hex="00A9"/>
  <outline>
    <contour>
      <point x="388" y="303" type="line"/>
      <point x="383" y="257"/>
      <point x="358" y="233"/>
      <point x="317" y="233" type="curve" smooth="yes"/>
      <point x="265" y="233"/>
      <point x="229" y="288"/>
      <point x="229" y="367" type="curve" smooth="yes"/>
      <point x="229" y="443"/>
      <point x="262" y="492"/>
      <point x="314" y="492" type="curve" smooth="yes"/>
      <point x="354" y="492"/>
      <point x="379" y="469"/>
      <point x="388" y="426" type="curve"/>
      <point x="458" y="426" type="line"/>
      <point x="451" y="468"/>
      <point x="445" y="489"/>
      <point x="429" y="513" type="curve" smooth="yes"/>
      <point x="403" y="556"/>
      <point x="362" y="579"/>
      <point x="312" y="579" type="curve" smooth="yes"/>
      <point x="213" y="579"/>
      <point x="144" y="491"/>
      <point x="144" y="364" type="curve" smooth="yes"/>
      <point x="144" y="237"/>
      <point x="215" y="146"/>
      <point x="313" y="146" type="curve" smooth="yes"/>
      <point x="358" y="146"/>
      <point x="398" y="167"/>
      <point x="426" y="205" type="curve" smooth="yes"/>
      <point x="445" y="233"/>
      <point x="454" y="256"/>
      <point x="462" y="303" type="curve"/>
    </contour>
    <contour>
      <point x="306" y="737" type="curve" smooth="yes"/>
      <point x="121" y="737"/>
      <point x="-9" y="581"/>
      <point x="-9" y="359" type="curve" smooth="yes"/>
      <point x="-9" y="140"/>
      <point x="122" y="-19"/>
      <point x="302" y="-19" type="curve" smooth="yes"/>
      <point x="483" y="-19"/>
      <point x="614" y="141"/>
      <point x="614" y="360" type="curve" smooth="yes"/>
      <point x="614" y="435"/>
      <point x="599" y="505"/>
      <point x="570" y="563" type="curve" smooth="yes"/>
      <point x="517" y="670"/>
      <point x="415" y="737"/>
    </contour>
    <contour>
      <point x="305" y="650" type="curve" smooth="yes"/>
      <point x="429" y="650"/>
      <point x="524" y="524"/>
      <point x="524" y="360" type="curve" smooth="yes"/>
      <point x="524" y="194"/>
      <point x="430" y="69"/>
      <point x="304" y="69" type="curve" smooth="yes"/>
      <point x="174" y="69"/>
      <point x="81" y="190"/>
      <point x="81" y="359" type="curve" smooth="yes"/>
      <point x="81" y="529"/>
      <point x="174" y="650"/>
    </contour>
  </outline>
</glyph>
<glyph name="ordfeminine" format="1">
  <advance width="303"/>
  <unicode hex="00AA"/>
  <outline>
    <contour>
      <point x="100" y="625" type="line"/>
      <point x="105" y="655"/>
      <point x="118" y="665"/>
      <point x="150" y="665" type="curve" smooth="yes"/>
      <point x="181" y="665"/>
      <point x="196" y="654"/>
      <point x="196" y="632" type="curve" smooth="yes"/>
      <point x="196" y="618"/>
      <point x="189" y="612"/>
      <point x="170" y="609" type="curve" smooth="yes"/>
      <point x="102" y="598" type="line" smooth="yes"/>
      <point x="50" y="589"/>
      <point x="18" y="550"/>
      <point x="18" y="494" type="curve" smooth="yes"/>
      <point x="18" y="437"/>
      <point x="53" y="401"/>
      <point x="108" y="401" type="curve" smooth="yes"/>
      <point x="145" y="401"/>
      <point x="169" y="413"/>
      <point x="198" y="447" type="curve"/>
      <point x="200" y="431"/>
      <point x="201" y="422"/>
      <point x="205" y="409" type="curve"/>
      <point x="285" y="409" type="line"/>
      <point x="285" y="422" type="line"/>
      <point x="273" y="427"/>
      <point x="268" y="440"/>
      <point x="268" y="471" type="curve" smooth="yes"/>
      <point x="268" y="644" type="line" smooth="yes"/>
      <point x="268" y="703"/>
      <point x="226" y="737"/>
      <point x="152" y="737" type="curve" smooth="yes"/>
      <point x="73" y="737"/>
      <point x="38" y="705"/>
      <point x="28" y="625" type="curve"/>
    </contour>
    <contour>
      <point x="196" y="525" type="line" smooth="yes"/>
      <point x="196" y="491"/>
      <point x="167" y="463"/>
      <point x="130" y="463" type="curve" smooth="yes"/>
      <point x="108" y="463"/>
      <point x="95" y="477"/>
      <point x="95" y="500" type="curve" smooth="yes"/>
      <point x="95" y="528"/>
      <point x="110" y="542"/>
      <point x="145" y="548" type="curve" smooth="yes"/>
      <point x="173" y="553"/>
      <point x="185" y="557"/>
      <point x="196" y="565" type="curve"/>
    </contour>
    <contour>
      <point x="26" y="356" type="line"/>
      <point x="26" y="276" type="line"/>
      <point x="274" y="276" type="line"/>
      <point x="274" y="356" type="line"/>
    </contour>
  </outline>
</glyph>
<glyph name="guillemotleft" format="1">
  <advance width="456"/>
  <unicode hex="00AB"/>
  <outline>
    <contour>
      <point x="209" y="368" type="line"/>
      <point x="209" y="484" type="line"/>
      <point x="72" y="340" type="line"/>
      <point x="72" y="220" type="line"/>
      <point x="209" y="76" type="line"/>
      <point x="209" y="192" type="line"/>
      <point x="127" y="280" type="line"/>
    </contour>
    <contour>
      <point x="384" y="368" type="line"/>
      <point x="384" y="484" type="line"/>
      <point x="247" y="340" type="line"/>
      <point x="247" y="220" type="line"/>
      <point x="384" y="76" type="line"/>
      <point x="384" y="192" type="line"/>
      <point x="302" y="280" type="line"/>
    </contour>
  </outline>
</glyph>
<glyph name="logicalnot" format="1">
  <advance width="479"/>
  <unicode hex="00AC"/>
  <outline>
    <contour>
      <point x="354" y="108" type="line"/>
      <point x="446" y="108" type="line"/>
      <point x="446" y="419" type="line"/>
      <point x="33" y="419" type="line"/>
      <point x="33" y="307" type="line"/>
      <point x="354" y="307" type="line"/>
    </contour>
  </outline>
</glyph>
<glyph name="registered" format="1">
  <advance width="604"/>
  <unicode hex="00AE"/>
  <outline>
    <contour>
      <point x="251" y="328" type="line"/>
      <point x="285" y="328" type="line"/>
      <point x="362" y="157" type="line"/>
      <point x="446" y="157" type="line"/>
      <point x="361" y="335" type="line"/>
      <point x="417" y="343"/>
      <point x="441" y="374"/>
      <point x="441" y="440" type="curve" smooth="yes"/>
      <point x="441" y="525"/>
      <point x="399" y="563"/>
      <point x="304" y="563" type="curve" smooth="yes"/>
      <point x="179" y="563" type="line"/>
      <point x="179" y="157" type="line"/>
      <point x="251" y="157" type="line"/>
    </contour>
    <contour>
      <point x="251" y="396" type="line"/>
      <point x="251" y="495" type="line"/>
      <point x="301" y="495" type="line" smooth="yes"/>
      <point x="346" y="495"/>
      <point x="364" y="481"/>
      <point x="364" y="447" type="curve" smooth="yes"/>
      <point x="364" y="410"/>
      <point x="350" y="396"/>
      <point x="314" y="396" type="curve" smooth="yes"/>
    </contour>
    <contour>
      <point x="306" y="737" type="curve" smooth="yes"/>
      <point x="121" y="737"/>
      <point x="-9" y="581"/>
      <point x="-9" y="358" type="curve" smooth="yes"/>
      <point x="-9" y="139"/>
      <point x="122" y="-19"/>
      <point x="302" y="-19" type="curve" smooth="yes"/>
      <point x="483" y="-19"/>
      <point x="613" y="139"/>
      <point x="613" y="359" type="curve" smooth="yes"/>
      <point x="613" y="577"/>
      <point x="483" y="737"/>
    </contour>
    <contour>
      <point x="304" y="649" type="curve" smooth="yes"/>
      <point x="428" y="649"/>
      <point x="523" y="523"/>
      <point x="523" y="359" type="curve" smooth="yes"/>
      <point x="523" y="194"/>
      <point x="429" y="69"/>
      <point x="304" y="69" type="curve" smooth="yes"/>
      <point x="174" y="69"/>
      <point x="81" y="190"/>
      <point x="81" y="358" type="curve" smooth="yes"/>
      <point x="81" y="528"/>
      <point x="174" y="649"/>
    </contour>
  </outline>
</glyph>
<glyph name="macron" format="1">
  <advance width="273"/>
  <unicode hex="00AF"/>
  <outline>
    <contour>
      <point x="278" y="678" type="line"/>
      <point x="-5" y="678" type="line"/>
      <point x="-5" y="605" type="line"/>
      <point x="278" y="605" type="line"/>
    </contour>
  </outline>
</glyph>
<glyph name="degree" format="1">
  <advance width="328"/>
  <unicode hex="00B0"/>
  <outline>
    <contour>
      <point x="165" y="712" type="curve" smooth="yes"/>
      <point x="100" y="712"/>
      <point x="47" y="648"/>
      <point x="47" y="569" type="curve" smooth="yes"/>
      <point x="47" y="490"/>
      <point x="100" y="426"/>
      <point x="164" y="426" type="curve" smooth="yes"/>
      <point x="228" y="426"/>
      <point x="281" y="490"/>
      <point x="281" y="569" type="curve" smooth="yes"/>
      <point x="281" y="647"/>
      <point x="228" y="712"/>
    </contour>
    <contour>
      <point x="165" y="655" type="curve" smooth="yes"/>
      <point x="203" y="655"/>
      <point x="235" y="615"/>
      <point x="235" y="569" type="curve" smooth="yes"/>
      <point x="235" y="522"/>
      <point x="203" y="483"/>
      <point x="164" y="483" type="curve" smooth="yes"/>
      <point x="125" y="483"/>
      <point x="93" y="522"/>
      <point x="93" y="569" type="curve" smooth="yes"/>
      <point x="93" y="617"/>
      <point x="125" y="655"/>
    </contour>
  </outline>
</glyph>
<glyph name="plusminus" format="1">
  <advance width="479"/>
  <unicode hex="00B1"/>
  <outline>
    <contour>
      <point x="194" y="381" type="line"/>
      <point x="33" y="381" type="line"/>
      <point x="33" y="269" type="line"/>
      <point x="194" y="269" type="line"/>
      <point x="194" y="143" type="line"/>
      <point x="286" y="143" type="line"/>
      <point x="286" y="269" type="line"/>
      <point x="446" y="269" type="line"/>
      <point x="446" y="381" type="line"/>
      <point x="286" y="381" type="line"/>
      <point x="286" y="578" type="line"/>
      <point x="194" y="578" type="line"/>
    </contour>
    <contour>
      <point x="33" y="0" type="line"/>
      <point x="446" y="0" type="line"/>
      <point x="446" y="112" type="line"/>
      <point x="33" y="112" type="line"/>
    </contour>
  </outline>
</glyph>
<glyph name="acute" format="1">
  <advance width="273"/>
  <unicode hex="00B4"/>
  <outline>
    <contour>
      <point x="292" y="750" type="line"/>
      <point x="166" y="750" type="line"/>
      <point x="89" y="604" type="line"/>
      <point x="172" y="604" type="line"/>
    </contour>
  </outline>
</glyph>
<glyph name="paragraph" format="1">
  <advance width="456"/>
  <unicode hex="00B6"/>
  <outline>
    <contour>
      <point x="175" y="-191" type="line"/>
      <point x="267" y="-191" type="line"/>
      <point x="267" y="615" type="line"/>
      <point x="350" y="615" type="line"/>
      <point x="350" y="-191" type="line"/>
      <point x="442" y="-191" type="line"/>
      <point x="442" y="700" type="line"/>
      <point x="193" y="700" type="line" smooth="yes"/>
      <point x="58" y="700"/>
      <point x="-7" y="643"/>
      <point x="-7" y="523" type="curve" smooth="yes"/>
      <point x="-7" y="463"/>
      <point x="11" y="418"/>
      <point x="47" y="388" type="curve" smooth="yes"/>
      <point x="79" y="360"/>
      <point x="111" y="350"/>
      <point x="175" y="347" type="curve"/>
    </contour>
  </outline>
</glyph>
<glyph name="periodcentered" format="1">
  <advance width="228"/>
  <unicode hex="00B7"/>
  <outline>
    <contour>
      <point x="115" y="334" type="curve" smooth="yes"/>
      <point x="78" y="334"/>
      <point x="48" y="298"/>
      <point x="48" y="253" type="curve" smooth="yes"/>
      <point x="48" y="208"/>
      <point x="77" y="172"/>
      <point x="114" y="172" type="curve" smooth="yes"/>
      <point x="151" y="172"/>
      <point x="180" y="208"/>
      <point x="180" y="253" type="curve" smooth="yes"/>
      <point x="180" y="297"/>
      <point x="150" y="334"/>
    </contour>
  </outline>
</glyph>
<glyph name="cedilla" format="1">
  <advance width="273"/>
  <unicode hex="00B8"/>
  <outline>
    <contour>
      <point x="43" y="-84" type="line"/>
      <point x="60" y="-104" type="line"/>
      <point x="74" y="-99"/>
      <point x="85" y="-96"/>
      <point x="92" y="-96" type="curve" smooth="yes"/>
      <point x="110" y="-96"/>
      <point x="124" y="-112"/>
      <point x="124" y="-132" type="curve" smooth="yes"/>
      <point x="124" y="-153"/>
      <point x="106" y="-171"/>
      <point x="85" y="-171" type="curve" smooth="yes"/>
      <point x="72" y="-171"/>
      <point x="54" y="-166"/>
      <point x="23" y="-155" type="curve"/>
      <point x="5" y="-203" type="line"/>
      <point x="50" y="-223"/>
      <point x="69" y="-228"/>
      <point x="97" y="-228" type="curve" smooth="yes"/>
      <point x="159" y="-228"/>
      <point x="201" y="-188"/>
      <point x="201" y="-129" type="curve" smooth="yes"/>
      <point x="201" y="-83"/>
      <point x="171" y="-51"/>
      <point x="129" y="-51" type="curve" smooth="yes"/>
      <point x="121" y="-51"/>
      <point x="114" y="-52"/>
      <point x="105" y="-55" type="curve"/>
      <point x="136" y="0" type="line"/>
      <point x="88" y="0" type="line"/>
    </contour>
  </outline>
</glyph>
<glyph name="ordmasculine" format="1">
  <advance width="299"/>
  <unicode hex="00BA"/>
  <outline>
    <contour>
      <point x="152" y="737" type="curve" smooth="yes"/>
      <point x="64" y="737"/>
      <point x="5" y="670"/>
      <point x="5" y="569" type="curve" smooth="yes"/>
      <point x="5" y="469"/>
      <point x="64" y="401"/>
      <point x="150" y="401" type="curve" smooth="yes"/>
      <point x="236" y="401"/>
      <point x="295" y="470"/>
      <point x="295" y="569" type="curve" smooth="yes"/>
      <point x="295" y="667"/>
      <point x="236" y="737"/>
    </contour>
    <contour>
      <point x="151" y="665" type="curve" smooth="yes"/>
      <point x="188" y="665"/>
      <point x="215" y="625"/>
      <point x="215" y="569" type="curve" smooth="yes"/>
      <point x="215" y="512"/>
      <point x="188" y="473"/>
      <point x="150" y="473" type="curve" smooth="yes"/>
      <point x="112" y="473"/>
      <point x="85" y="512"/>
      <point x="85" y="569" type="curve" smooth="yes"/>
      <point x="85" y="626"/>
      <point x="111" y="665"/>
    </contour>
    <contour>
      <point x="27" y="356" type="line"/>
      <point x="27" y="276" type="line"/>
      <point x="272" y="276" type="line"/>
      <point x="272" y="356" type="line"/>
    </contour>
  </outline>
</glyph>
<glyph name="guillemotright" format="1">
  <advance width="456"/>
  <unicode hex="00BB"/>
  <outline>
    <contour>
      <point x="329" y="280" type="line"/>
      <point x="247" y="192" type="line"/>
      <point x="247" y="76" type="line"/>
      <point x="384" y="220" type="line"/>
      <point x="384" y="340" type="line"/>
      <point x="247" y="484" type="line"/>
      <point x="247" y="368" type="line"/>
    </contour>
    <contour>
      <point x="154" y="280" type="line"/>
      <point x="72" y="192" type="line"/>
      <point x="72" y="76" type="line"/>
      <point x="209" y="220" type="line"/>
      <point x="209" y="340" type="line"/>
      <point x="72" y="484" type="line"/>
      <point x="72" y="368" type="line"/>
    </contour>
  </outline>
</glyph>
<glyph name="onequarter" format="1">
  <advance width="684"/>
  <unicode hex="00BC"/>
  <outline>
    <contour>
      <point x="587" y="424" type="line"/>
      <point x="498" y="424" type="line"/>
      <point x="359" y="163" type="line"/>
      <point x="359" y="90" type="line"/>
      <point x="509" y="90" type="line"/>
      <point x="509" y="0" type="line"/>
      <point x="587" y="0" type="line"/>
      <point x="587" y="90" type="line"/>
      <point x="628" y="90" type="line"/>
      <point x="628" y="158" type="line"/>
      <point x="587" y="158" type="line"/>
    </contour>
    <contour>
      <point x="418" y="157" type="line"/>
      <point x="514" y="343" type="line"/>
      <point x="513" y="288"/>
      <point x="513" y="264"/>
      <point x="512" y="157" type="curve"/>
    </contour>
    <contour>
      <point x="111" y="-19" type="line"/>
      <point x="176" y="-19" type="line"/>
      <point x="526" y="710" type="line"/>
      <point x="462" y="710" type="line"/>
    </contour>
    <contour>
      <point x="21" y="574" type="line"/>
      <point x="111" y="574" type="line"/>
      <point x="111" y="283" type="line"/>
      <point x="194" y="283" type="line"/>
      <point x="194" y="710" type="line"/>
      <point x="124" y="710" type="line"/>
      <point x="120" y="661"/>
      <point x="89" y="636"/>
      <point x="32" y="636" type="curve" smooth="yes"/>
      <point x="21" y="636" type="line"/>
    </contour>
  </outline>
</glyph>
<glyph name="onehalf" format="1">
  <advance width="684"/>
  <unicode hex="00BD"/>
  <outline>
    <contour>
      <point x="111" y="-19" type="line"/>
      <point x="176" y="-19" type="line"/>
      <point x="526" y="710" type="line"/>
      <point x="462" y="710" type="line"/>
    </contour>
    <contour>
      <point x="21" y="574" type="line"/>
      <point x="111" y="574" type="line"/>
      <point x="111" y="283" type="line"/>
      <point x="194" y="283" type="line"/>
      <point x="194" y="710" type="line"/>
      <point x="124" y="710" type="line"/>
      <point x="120" y="661"/>
      <point x="89" y="636"/>
      <point x="32" y="636" type="curve" smooth="yes"/>
      <point x="21" y="636" type="line"/>
    </contour>
    <contour>
      <point x="469" y="275" type="line"/>
      <point x="471" y="335"/>
      <point x="487" y="361"/>
      <point x="522" y="361" type="curve" smooth="yes"/>
      <point x="550" y="361"/>
      <point x="572" y="335"/>
      <point x="572" y="303" type="curve" smooth="yes"/>
      <point x="572" y="262"/>
      <point x="558" y="237"/>
      <point x="513" y="199" type="curve" smooth="yes"/>
      <point x="420" y="126"/>
      <point x="397" y="88"/>
      <point x="393" y="0" type="curve"/>
      <point x="651" y="0" type="line"/>
      <point x="651" y="82" type="line"/>
      <point x="498" y="82" type="line"/>
      <point x="506" y="93"/>
      <point x="528" y="114"/>
      <point x="552" y="133" type="curve" smooth="yes"/>
      <point x="598" y="168"/>
      <point x="598" y="168"/>
      <point x="609" y="180" type="curve" smooth="yes"/>
      <point x="636" y="211"/>
      <point x="650" y="249"/>
      <point x="650" y="293" type="curve" smooth="yes"/>
      <point x="650" y="379"/>
      <point x="597" y="439"/>
      <point x="521" y="439" type="curve" smooth="yes"/>
      <point x="476" y="439"/>
      <point x="439" y="417"/>
      <point x="418" y="378" type="curve" smooth="yes"/>
      <point x="404" y="351"/>
      <point x="398" y="326"/>
      <point x="397" y="275" type="curve"/>
    </contour>
  </outline>
</glyph>
<glyph name="threequarters" format="1">
  <advance width="684"/>
  <unicode hex="00BE"/>
  <outline>
    <contour>
      <point x="614" y="424" type="line"/>
      <point x="525" y="424" type="line"/>
      <point x="386" y="163" type="line"/>
      <point x="386" y="90" type="line"/>
      <point x="536" y="90" type="line"/>
      <point x="536" y="0" type="line"/>
      <point x="614" y="0" type="line"/>
      <point x="614" y="90" type="line"/>
      <point x="655" y="90" type="line"/>
      <point x="655" y="158" type="line"/>
      <point x="614" y="158" type="line"/>
    </contour>
    <contour>
      <point x="444" y="158" type="line"/>
      <point x="538" y="339" type="line"/>
      <point x="537" y="289"/>
      <point x="536" y="259"/>
      <point x="536" y="158" type="curve"/>
    </contour>
    <contour>
      <point x="147" y="-19" type="line"/>
      <point x="212" y="-19" type="line"/>
      <point x="562" y="710" type="line"/>
      <point x="498" y="710" type="line"/>
    </contour>
    <contour>
      <point x="13" y="425" type="line"/>
      <point x="16" y="360"/>
      <point x="27" y="329"/>
      <point x="54" y="303" type="curve" smooth="yes"/>
      <point x="76" y="282"/>
      <point x="108" y="271"/>
      <point x="142" y="271" type="curve" smooth="yes"/>
      <point x="220" y="271"/>
      <point x="274" y="331"/>
      <point x="274" y="418" type="curve" smooth="yes"/>
      <point x="274" y="471"/>
      <point x="255" y="504"/>
      <point x="215" y="520" type="curve"/>
      <point x="247" y="538"/>
      <point x="262" y="564"/>
      <point x="262" y="605" type="curve" smooth="yes"/>
      <point x="262" y="675"/>
      <point x="214" y="722"/>
      <point x="142" y="722" type="curve" smooth="yes"/>
      <point x="96" y="722"/>
      <point x="60" y="703"/>
      <point x="39" y="668" type="curve" smooth="yes"/>
      <point x="26" y="645"/>
      <point x="21" y="625"/>
      <point x="19" y="585" type="curve"/>
      <point x="89" y="585" type="line"/>
      <point x="90" y="626"/>
      <point x="107" y="647"/>
      <point x="139" y="647" type="curve" smooth="yes"/>
      <point x="168" y="647"/>
      <point x="184" y="629"/>
      <point x="184" y="595" type="curve" smooth="yes"/>
      <point x="184" y="558"/>
      <point x="167" y="543"/>
      <point x="124" y="543" type="curve" smooth="yes"/>
      <point x="112" y="543" type="line"/>
      <point x="112" y="479" type="line"/>
      <point x="174" y="479"/>
      <point x="194" y="463"/>
      <point x="194" y="417" type="curve" smooth="yes"/>
      <point x="194" y="371"/>
      <point x="175" y="346"/>
      <point x="141" y="346" type="curve" smooth="yes"/>
      <point x="108" y="346"/>
      <point x="86" y="373"/>
      <point x="86" y="414" type="curve" smooth="yes"/>
      <point x="86" y="416"/>
      <point x="86" y="420"/>
      <point x="87" y="425" type="curve"/>
    </contour>
  </outline>
</glyph>
<glyph name="questiondown" format="1">
  <advance width="501"/>
  <unicode hex="00BF"/>
  <outline>
    <contour>
      <point x="195" y="324" type="line"/>
      <point x="194" y="258"/>
      <point x="185" y="238"/>
      <point x="144" y="202" type="curve" smooth="yes"/>
      <point x="68" y="134"/>
      <point x="45" y="90"/>
      <point x="45" y="13" type="curve" smooth="yes"/>
      <point x="45" y="-112"/>
      <point x="128" y="-195"/>
      <point x="253" y="-195" type="curve" smooth="yes"/>
      <point x="324" y="-195"/>
      <point x="384" y="-162"/>
      <point x="418" y="-104" type="curve" smooth="yes"/>
      <point x="441" y="-64"/>
      <point x="449" y="-30"/>
      <point x="452" y="39" type="curve"/>
      <point x="336" y="39" type="line"/>
      <point x="336" y="23" type="line" smooth="yes"/>
      <point x="336" y="12"/>
      <point x="325" y="-26"/>
      <point x="318" y="-38" type="curve" smooth="yes"/>
      <point x="303" y="-63"/>
      <point x="279" y="-77"/>
      <point x="249" y="-77" type="curve" smooth="yes"/>
      <point x="199" y="-77"/>
      <point x="168" y="-40"/>
      <point x="168" y="20" type="curve" smooth="yes"/>
      <point x="168" y="61"/>
      <point x="181" y="87"/>
      <point x="219" y="121" type="curve" smooth="yes"/>
      <point x="289" y="183"/>
      <point x="303" y="216"/>
      <point x="303" y="324" type="curve"/>
    </contour>
    <contour>
      <point x="186" y="390" type="line"/>
      <point x="306" y="390" type="line"/>
      <point x="306" y="532" type="line"/>
      <point x="186" y="532" type="line"/>
    </contour>
  </outline>
</glyph>
<glyph name="Atilde" format="1">
  <advance width="592"/>
  <unicode hex="00C3"/>
  <outline>
    <contour>
      <point x="187" y="148" type="line"/>
      <point x="404" y="148" type="line"/>
      <point x="442" y="0" type="line"/>
      <point x="576" y="0" type="line"/>
      <point x="368" y="718" type="line"/>
      <point x="226" y="718" type="line"/>
      <point x="16" y="0" type="line"/>
      <point x="146" y="0" type="line"/>
    </contour>
    <contour>
      <point x="296" y="559" type="line"/>
      <point x="370" y="271" type="line"/>
      <point x="220" y="271" type="line"/>
    </contour>
    <contour>
      <point x="394" y="923" type="line"/>
      <point x="387" y="895"/>
      <point x="376" y="883"/>
      <point x="355" y="883" type="curve" smooth="yes"/>
      <point x="344" y="883"/>
      <point x="333" y="887"/>
      <point x="304" y="900" type="curve" smooth="yes"/>
      <point x="270" y="916"/>
      <point x="261" y="919"/>
      <point x="245" y="919" type="curve" smooth="yes"/>
      <point x="192" y="919"/>
      <point x="160" y="880"/>
      <point x="146" y="796" type="curve"/>
      <point x="198" y="796" type="line"/>
      <point x="204" y="824"/>
      <point x="217" y="839"/>
      <point x="236" y="839" type="curve" smooth="yes"/>
      <point x="244" y="839"/>
      <point x="256" y="836"/>
      <point x="274" y="827" type="curve"/>
      <point x="310" y="812"/>
      <point x="341" y="803"/>
      <point x="359" y="803" type="curve" smooth="yes"/>
      <point x="404" y="803"/>
      <point x="434" y="843"/>
      <point x="447" y="923" type="curve"/>
    </contour>
  </outline>
</glyph>
<glyph name="Adieresis" format="1">
  <advance width="592"/>
  <unicode hex="00C4"/>
  <outline>
    <contour>
      <point x="187" y="148" type="line"/>
      <point x="404" y="148" type="line"/>
      <point x="442" y="0" type="line"/>
      <point x="576" y="0" type="line"/>
      <point x="368" y="718" type="line"/>
      <point x="226" y="718" type="line"/>
      <point x="16" y="0" type="line"/>
      <point x="146" y="0" type="line"/>
    </contour>
    <contour>
      <point x="296" y="559" type="line"/>
      <point x="370" y="271" type="line"/>
      <point x="220" y="271" type="line"/>
    </contour>
    <contour>
      <point x="268" y="915" type="line"/>
      <point x="165" y="915" type="line"/>
      <point x="165" y="800" type="line"/>
      <point x="268" y="800" type="line"/>
    </contour>
    <contour>
      <point x="428" y="915" type="line"/>
      <point x="325" y="915" type="line"/>
      <point x="325" y="800" type="line"/>
      <point x="428" y="800" type="line"/>
    </contour>
  </outline>
</glyph>
<glyph name="Aring" format="1">
  <advance width="592"/>
  <unicode hex="00C5"/>
  <outline>
    <contour>
      <point x="187" y="148" type="line"/>
      <point x="404" y="148" type="line"/>
      <point x="442" y="0" type="line"/>
      <point x="576" y="0" type="line"/>
      <point x="368" y="718" type="line"/>
      <point x="226" y="718" type="line"/>
      <point x="16" y="0" type="line"/>
      <point x="146" y="0" type="line"/>
    </contour>
    <contour>
      <point x="296" y="559" type="line"/>
      <point x="370" y="271" type="line"/>
      <point x="220" y="271" type="line"/>
    </contour>
    <contour>
      <point x="298" y="975" type="curve" smooth="yes"/>
      <point x="249" y="975"/>
      <point x="208" y="927"/>
      <point x="208" y="871" type="curve" smooth="yes"/>
      <point x="208" y="815"/>
      <point x="249" y="767"/>
      <point x="296" y="767" type="curve" smooth="yes"/>
      <point x="344" y="767"/>
      <point x="385" y="816"/>
      <point x="385" y="871" type="curve" smooth="yes"/>
      <point x="385" y="926"/>
      <point x="344" y="975"/>
    </contour>
    <contour>
      <point x="297" y="923" type="curve" smooth="yes"/>
      <point x="320" y="923"/>
      <point x="339" y="899"/>
      <point x="339" y="871" type="curve" smooth="yes"/>
      <point x="339" y="842"/>
      <point x="320" y="819"/>
      <point x="296" y="819" type="curve" smooth="yes"/>
      <point x="273" y="819"/>
      <point x="254" y="842"/>
      <point x="254" y="871" type="curve" smooth="yes"/>
      <point x="254" y="900"/>
      <point x="273" y="923"/>
    </contour>
  </outline>
</glyph>
<glyph name="AE" format="1">
  <advance width="820"/>
  <unicode hex="00C6"/>
  <outline>
    <contour>
      <point x="472" y="313" type="line"/>
      <point x="746" y="313" type="line"/>
      <point x="746" y="440" type="line"/>
      <point x="472" y="440" type="line"/>
      <point x="472" y="591" type="line"/>
      <point x="776" y="591" type="line"/>
      <point x="776" y="718" type="line"/>
      <point x="219" y="718" type="line"/>
      <point x="4" y="0" type="line"/>
      <point x="133" y="0" type="line"/>
      <point x="176" y="153" type="line"/>
      <point x="352" y="153" type="line"/>
      <point x="352" y="0" type="line"/>
      <point x="782" y="0" type="line"/>
      <point x="782" y="127" type="line"/>
      <point x="472" y="127" type="line"/>
    </contour>
    <contour>
      <point x="208" y="271" type="line"/>
      <point x="299" y="591" type="line"/>
      <point x="352" y="591" type="line"/>
      <point x="352" y="271" type="line"/>
    </contour>
  </outline>
</glyph>
<glyph name="Ccedilla" format="1">
  <advance width="592"/>
  <unicode hex="00C7"/>
  <outline>
    <contour>
      <point x="302" y="-19" type="line"/>
      <point x="442" y="-20"/>
      <point x="533" y="73"/>
      <point x="561" y="246" type="curve"/>
      <point x="438" y="246" type="line"/>
      <point x="429" y="206"/>
      <point x="423" y="188"/>
      <point x="410" y="167" type="curve" smooth="yes"/>
      <point x="386" y="130"/>
      <point x="351" y="111"/>
      <point x="308" y="111" type="curve" smooth="yes"/>
      <point x="216" y="111"/>
      <point x="161" y="203"/>
      <point x="161" y="356" type="curve" smooth="yes"/>
      <point x="161" y="514"/>
      <point x="217" y="607"/>
      <point x="312" y="607" type="curve" smooth="yes"/>
      <point x="353" y="607"/>
      <point x="388" y="589"/>
      <point x="409" y="559" type="curve"/>
      <point x="422" y="538"/>
      <point x="429" y="522"/>
      <point x="438" y="483" type="curve"/>
      <point x="561" y="483" type="line"/>
      <point x="555" y="540"/>
      <point x="546" y="570"/>
      <point x="524" y="610" type="curve" smooth="yes"/>
      <point x="479" y="691"/>
      <point x="402" y="737"/>
      <point x="309" y="737" type="curve" smooth="yes"/>
      <point x="141" y="737"/>
      <point x="36" y="591"/>
      <point x="36" y="357" type="curve" smooth="yes"/>
      <point x="36" y="148"/>
      <point x="116" y="13"/>
      <point x="256" y="-14" type="curve"/>
      <point x="219" y="-84" type="line"/>
      <point x="236" y="-104" type="line"/>
      <point x="250" y="-99"/>
      <point x="261" y="-96"/>
      <point x="268" y="-96" type="curve" smooth="yes"/>
      <point x="286" y="-96"/>
      <point x="300" y="-111"/>
      <point x="300" y="-131" type="curve" smooth="yes"/>
      <point x="300" y="-153"/>
      <point x="283" y="-171"/>
      <point x="261" y="-171" type="curve" smooth="yes"/>
      <point x="248" y="-171"/>
      <point x="229" y="-166"/>
      <point x="199" y="-155" type="curve"/>
      <point x="181" y="-203" type="line"/>
      <point x="227" y="-223"/>
      <point x="245" y="-228"/>
      <point x="273" y="-228" type="curve" smooth="yes"/>
      <point x="335" y="-228"/>
      <point x="377" y="-188"/>
      <point x="377" y="-129" type="curve" smooth="yes"/>
      <point x="377" y="-83"/>
      <point x="347" y="-51"/>
      <point x="305" y="-51" type="curve" smooth="yes"/>
      <point x="297" y="-51"/>
      <point x="291" y="-52"/>
      <point x="281" y="-55" type="curve"/>
    </contour>
  </outline>
</glyph>
<glyph name="Eacute" format="1">
  <advance width="547"/>
  <unicode hex="00C9"/>
  <outline>
    <contour>
      <point x="495" y="718" type="line"/>
      <point x="62" y="718" type="line"/>
      <point x="62" y="0" type="line"/>
      <point x="509" y="0" type="line"/>
      <point x="509" y="127" type="line"/>
      <point x="182" y="127" type="line"/>
      <point x="182" y="313" type="line"/>
      <point x="470" y="313" type="line"/>
      <point x="470" y="440" type="line"/>
      <point x="182" y="440" type="line"/>
      <point x="182" y="591" type="line"/>
      <point x="495" y="591" type="line"/>
    </contour>
    <contour>
      <point x="428" y="936" type="line"/>
      <point x="302" y="936" type="line"/>
      <point x="225" y="790" type="line"/>
      <point x="308" y="790" type="line"/>
    </contour>
  </outline>
</glyph>
<glyph name="Ecircumflex" format="1">
  <advance width="547"/>
  <unicode hex="00CA"/>
  <outline>
    <contour>
      <point x="495" y="718" type="line"/>
      <point x="62" y="718" type="line"/>
      <point x="62" y="0" type="line"/>
      <point x="509" y="0" type="line"/>
      <point x="509" y="127" type="line"/>
      <point x="182" y="127" type="line"/>
      <point x="182" y="313" type="line"/>
      <point x="470" y="313" type="line"/>
      <point x="470" y="440" type="line"/>
      <point x="182" y="440" type="line"/>
      <point x="182" y="591" type="line"/>
      <point x="495" y="591" type="line"/>
    </contour>
    <contour>
      <point x="324" y="936" type="line"/>
      <point x="221" y="936" type="line"/>
      <point x="128" y="790" type="line"/>
      <point x="221" y="790" type="line"/>
      <point x="272" y="872" type="line"/>
      <point x="324" y="790" type="line"/>
      <point x="417" y="790" type="line"/>
    </contour>
  </outline>
</glyph>
<glyph name="Igrave" format="1">
  <advance width="228"/>
  <unicode hex="00CC"/>
  <outline>
    <contour>
      <point x="175" y="718" type="line"/>
      <point x="52" y="718" type="line"/>
      <point x="52" y="0" type="line"/>
      <point x="175" y="0" type="line"/>
    </contour>
    <contour>
      <point x="79" y="790" type="line"/>
      <point x="162" y="790" type="line"/>
      <point x="85" y="936" type="line"/>
      <point x="-41" y="936" type="line"/>
    </contour>
  </outline>
</glyph>
<glyph name="Iacute" format="1">
  <advance width="228"/>
  <unicode hex="00CD"/>
  <outline>
    <contour>
      <point x="175" y="718" type="line"/>
      <point x="52" y="718" type="line"/>
      <point x="52" y="0" type="line"/>
      <point x="175" y="0" type="line"/>
    </contour>
    <contour>
      <point x="270" y="936" type="line"/>
      <point x="144" y="936" type="line"/>
      <point x="67" y="790" type="line"/>
      <point x="150" y="790" type="line"/>
    </contour>
  </outline>
</glyph>
<glyph name="Icircumflex" format="1">
  <advance width="228"/>
  <unicode hex="00CE"/>
  <outline>
    <contour>
      <point x="176" y="718" type="line"/>
      <point x="53" y="718" type="line"/>
      <point x="53" y="0" type="line"/>
      <point x="176" y="0" type="line"/>
    </contour>
    <contour>
      <point x="166" y="936" type="line"/>
      <point x="63" y="936" type="line"/>
      <point x="-30" y="790" type="line"/>
      <point x="63" y="790" type="line"/>
      <point x="114" y="872" type="line"/>
      <point x="166" y="790" type="line"/>
      <point x="259" y="790" type="line"/>
    </contour>
  </outline>
</glyph>
<glyph name="Ntilde" format="1">
  <advance width="592"/>
  <unicode hex="00D1"/>
  <outline>
    <contour>
      <point x="422" y="214" type="line"/>
      <point x="186" y="718" type="line"/>
      <point x="57" y="718" type="line"/>
      <point x="57" y="0" type="line"/>
      <point x="171" y="0" type="line"/>
      <point x="171" y="515" type="line"/>
      <point x="414" y="0" type="line"/>
      <point x="536" y="0" type="line"/>
      <point x="536" y="718" type="line"/>
      <point x="422" y="718" type="line"/>
    </contour>
    <contour>
      <point x="394" y="923" type="line"/>
      <point x="387" y="895"/>
      <point x="376" y="883"/>
      <point x="355" y="883" type="curve" smooth="yes"/>
      <point x="344" y="883"/>
      <point x="333" y="887"/>
      <point x="304" y="900" type="curve" smooth="yes"/>
      <point x="270" y="916"/>
      <point x="261" y="919"/>
      <point x="245" y="919" type="curve" smooth="yes"/>
      <point x="192" y="919"/>
      <point x="160" y="880"/>
      <point x="146" y="796" type="curve"/>
      <point x="198" y="796" type="line"/>
      <point x="204" y="824"/>
      <point x="217" y="839"/>
      <point x="236" y="839" type="curve" smooth="yes"/>
      <point x="244" y="839"/>
      <point x="256" y="836"/>
      <point x="274" y="827" type="curve"/>
      <point x="310" y="812"/>
      <point x="341" y="803"/>
      <point x="359" y="803" type="curve" smooth="yes"/>
      <point x="404" y="803"/>
      <point x="434" y="843"/>
      <point x="447" y="923" type="curve"/>
    </contour>
  </outline>
</glyph>
<glyph name="Otilde" format="1">
  <advance width="638"/>
  <unicode hex="00D5"/>
  <outline>
    <contour>
      <point x="323" y="737" type="curve" smooth="yes"/>
      <point x="241" y="737"/>
      <point x="167" y="703"/>
      <point x="117" y="642" type="curve" smooth="yes"/>
      <point x="64" y="578"/>
      <point x="36" y="480"/>
      <point x="36" y="358" type="curve" smooth="yes"/>
      <point x="36" y="270"/>
      <point x="51" y="194"/>
      <point x="79" y="135" type="curve" smooth="yes"/>
      <point x="126" y="39"/>
      <point x="216" y="-19"/>
      <point x="319" y="-19" type="curve" smooth="yes"/>
      <point x="398" y="-19"/>
      <point x="472" y="16"/>
      <point x="521" y="76" type="curve" smooth="yes"/>
      <point x="574" y="140"/>
      <point x="602" y="238"/>
      <point x="602" y="359" type="curve" smooth="yes"/>
      <point x="602" y="480"/>
      <point x="574" y="578"/>
      <point x="521" y="642" type="curve" smooth="yes"/>
      <point x="472" y="701"/>
      <point x="398" y="737"/>
    </contour>
    <contour>
      <point x="321" y="610" type="curve" smooth="yes"/>
      <point x="360" y="610"/>
      <point x="399" y="591"/>
      <point x="425" y="558" type="curve" smooth="yes"/>
      <point x="460" y="516"/>
      <point x="479" y="446"/>
      <point x="479" y="362" type="curve" smooth="yes"/>
      <point x="479" y="203"/>
      <point x="419" y="108"/>
      <point x="319" y="108" type="curve" smooth="yes"/>
      <point x="219" y="108"/>
      <point x="159" y="203"/>
      <point x="159" y="361" type="curve" smooth="yes"/>
      <point x="159" y="516"/>
      <point x="220" y="610"/>
    </contour>
    <contour>
      <point x="417" y="923" type="line"/>
      <point x="410" y="895"/>
      <point x="399" y="883"/>
      <point x="378" y="883" type="curve" smooth="yes"/>
      <point x="367" y="883"/>
      <point x="356" y="887"/>
      <point x="327" y="900" type="curve" smooth="yes"/>
      <point x="293" y="916"/>
      <point x="284" y="919"/>
      <point x="268" y="919" type="curve" smooth="yes"/>
      <point x="215" y="919"/>
      <point x="183" y="880"/>
      <point x="169" y="796" type="curve"/>
      <point x="221" y="796" type="line"/>
      <point x="227" y="824"/>
      <point x="240" y="839"/>
      <point x="259" y="839" type="curve" smooth="yes"/>
      <point x="267" y="839"/>
      <point x="279" y="836"/>
      <point x="297" y="827" type="curve"/>
      <point x="333" y="812"/>
      <point x="364" y="803"/>
      <point x="382" y="803" type="curve" smooth="yes"/>
      <point x="427" y="803"/>
      <point x="457" y="843"/>
      <point x="470" y="923" type="curve"/>
    </contour>
  </outline>
</glyph>
<glyph name="multiply" format="1">
  <advance width="479"/>
  <unicode hex="00D7"/>
  <outline>
    <contour>
      <point x="175" y="253" type="line"/>
      <point x="33" y="80" type="line"/>
      <point x="99" y="1" type="line"/>
      <point x="240" y="174" type="line"/>
      <point x="381" y="1" type="line"/>
      <point x="447" y="80" type="line"/>
      <point x="304" y="253" type="line"/>
      <point x="446" y="426" type="line"/>
      <point x="381" y="505" type="line"/>
      <point x="240" y="332" type="line"/>
      <point x="98" y="505" type="line"/>
      <point x="33" y="426" type="line"/>
    </contour>
  </outline>
</glyph>
<glyph name="Oslash" format="1">
  <advance width="638"/>
  <unicode hex="00D8"/>
  <outline>
    <contour>
      <point x="610" y="707" type="line"/>
      <point x="576" y="745" type="line"/>
      <point x="509" y="656" type="line"/>
      <point x="447" y="713"/>
      <point x="391" y="737"/>
      <point x="318" y="737" type="curve" smooth="yes"/>
      <point x="240" y="737"/>
      <point x="166" y="702"/>
      <point x="117" y="642" type="curve" smooth="yes"/>
      <point x="63" y="577"/>
      <point x="36" y="480"/>
      <point x="36" y="357" type="curve" smooth="yes"/>
      <point x="36" y="251"/>
      <point x="54" y="178"/>
      <point x="97" y="104" type="curve"/>
      <point x="27" y="11" type="line"/>
      <point x="61" y="-27" type="line"/>
      <point x="129" y="63" type="line"/>
      <point x="188" y="5"/>
      <point x="245" y="-19"/>
      <point x="319" y="-19" type="curve" smooth="yes"/>
      <point x="398" y="-19"/>
      <point x="472" y="16"/>
      <point x="521" y="76" type="curve" smooth="yes"/>
      <point x="575" y="141"/>
      <point x="602" y="238"/>
      <point x="602" y="361" type="curve" smooth="yes"/>
      <point x="602" y="467"/>
      <point x="585" y="539"/>
      <point x="541" y="615" type="curve"/>
    </contour>
    <contour>
      <point x="181" y="218" type="line"/>
      <point x="165" y="262"/>
      <point x="159" y="302"/>
      <point x="159" y="358" type="curve" smooth="yes"/>
      <point x="159" y="514"/>
      <point x="220" y="610"/>
      <point x="319" y="610" type="curve" smooth="yes"/>
      <point x="363" y="610"/>
      <point x="396" y="593"/>
      <point x="430" y="551" type="curve"/>
    </contour>
    <contour>
      <point x="456" y="501" type="line"/>
      <point x="473" y="458"/>
      <point x="479" y="418"/>
      <point x="479" y="359" type="curve" smooth="yes"/>
      <point x="479" y="204"/>
      <point x="418" y="108"/>
      <point x="319" y="108" type="curve" smooth="yes"/>
      <point x="274" y="108"/>
      <point x="240" y="126"/>
      <point x="207" y="168" type="curve"/>
    </contour>
  </outline>
</glyph>
<glyph name="Uacute" format="1">
  <advance width="592"/>
  <unicode hex="00DA"/>
  <outline>
    <contour>
      <point x="534" y="718" type="line"/>
      <point x="409" y="718" type="line"/>
      <point x="409" y="245" type="line" smooth="yes"/>
      <point x="409" y="156"/>
      <point x="369" y="108"/>
      <point x="295" y="108" type="curve" smooth="yes"/>
      <point x="224" y="108"/>
      <point x="184" y="160"/>
      <point x="184" y="252" type="curve" smooth="yes"/>
      <point x="184" y="718" type="line"/>
      <point x="59" y="718" type="line"/>
      <point x="59" y="242" type="line" smooth="yes"/>
      <point x="59" y="76"/>
      <point x="145" y="-19"/>
      <point x="295" y="-19" type="curve" smooth="yes"/>
      <point x="451" y="-19"/>
      <point x="534" y="75"/>
      <point x="534" y="251" type="curve" smooth="yes"/>
    </contour>
    <contour>
      <point x="452" y="936" type="line"/>
      <point x="326" y="936" type="line"/>
      <point x="249" y="790" type="line"/>
      <point x="332" y="790" type="line"/>
    </contour>
  </outline>
</glyph>
<glyph name="Ucircumflex" format="1">
  <advance width="592"/>
  <unicode hex="00DB"/>
  <outline>
    <contour>
      <point x="534" y="718" type="line"/>
      <point x="409" y="718" type="line"/>
      <point x="409" y="245" type="line" smooth="yes"/>
      <point x="409" y="156"/>
      <point x="369" y="108"/>
      <point x="295" y="108" type="curve" smooth="yes"/>
      <point x="224" y="108"/>
      <point x="184" y="160"/>
      <point x="184" y="252" type="curve" smooth="yes"/>
      <point x="184" y="718" type="line"/>
      <point x="59" y="718" type="line"/>
      <point x="59" y="242" type="line" smooth="yes"/>
      <point x="59" y="76"/>
      <point x="145" y="-19"/>
      <point x="295" y="-19" type="curve" smooth="yes"/>
      <point x="451" y="-19"/>
      <point x="534" y="75"/>
      <point x="534" y="251" type="curve" smooth="yes"/>
    </contour>
    <contour>
      <point x="348" y="936" type="line"/>
      <point x="245" y="936" type="line"/>
      <point x="152" y="790" type="line"/>
      <point x="245" y="790" type="line"/>
      <point x="296" y="872" type="line"/>
      <point x="348" y="790" type="line"/>
      <point x="441" y="790" type="line"/>
    </contour>
  </outline>
</glyph>
<glyph name="Udieresis" format="1">
  <advance width="592"/>
  <unicode hex="00DC"/>
  <outline>
    <contour>
      <point x="534" y="718" type="line"/>
      <point x="409" y="718" type="line"/>
      <point x="409" y="245" type="line" smooth="yes"/>
      <point x="409" y="156"/>
      <point x="369" y="108"/>
      <point x="295" y="108" type="curve" smooth="yes"/>
      <point x="224" y="108"/>
      <point x="184" y="160"/>
      <point x="184" y="252" type="curve" smooth="yes"/>
      <point x="184" y="718" type="line"/>
      <point x="59" y="718" type="line"/>
      <point x="59" y="242" type="line" smooth="yes"/>
      <point x="59" y="76"/>
      <point x="145" y="-19"/>
      <point x="295" y="-19" type="curve" smooth="yes"/>
      <point x="451" y="-19"/>
      <point x="534" y="75"/>
      <point x="534" y="251" type="curve" smooth="yes"/>
    </contour>
    <contour>
      <point x="268" y="915" type="line"/>
      <point x="165" y="915" type="line"/>
      <point x="165" y="800" type="line"/>
      <point x="268" y="800" type="line"/>
    </contour>
    <contour>
      <point x="428" y="915" type="line"/>
      <point x="325" y="915" type="line"/>
      <point x="325" y="800" type="line"/>
      <point x="428" y="800" type="line"/>
    </contour>
  </outline>
</glyph>
<glyph name="Yacute" format="1">
  <advance width="547"/>
  <unicode hex="00DD"/>
  <outline>
    <contour>
      <point x="338" y="269" type="line"/>
      <point x="535" y="718" type="line"/>
      <point x="396" y="718" type="line"/>
      <point x="279" y="406" type="line"/>
      <point x="157" y="718" type="line"/>
      <point x="12" y="718" type="line"/>
      <point x="215" y="271" type="line"/>
      <point x="215" y="0" type="line"/>
      <point x="338" y="0" type="line"/>
    </contour>
    <contour>
      <point x="428" y="936" type="line"/>
      <point x="302" y="936" type="line"/>
      <point x="225" y="790" type="line"/>
      <point x="308" y="790" type="line"/>
    </contour>
  </outline>
</glyph>
<glyph name="Thorn" format="1">
  <advance width="547"/>
  <unicode hex="00DE"/>
  <outline>
    <contour>
      <point x="62" y="0" type="line"/>
      <point x="185" y="0" type="line"/>
      <point x="185" y="159" type="line"/>
      <point x="326" y="159" type="line" smooth="yes"/>
      <point x="440" y="159"/>
      <point x="514" y="252"/>
      <point x="514" y="394" type="curve" smooth="yes"/>
      <point x="514" y="531"/>
      <point x="442" y="620"/>
      <point x="331" y="620" type="curve" smooth="yes"/>
      <point x="185" y="620" type="line"/>
      <point x="185" y="718" type="line"/>
      <point x="62" y="718" type="line"/>
    </contour>
    <contour>
      <point x="185" y="282" type="line"/>
      <point x="185" y="497" type="line"/>
      <point x="283" y="497" type="line" smooth="yes"/>
      <point x="359" y="497"/>
      <point x="391" y="466"/>
      <point x="391" y="392" type="curve" smooth="yes"/>
      <point x="391" y="317"/>
      <point x="361" y="282"/>
      <point x="299" y="282" type="curve" smooth="yes"/>
    </contour>
  </outline>
</glyph>
<glyph name="germandbls" format="1">
  <advance width="501"/>
  <unicode hex="00DF"/>
  <outline>
    <contour>
      <point x="229" y="-8" type="line"/>
      <point x="255" y="-13"/>
      <point x="263" y="-14"/>
      <point x="277" y="-14" type="curve" smooth="yes"/>
      <point x="398" y="-14"/>
      <point x="475" y="81"/>
      <point x="475" y="231" type="curve" smooth="yes"/>
      <point x="475" y="321"/>
      <point x="450" y="369"/>
      <point x="382" y="411" type="curve"/>
      <point x="423" y="439"/>
      <point x="442" y="480"/>
      <point x="442" y="541" type="curve" smooth="yes"/>
      <point x="442" y="660"/>
      <point x="370" y="731"/>
      <point x="250" y="731" type="curve" smooth="yes"/>
      <point x="132" y="731"/>
      <point x="57" y="657"/>
      <point x="57" y="539" type="curve" smooth="yes"/>
      <point x="57" y="0" type="line"/>
      <point x="171" y="0" type="line"/>
      <point x="171" y="530" type="line" smooth="yes"/>
      <point x="171" y="585"/>
      <point x="200" y="619"/>
      <point x="247" y="619" type="curve" smooth="yes"/>
      <point x="298" y="619"/>
      <point x="327" y="587"/>
      <point x="327" y="530" type="curve" smooth="yes"/>
      <point x="327" y="467"/>
      <point x="305" y="447"/>
      <point x="235" y="444" type="curve"/>
      <point x="235" y="347" type="line"/>
      <point x="328" y="339"/>
      <point x="360" y="308"/>
      <point x="360" y="224" type="curve" smooth="yes"/>
      <point x="360" y="143"/>
      <point x="323" y="101"/>
      <point x="253" y="101" type="curve" smooth="yes"/>
      <point x="246" y="101"/>
      <point x="237" y="101"/>
      <point x="233" y="102" type="curve"/>
      <point x="229" y="102" type="line"/>
    </contour>
  </outline>
</glyph>
<glyph name="atilde" format="1">
  <advance width="456"/>
  <unicode hex="00E3"/>
  <outline>
    <contour>
      <point x="148" y="360" type="line"/>
      <point x="155" y="414"/>
      <point x="175" y="434"/>
      <point x="224" y="434" type="curve" smooth="yes"/>
      <point x="271" y="434"/>
      <point x="295" y="414"/>
      <point x="295" y="374" type="curve" smooth="yes"/>
      <point x="295" y="349"/>
      <point x="283" y="335"/>
      <point x="255" y="330" type="curve" smooth="yes"/>
      <point x="152" y="311" type="line" smooth="yes"/>
      <point x="70" y="296"/>
      <point x="24" y="235"/>
      <point x="24" y="142" type="curve" smooth="yes"/>
      <point x="24" y="46"/>
      <point x="76" y="-14"/>
      <point x="160" y="-14" type="curve" smooth="yes"/>
      <point x="216" y="-14"/>
      <point x="253" y="6"/>
      <point x="298" y="63" type="curve"/>
      <point x="301" y="34"/>
      <point x="302" y="26"/>
      <point x="309" y="0" type="curve"/>
      <point x="432" y="0" type="line"/>
      <point x="432" y="21" type="line"/>
      <point x="413" y="31"/>
      <point x="407" y="52"/>
      <point x="407" y="104" type="curve" smooth="yes"/>
      <point x="407" y="392" type="line" smooth="yes"/>
      <point x="407" y="489"/>
      <point x="342" y="546"/>
      <point x="229" y="546" type="curve" smooth="yes"/>
      <point x="154" y="546"/>
      <point x="103" y="524"/>
      <point x="72" y="478" type="curve" smooth="yes"/>
      <point x="53" y="447"/>
      <point x="44" y="419"/>
      <point x="38" y="360" type="curve"/>
    </contour>
    <contour>
      <point x="295" y="191" type="line" smooth="yes"/>
      <point x="295" y="133"/>
      <point x="250" y="86"/>
      <point x="194" y="86" type="curve" smooth="yes"/>
      <point x="160" y="86"/>
      <point x="139" y="111"/>
      <point x="139" y="151" type="curve" smooth="yes"/>
      <point x="139" y="197"/>
      <point x="160" y="218"/>
      <point x="217" y="230" type="curve" smooth="yes"/>
      <point x="263" y="239"/>
      <point x="280" y="245"/>
      <point x="295" y="259" type="curve"/>
    </contour>
    <contour>
      <point x="326" y="737" type="line"/>
      <point x="319" y="709"/>
      <point x="308" y="697"/>
      <point x="287" y="697" type="curve" smooth="yes"/>
      <point x="276" y="697"/>
      <point x="265" y="701"/>
      <point x="236" y="714" type="curve" smooth="yes"/>
      <point x="202" y="730"/>
      <point x="193" y="733"/>
      <point x="177" y="733" type="curve" smooth="yes"/>
      <point x="124" y="733"/>
      <point x="92" y="694"/>
      <point x="78" y="610" type="curve"/>
      <point x="130" y="610" type="line"/>
      <point x="136" y="638"/>
      <point x="149" y="653"/>
      <point x="168" y="653" type="curve" smooth="yes"/>
      <point x="176" y="653"/>
      <point x="188" y="650"/>
      <point x="206" y="641" type="curve"/>
      <point x="242" y="626"/>
      <point x="273" y="617"/>
      <point x="291" y="617" type="curve" smooth="yes"/>
      <point x="336" y="617"/>
      <point x="366" y="657"/>
      <point x="379" y="737" type="curve"/>
    </contour>
  </outline>
</glyph>
<glyph name="aring" format="1">
  <advance width="456"/>
  <unicode hex="00E5"/>
  <outline>
    <contour>
      <point x="148" y="360" type="line"/>
      <point x="155" y="414"/>
      <point x="175" y="434"/>
      <point x="224" y="434" type="curve" smooth="yes"/>
      <point x="271" y="434"/>
      <point x="295" y="414"/>
      <point x="295" y="374" type="curve" smooth="yes"/>
      <point x="295" y="349"/>
      <point x="283" y="335"/>
      <point x="255" y="330" type="curve" smooth="yes"/>
      <point x="152" y="311" type="line" smooth="yes"/>
      <point x="70" y="296"/>
      <point x="24" y="235"/>
      <point x="24" y="142" type="curve" smooth="yes"/>
      <point x="24" y="46"/>
      <point x="76" y="-14"/>
      <point x="160" y="-14" type="curve" smooth="yes"/>
      <point x="216" y="-14"/>
      <point x="253" y="6"/>
      <point x="298" y="63" type="curve"/>
      <point x="301" y="34"/>
      <point x="302" y="26"/>
      <point x="309" y="0" type="curve"/>
      <point x="432" y="0" type="line"/>
      <point x="432" y="21" type="line"/>
      <point x="413" y="31"/>
      <point x="407" y="52"/>
      <point x="407" y="104" type="curve" smooth="yes"/>
      <point x="407" y="392" type="line" smooth="yes"/>
      <point x="407" y="489"/>
      <point x="342" y="546"/>
      <point x="229" y="546" type="curve" smooth="yes"/>
      <point x="154" y="546"/>
      <point x="103" y="524"/>
      <point x="72" y="478" type="curve" smooth="yes"/>
      <point x="53" y="447"/>
      <point x="44" y="419"/>
      <point x="38" y="360" type="curve"/>
    </contour>
    <contour>
      <point x="295" y="191" type="line" smooth="yes"/>
      <point x="295" y="133"/>
      <point x="250" y="86"/>
      <point x="194" y="86" type="curve" smooth="yes"/>
      <point x="160" y="86"/>
      <point x="139" y="111"/>
      <point x="139" y="151" type="curve" smooth="yes"/>
      <point x="139" y="197"/>
      <point x="160" y="218"/>
      <point x="217" y="230" type="curve" smooth="yes"/>
      <point x="263" y="239"/>
      <point x="280" y="245"/>
      <point x="295" y="259" type="curve"/>
    </contour>
    <contour>
      <point x="230" y="803" type="curve" smooth="yes"/>
      <point x="181" y="803"/>
      <point x="140" y="755"/>
      <point x="140" y="699" type="curve" smooth="yes"/>
      <point x="140" y="643"/>
      <point x="181" y="595"/>
      <point x="228" y="595" type="curve" smooth="yes"/>
      <point x="276" y="595"/>
      <point x="317" y="644"/>
      <point x="317" y="699" type="curve" smooth="yes"/>
      <point x="317" y="754"/>
      <point x="276" y="803"/>
    </contour>
    <contour>
      <point x="229" y="751" type="curve" smooth="yes"/>
      <point x="252" y="751"/>
      <point x="271" y="727"/>
      <point x="271" y="699" type="curve" smooth="yes"/>
      <point x="271" y="670"/>
      <point x="252" y="647"/>
      <point x="228" y="647" type="curve" smooth="yes"/>
      <point x="205" y="647"/>
      <point x="186" y="670"/>
      <point x="186" y="699" type="curve" smooth="yes"/>
      <point x="186" y="728"/>
      <point x="205" y="751"/>
    </contour>
  </outline>
</glyph>
<glyph name="ae" format="1">
  <advance width="729"/>
  <unicode hex="00E6"/>
  <outline>
    <contour>
      <point x="581" y="157" type="line"/>
      <point x="570" y="119"/>
      <point x="544" y="99"/>
      <point x="505" y="99" type="curve" smooth="yes"/>
      <point x="443" y="99"/>
      <point x="412" y="138"/>
      <point x="405" y="227" type="curve"/>
      <point x="704" y="227" type="line"/>
      <point x="704" y="252" type="line" smooth="yes"/>
      <point x="704" y="354"/>
      <point x="683" y="430"/>
      <point x="642" y="481" type="curve" smooth="yes"/>
      <point x="609" y="522"/>
      <point x="557" y="546"/>
      <point x="503" y="546" type="curve" smooth="yes"/>
      <point x="451" y="546"/>
      <point x="417" y="531"/>
      <point x="371" y="487" type="curve"/>
      <point x="330" y="529"/>
      <point x="290" y="546"/>
      <point x="231" y="546" type="curve" smooth="yes"/>
      <point x="158" y="546"/>
      <point x="103" y="520"/>
      <point x="72" y="472" type="curve" smooth="yes"/>
      <point x="53" y="442"/>
      <point x="45" y="414"/>
      <point x="40" y="359" type="curve"/>
      <point x="152" y="359" type="line"/>
      <point x="154" y="411"/>
      <point x="176" y="434"/>
      <point x="225" y="434" type="curve" smooth="yes"/>
      <point x="278" y="434"/>
      <point x="301" y="416"/>
      <point x="301" y="374" type="curve" smooth="yes"/>
      <point x="301" y="340"/>
      <point x="293" y="334"/>
      <point x="242" y="323" type="curve" smooth="yes"/>
      <point x="135" y="301" type="line" smooth="yes"/>
      <point x="65" y="286"/>
      <point x="24" y="230"/>
      <point x="24" y="147" type="curve" smooth="yes"/>
      <point x="24" y="44"/>
      <point x="79" y="-14"/>
      <point x="179" y="-14" type="curve" smooth="yes"/>
      <point x="255" y="-14"/>
      <point x="311" y="16"/>
      <point x="344" y="72" type="curve"/>
      <point x="385" y="8"/>
      <point x="425" y="-14"/>
      <point x="501" y="-14" type="curve" smooth="yes"/>
      <point x="552" y="-14"/>
      <point x="592" y="0"/>
      <point x="626" y="29" type="curve" smooth="yes"/>
      <point x="663" y="60"/>
      <point x="680" y="91"/>
      <point x="699" y="157" type="curve"/>
    </contour>
    <contour>
      <point x="299" y="188" type="line" smooth="yes"/>
      <point x="299" y="135"/>
      <point x="252" y="86"/>
      <point x="200" y="86" type="curve" smooth="yes"/>
      <point x="162" y="86"/>
      <point x="139" y="110"/>
      <point x="139" y="151" type="curve" smooth="yes"/>
      <point x="139" y="197"/>
      <point x="156" y="213"/>
      <point x="214" y="224" type="curve" smooth="yes"/>
      <point x="268" y="234"/>
      <point x="286" y="240"/>
      <point x="299" y="254" type="curve"/>
    </contour>
    <contour>
      <point x="408" y="319" type="line"/>
      <point x="418" y="396"/>
      <point x="445" y="431"/>
      <point x="496" y="431" type="curve" smooth="yes"/>
      <point x="548" y="431"/>
      <point x="578" y="394"/>
      <point x="586" y="319" type="curve"/>
    </contour>
  </outline>
</glyph>
<glyph name="ccedilla" format="1">
  <advance width="456"/>
  <unicode hex="00E7"/>
  <outline>
    <contour>
      <point x="237" y="-14" type="line"/>
      <point x="343" y="-11"/>
      <point x="415" y="67"/>
      <point x="429" y="194" type="curve"/>
      <point x="313" y="194" type="line"/>
      <point x="308" y="138"/>
      <point x="277" y="101"/>
      <point x="233" y="101" type="curve" smooth="yes"/>
      <point x="175" y="101"/>
      <point x="146" y="156"/>
      <point x="146" y="265" type="curve" smooth="yes"/>
      <point x="146" y="372"/>
      <point x="178" y="428"/>
      <point x="240" y="428" type="curve" smooth="yes"/>
      <point x="281" y="428"/>
      <point x="303" y="402"/>
      <point x="314" y="342" type="curve"/>
      <point x="430" y="342" type="line"/>
      <point x="425" y="395"/>
      <point x="418" y="421"/>
      <point x="401" y="452" type="curve" smooth="yes"/>
      <point x="368" y="512"/>
      <point x="307" y="546"/>
      <point x="235" y="546" type="curve" smooth="yes"/>
      <point x="105" y="546"/>
      <point x="28" y="439"/>
      <point x="28" y="259" type="curve" smooth="yes"/>
      <point x="28" y="102"/>
      <point x="83" y="10"/>
      <point x="191" y="-11" type="curve"/>
      <point x="151" y="-84" type="line"/>
      <point x="168" y="-104" type="line"/>
      <point x="182" y="-99"/>
      <point x="193" y="-96"/>
      <point x="200" y="-96" type="curve" smooth="yes"/>
      <point x="218" y="-96"/>
      <point x="232" y="-111"/>
      <point x="232" y="-132" type="curve" smooth="yes"/>
      <point x="232" y="-153"/>
      <point x="215" y="-171"/>
      <point x="193" y="-171" type="curve" smooth="yes"/>
      <point x="180" y="-171"/>
      <point x="161" y="-166"/>
      <point x="131" y="-155" type="curve"/>
      <point x="113" y="-203" type="line"/>
      <point x="158" y="-223"/>
      <point x="177" y="-228"/>
      <point x="205" y="-228" type="curve" smooth="yes"/>
      <point x="267" y="-228"/>
      <point x="309" y="-188"/>
      <point x="309" y="-129" type="curve" smooth="yes"/>
      <point x="309" y="-83"/>
      <point x="279" y="-51"/>
      <point x="238" y="-51" type="curve" smooth="yes"/>
      <point x="230" y="-51"/>
      <point x="223" y="-52"/>
      <point x="213" y="-55" type="curve"/>
    </contour>
  </outline>
</glyph>
<glyph name="egrave" format="1">
  <advance width="456"/>
  <unicode hex="00E8"/>
  <outline>
    <contour>
      <point x="310" y="157" type="line"/>
      <point x="299" y="119"/>
      <point x="273" y="99"/>
      <point x="234" y="99" type="curve" smooth="yes"/>
      <point x="172" y="99"/>
      <point x="141" y="138"/>
      <point x="134" y="227" type="curve"/>
      <point x="433" y="227" type="line"/>
      <point x="433" y="252" type="line" smooth="yes"/>
      <point x="433" y="441"/>
      <point x="359" y="546"/>
      <point x="226" y="546" type="curve" smooth="yes"/>
      <point x="97" y="546"/>
      <point x="19" y="442"/>
      <point x="19" y="268" type="curve" smooth="yes"/>
      <point x="19" y="88"/>
      <point x="96" y="-14"/>
      <point x="232" y="-14" type="curve" smooth="yes"/>
      <point x="281" y="-14"/>
      <point x="322" y="0"/>
      <point x="355" y="29" type="curve" smooth="yes"/>
      <point x="392" y="60"/>
      <point x="409" y="91"/>
      <point x="428" y="157" type="curve"/>
    </contour>
    <contour>
      <point x="137" y="319" type="line"/>
      <point x="147" y="396"/>
      <point x="174" y="431"/>
      <point x="225" y="431" type="curve" smooth="yes"/>
      <point x="277" y="431"/>
      <point x="307" y="394"/>
      <point x="315" y="319" type="curve"/>
    </contour>
    <contour>
      <point x="193" y="604" type="line"/>
      <point x="276" y="604" type="line"/>
      <point x="199" y="750" type="line"/>
      <point x="73" y="750" type="line"/>
    </contour>
  </outline>
</glyph>
<glyph name="igrave" format="1">
  <advance width="228"/>
  <unicode hex="00EC"/>
  <outline>
    <contour>
      <point x="57" y="532" type="line"/>
      <point x="57" y="0" type="line"/>
      <point x="171" y="0" type="line"/>
      <point x="171" y="532" type="line"/>
    </contour>
    <contour>
      <point x="79" y="604" type="line"/>
      <point x="162" y="604" type="line"/>
      <point x="85" y="750" type="line"/>
      <point x="-41" y="750" type="line"/>
    </contour>
  </outline>
</glyph>
<glyph name="iacute" format="1">
  <advance width="228"/>
  <unicode hex="00ED"/>
  <outline>
    <contour>
      <point x="57" y="532" type="line"/>
      <point x="57" y="0" type="line"/>
      <point x="171" y="0" type="line"/>
      <point x="171" y="532" type="line"/>
    </contour>
    <contour>
      <point x="270" y="750" type="line"/>
      <point x="144" y="750" type="line"/>
      <point x="67" y="604" type="line"/>
      <point x="150" y="604" type="line"/>
    </contour>
  </outline>
</glyph>
<glyph name="icircumflex" format="1">
  <advance width="228"/>
  <unicode hex="00EE"/>
  <outline>
    <contour>
      <point x="57" y="532" type="line"/>
      <point x="57" y="0" type="line"/>
      <point x="171" y="0" type="line"/>
      <point x="171" y="532" type="line"/>
    </contour>
    <contour>
      <point x="166" y="750" type="line"/>
      <point x="63" y="750" type="line"/>
      <point x="-30" y="604" type="line"/>
      <point x="63" y="604" type="line"/>
      <point x="114" y="686" type="line"/>
      <point x="166" y="604" type="line"/>
      <point x="259" y="604" type="line"/>
    </contour>
  </outline>
</glyph>
<glyph name="eth" format="1">
  <advance width="501"/>
  <unicode hex="00F0"/>
  <outline>
    <contour>
      <point x="430" y="685" type="line"/>
      <point x="379" y="737" type="line"/>
      <point x="295" y="693" type="line"/>
      <point x="274" y="711"/>
      <point x="254" y="725"/>
      <point x="231" y="737" type="curve"/>
      <point x="142" y="688" type="line"/>
      <point x="159" y="678"/>
      <point x="179" y="663"/>
      <point x="202" y="643" type="curve"/>
      <point x="113" y="596" type="line"/>
      <point x="165" y="544" type="line"/>
      <point x="253" y="591" type="line"/>
      <point x="296" y="545"/>
      <point x="317" y="511"/>
      <point x="337" y="460" type="curve"/>
      <point x="305" y="506"/>
      <point x="274" y="523"/>
      <point x="226" y="523" type="curve" smooth="yes"/>
      <point x="111" y="523"/>
      <point x="28" y="413"/>
      <point x="28" y="260" type="curve" smooth="yes"/>
      <point x="28" y="95"/>
      <point x="117" y="-14"/>
      <point x="250" y="-14" type="curve" smooth="yes"/>
      <point x="386" y="-14"/>
      <point x="474" y="106"/>
      <point x="474" y="291" type="curve" smooth="yes"/>
      <point x="474" y="356"/>
      <point x="464" y="416"/>
      <point x="443" y="475" type="curve" smooth="yes"/>
      <point x="421" y="539"/>
      <point x="399" y="576"/>
      <point x="347" y="641" type="curve"/>
    </contour>
    <contour>
      <point x="253" y="405" type="curve" smooth="yes"/>
      <point x="314" y="405"/>
      <point x="356" y="346"/>
      <point x="356" y="260" type="curve" smooth="yes"/>
      <point x="356" y="165"/>
      <point x="316" y="104"/>
      <point x="252" y="104" type="curve" smooth="yes"/>
      <point x="188" y="104"/>
      <point x="146" y="162"/>
      <point x="146" y="252" type="curve" smooth="yes"/>
      <point x="146" y="345"/>
      <point x="188" y="405"/>
    </contour>
  </outline>
</glyph>
<glyph name="ntilde" format="1">
  <advance width="501"/>
  <unicode hex="00F1"/>
  <outline>
    <contour>
      <point x="163" y="532" type="line"/>
      <point x="53" y="532" type="line"/>
      <point x="53" y="0" type="line"/>
      <point x="167" y="0" type="line"/>
      <point x="167" y="305" type="line" smooth="yes"/>
      <point x="167" y="381"/>
      <point x="203" y="428"/>
      <point x="260" y="428" type="curve" smooth="yes"/>
      <point x="312" y="428"/>
      <point x="334" y="397"/>
      <point x="334" y="323" type="curve" smooth="yes"/>
      <point x="334" y="0" type="line"/>
      <point x="448" y="0" type="line"/>
      <point x="448" y="368" type="line" smooth="yes"/>
      <point x="448" y="477"/>
      <point x="389" y="546"/>
      <point x="297" y="546" type="curve" smooth="yes"/>
      <point x="235" y="546"/>
      <point x="194" y="517"/>
      <point x="163" y="451" type="curve"/>
    </contour>
    <contour>
      <point x="348" y="737" type="line"/>
      <point x="341" y="709"/>
      <point x="330" y="697"/>
      <point x="309" y="697" type="curve" smooth="yes"/>
      <point x="298" y="697"/>
      <point x="287" y="701"/>
      <point x="258" y="714" type="curve" smooth="yes"/>
      <point x="224" y="730"/>
      <point x="215" y="733"/>
      <point x="199" y="733" type="curve" smooth="yes"/>
      <point x="146" y="733"/>
      <point x="114" y="694"/>
      <point x="100" y="610" type="curve"/>
      <point x="152" y="610" type="line"/>
      <point x="158" y="638"/>
      <point x="171" y="653"/>
      <point x="190" y="653" type="curve" smooth="yes"/>
      <point x="198" y="653"/>
      <point x="210" y="650"/>
      <point x="228" y="641" type="curve"/>
      <point x="264" y="626"/>
      <point x="295" y="617"/>
      <point x="313" y="617" type="curve" smooth="yes"/>
      <point x="358" y="617"/>
      <point x="388" y="657"/>
      <point x="401" y="737" type="curve"/>
    </contour>
  </outline>
</glyph>
<glyph name="ograve" format="1">
  <advance width="501"/>
  <unicode hex="00F2"/>
  <outline>
    <contour>
      <point x="254" y="546" type="curve" smooth="yes"/>
      <point x="115" y="546"/>
      <point x="28" y="437"/>
      <point x="28" y="265" type="curve" smooth="yes"/>
      <point x="28" y="96"/>
      <point x="116" y="-14"/>
      <point x="251" y="-14" type="curve" smooth="yes"/>
      <point x="386" y="-14"/>
      <point x="474" y="96"/>
      <point x="474" y="265" type="curve" smooth="yes"/>
      <point x="474" y="434"/>
      <point x="387" y="546"/>
    </contour>
    <contour>
      <point x="252" y="428" type="curve" smooth="yes"/>
      <point x="319" y="428"/>
      <point x="356" y="370"/>
      <point x="356" y="266" type="curve" smooth="yes"/>
      <point x="356" y="161"/>
      <point x="319" y="104"/>
      <point x="251" y="104" type="curve" smooth="yes"/>
      <point x="183" y="104"/>
      <point x="146" y="161"/>
      <point x="146" y="266" type="curve" smooth="yes"/>
      <point x="146" y="372"/>
      <point x="183" y="428"/>
    </contour>
    <contour>
      <point x="215" y="604" type="line"/>
      <point x="298" y="604" type="line"/>
      <point x="221" y="750" type="line"/>
      <point x="95" y="750" type="line"/>
    </contour>
  </outline>
</glyph>
<glyph name="otilde" format="1">
  <advance width="501"/>
  <unicode hex="00F5"/>
  <outline>
    <contour>
      <point x="254" y="546" type="curve" smooth="yes"/>
      <point x="115" y="546"/>
      <point x="28" y="437"/>
      <point x="28" y="265" type="curve" smooth="yes"/>
      <point x="28" y="96"/>
      <point x="116" y="-14"/>
      <point x="251" y="-14" type="curve" smooth="yes"/>
      <point x="386" y="-14"/>
      <point x="474" y="96"/>
      <point x="474" y="265" type="curve" smooth="yes"/>
      <point x="474" y="434"/>
      <point x="387" y="546"/>
    </contour>
    <contour>
      <point x="252" y="428" type="curve" smooth="yes"/>
      <point x="319" y="428"/>
      <point x="356" y="370"/>
      <point x="356" y="266" type="curve" smooth="yes"/>
      <point x="356" y="161"/>
      <point x="319" y="104"/>
      <point x="251" y="104" type="curve" smooth="yes"/>
      <point x="183" y="104"/>
      <point x="146" y="161"/>
      <point x="146" y="266" type="curve" smooth="yes"/>
      <point x="146" y="372"/>
      <point x="183" y="428"/>
    </contour>
    <contour>
      <point x="348" y="737" type="line"/>
      <point x="341" y="709"/>
      <point x="330" y="697"/>
      <point x="309" y="697" type="curve" smooth="yes"/>
      <point x="298" y="697"/>
      <point x="287" y="701"/>
      <point x="258" y="714" type="curve" smooth="yes"/>
      <point x="224" y="730"/>
      <point x="215" y="733"/>
      <point x="199" y="733" type="curve" smooth="yes"/>
      <point x="146" y="733"/>
      <point x="114" y="694"/>
      <point x="100" y="610" type="curve"/>
      <point x="152" y="610" type="line"/>
      <point x="158" y="638"/>
      <point x="171" y="653"/>
      <point x="190" y="653" type="curve" smooth="yes"/>
      <point x="198" y="653"/>
      <point x="210" y="650"/>
      <point x="228" y="641" type="curve"/>
      <point x="264" y="626"/>
      <point x="295" y="617"/>
      <point x="313" y="617" type="curve" smooth="yes"/>
      <point x="358" y="617"/>
      <point x="388" y="657"/>
      <point x="401" y="737" type="curve"/>
    </contour>
  </outline>
</glyph>
<glyph name="divide" format="1">
  <advance width="479"/>
  <unicode hex="00F7"/>
  <outline>
    <contour>
      <point x="446" y="197" type="line"/>
      <point x="446" y="309" type="line"/>
      <point x="33" y="309" type="line"/>
      <point x="33" y="197" type="line"/>
    </contour>
    <contour>
      <point x="240" y="548" type="curve" smooth="yes"/>
      <point x="200" y="548"/>
      <point x="167" y="508"/>
      <point x="167" y="459" type="curve" smooth="yes"/>
      <point x="167" y="412"/>
      <point x="201" y="371"/>
      <point x="240" y="371" type="curve" smooth="yes"/>
      <point x="278" y="371"/>
      <point x="312" y="413"/>
      <point x="312" y="460" type="curve" smooth="yes"/>
      <point x="312" y="506"/>
      <point x="278" y="548"/>
    </contour>
    <contour>
      <point x="240" y="135" type="curve" smooth="yes"/>
      <point x="200" y="135"/>
      <point x="167" y="95"/>
      <point x="167" y="46" type="curve" smooth="yes"/>
      <point x="167" y="-1"/>
      <point x="201" y="-42"/>
      <point x="240" y="-42" type="curve" smooth="yes"/>
      <point x="277" y="-42"/>
      <point x="312" y="1"/>
      <point x="312" y="47" type="curve" smooth="yes"/>
      <point x="312" y="93"/>
      <point x="278" y="135"/>
    </contour>
  </outline>
</glyph>
<glyph name="oslash" format="1">
  <advance width="501"/>
  <unicode hex="00F8"/>
  <outline>
    <contour>
      <point x="483" y="528" type="line"/>
      <point x="454" y="560" type="line"/>
      <point x="398" y="487" type="line"/>
      <point x="351" y="529"/>
      <point x="308" y="546"/>
      <point x="251" y="546" type="curve" smooth="yes"/>
      <point x="115" y="546"/>
      <point x="28" y="436"/>
      <point x="28" y="266" type="curve" smooth="yes"/>
      <point x="28" y="188"/>
      <point x="42" y="135"/>
      <point x="78" y="77" type="curve"/>
      <point x="18" y="0" type="line"/>
      <point x="49" y="-29" type="line"/>
      <point x="106" y="44" type="line"/>
      <point x="151" y="3"/>
      <point x="194" y="-14"/>
      <point x="251" y="-14" type="curve" smooth="yes"/>
      <point x="386" y="-14"/>
      <point x="474" y="96"/>
      <point x="474" y="266" type="curve" smooth="yes"/>
      <point x="474" y="343"/>
      <point x="460" y="396"/>
      <point x="425" y="454" type="curve"/>
    </contour>
    <contour>
      <point x="344" y="351" type="line"/>
      <point x="353" y="325"/>
      <point x="356" y="300"/>
      <point x="356" y="267" type="curve" smooth="yes"/>
      <point x="356" y="161"/>
      <point x="319" y="104"/>
      <point x="250" y="104" type="curve" smooth="yes"/>
      <point x="219" y="104"/>
      <point x="198" y="114"/>
      <point x="179" y="138" type="curve"/>
    </contour>
    <contour>
      <point x="158" y="179" type="line"/>
      <point x="149" y="208"/>
      <point x="146" y="232"/>
      <point x="146" y="267" type="curve" smooth="yes"/>
      <point x="146" y="371"/>
      <point x="183" y="428"/>
      <point x="251" y="428" type="curve" smooth="yes"/>
      <point x="282" y="428"/>
      <point x="303" y="418"/>
      <point x="325" y="393" type="curve"/>
    </contour>
  </outline>
</glyph>
<glyph name="ugrave" format="1">
  <advance width="501"/>
  <unicode hex="00F9"/>
  <outline>
    <contour>
      <point x="447" y="532" type="line"/>
      <point x="333" y="532" type="line"/>
      <point x="333" y="225" type="line" smooth="yes"/>
      <point x="333" y="150"/>
      <point x="299" y="104"/>
      <point x="242" y="104" type="curve" smooth="yes"/>
      <point x="193" y="104"/>
      <point x="168" y="138"/>
      <point x="168" y="202" type="curve" smooth="yes"/>
      <point x="168" y="532" type="line"/>
      <point x="54" y="532" type="line"/>
      <point x="54" y="182" type="line" smooth="yes"/>
      <point x="54" y="57"/>
      <point x="107" y="-14"/>
      <point x="201" y="-14" type="curve" smooth="yes"/>
      <point x="265" y="-14"/>
      <point x="307" y="15"/>
      <point x="337" y="78" type="curve"/>
      <point x="337" y="0" type="line"/>
      <point x="447" y="0" type="line"/>
    </contour>
    <contour>
      <point x="215" y="604" type="line"/>
      <point x="298" y="604" type="line"/>
      <point x="221" y="750" type="line"/>
      <point x="95" y="750" type="line"/>
    </contour>
  </outline>
</glyph>
<glyph name="ucircumflex" format="1">
  <advance width="501"/>
  <unicode hex="00FB"/>
  <outline>
    <contour>
      <point x="447" y="532" type="line"/>
      <point x="333" y="532" type="line"/>
      <point x="333" y="225" type="line" smooth="yes"/>
      <point x="333" y="150"/>
      <point x="299" y="104"/>
      <point x="242" y="104" type="curve" smooth="yes"/>
      <point x="193" y="104"/>
      <point x="168" y="138"/>
      <point x="168" y="202" type="curve" smooth="yes"/>
      <point x="168" y="532" type="line"/>
      <point x="54" y="532" type="line"/>
      <point x="54" y="182" type="line" smooth="yes"/>
      <point x="54" y="57"/>
      <point x="107" y="-14"/>
      <point x="201" y="-14" type="curve" smooth="yes"/>
      <point x="265" y="-14"/>
      <point x="307" y="15"/>
      <point x="337" y="78" type="curve"/>
      <point x="337" y="0" type="line"/>
      <point x="447" y="0" type="line"/>
    </contour>
    <contour>
      <point x="302" y="750" type="line"/>
      <point x="199" y="750" type="line"/>
      <point x="106" y="604" type="line"/>
      <point x="199" y="604" type="line"/>
      <point x="250" y="686" type="line"/>
      <point x="302" y="604" type="line"/>
      <point x="395" y="604" type="line"/>
    </contour>
  </outline>
</glyph>
<glyph name="yacute" format="1">
  <advance width="456"/>
  <unicode hex="00FD"/>
  <outline>
    <contour>
      <point x="442" y="532" type="line"/>
      <point x="320" y="532" type="line"/>
      <point x="230" y="136" type="line"/>
      <point x="136" y="532" type="line"/>
      <point x="8" y="532" type="line"/>
      <point x="169" y="-22" type="line"/>
      <point x="158" y="-87"/>
      <point x="144" y="-102"/>
      <point x="95" y="-102" type="curve" smooth="yes"/>
      <point x="87" y="-102"/>
      <point x="79" y="-101"/>
      <point x="71" y="-100" type="curve"/>
      <point x="71" y="-212" type="line"/>
      <point x="98" y="-213"/>
      <point x="114" y="-214"/>
      <point x="126" y="-214" type="curve" smooth="yes"/>
      <point x="177" y="-214"/>
      <point x="204" y="-204"/>
      <point x="224" y="-177" type="curve" smooth="yes"/>
      <point x="242" y="-153"/>
      <point x="258" y="-110"/>
      <point x="292" y="9" type="curve" smooth="yes"/>
    </contour>
    <contour>
      <point x="384" y="750" type="line"/>
      <point x="258" y="750" type="line"/>
      <point x="181" y="604" type="line"/>
      <point x="264" y="604" type="line"/>
    </contour>
  </outline>
</glyph>
<glyph name="thorn" format="1">
  <advance width="501"/>
  <unicode hex="00FE"/>
  <outline>
    <contour>
      <point x="165" y="71" type="line"/>
      <point x="195" y="10"/>
      <point x="230" y="-14"/>
      <point x="289" y="-14" type="curve" smooth="yes"/>
      <point x="402" y="-14"/>
      <point x="474" y="97"/>
      <point x="474" y="272" type="curve" smooth="yes"/>
      <point x="474" y="437"/>
      <point x="401" y="546"/>
      <point x="291" y="546" type="curve" smooth="yes"/>
      <point x="235" y="546"/>
      <point x="198" y="521"/>
      <point x="165" y="461" type="curve"/>
      <point x="165" y="718" type="line"/>
      <point x="51" y="718" type="line"/>
      <point x="51" y="-207" type="line"/>
      <point x="165" y="-207" type="line"/>
    </contour>
    <contour>
      <point x="258" y="424" type="curve" smooth="yes"/>
      <point x="319" y="424"/>
      <point x="356" y="364"/>
      <point x="356" y="265" type="curve" smooth="yes"/>
      <point x="356" y="165"/>
      <point x="319" y="101"/>
      <point x="259" y="101" type="curve" smooth="yes"/>
      <point x="197" y="101"/>
      <point x="160" y="159"/>
      <point x="160" y="258" type="curve" smooth="yes"/>
      <point x="160" y="366"/>
      <point x="194" y="424"/>
    </contour>
  </outline>
</glyph>
<glyph name="Amacron" format="1">
  <advance width="592"/>
  <unicode hex="0100"/>
  <outline>
    <contour>
      <point x="187" y="148" type="line"/>
      <point x="404" y="148" type="line"/>
      <point x="442" y="0" type="line"/>
      <point x="576" y="0" type="line"/>
      <point x="368" y="718" type="line"/>
      <point x="226" y="718" type="line"/>
      <point x="16" y="0" type="line"/>
      <point x="146" y="0" type="line"/>
    </contour>
    <contour>
      <point x="296" y="559" type="line"/>
      <point x="370" y="271" type="line"/>
      <point x="220" y="271" type="line"/>
    </contour>
    <contour>
      <point x="438" y="864" type="line"/>
      <point x="155" y="864" type="line"/>
      <point x="155" y="791" type="line"/>
      <point x="438" y="791" type="line"/>
    </contour>
  </outline>
</glyph>
<glyph name="amacron" format="1">
  <advance width="456"/>
  <unicode hex="0101"/>
  <outline>
    <contour>
      <point x="148" y="360" type="line"/>
      <point x="155" y="414"/>
      <point x="175" y="434"/>
      <point x="224" y="434" type="curve" smooth="yes"/>
      <point x="271" y="434"/>
      <point x="295" y="414"/>
      <point x="295" y="374" type="curve" smooth="yes"/>
      <point x="295" y="349"/>
      <point x="283" y="335"/>
      <point x="255" y="330" type="curve" smooth="yes"/>
      <point x="152" y="311" type="line" smooth="yes"/>
      <point x="70" y="296"/>
      <point x="24" y="235"/>
      <point x="24" y="142" type="curve" smooth="yes"/>
      <point x="24" y="46"/>
      <point x="76" y="-14"/>
      <point x="160" y="-14" type="curve" smooth="yes"/>
      <point x="216" y="-14"/>
      <point x="253" y="6"/>
      <point x="298" y="63" type="curve"/>
      <point x="301" y="34"/>
      <point x="302" y="26"/>
      <point x="309" y="0" type="curve"/>
      <point x="432" y="0" type="line"/>
      <point x="432" y="21" type="line"/>
      <point x="413" y="31"/>
      <point x="407" y="52"/>
      <point x="407" y="104" type="curve" smooth="yes"/>
      <point x="407" y="392" type="line" smooth="yes"/>
      <point x="407" y="489"/>
      <point x="342" y="546"/>
      <point x="229" y="546" type="curve" smooth="yes"/>
      <point x="154" y="546"/>
      <point x="103" y="524"/>
      <point x="72" y="478" type="curve" smooth="yes"/>
      <point x="53" y="447"/>
      <point x="44" y="419"/>
      <point x="38" y="360" type="curve"/>
    </contour>
    <contour>
      <point x="295" y="191" type="line" smooth="yes"/>
      <point x="295" y="133"/>
      <point x="250" y="86"/>
      <point x="194" y="86" type="curve" smooth="yes"/>
      <point x="160" y="86"/>
      <point x="139" y="111"/>
      <point x="139" y="151" type="curve" smooth="yes"/>
      <point x="139" y="197"/>
      <point x="160" y="218"/>
      <point x="217" y="230" type="curve" smooth="yes"/>
      <point x="263" y="239"/>
      <point x="280" y="245"/>
      <point x="295" y="259" type="curve"/>
    </contour>
    <contour>
      <point x="370" y="678" type="line"/>
      <point x="87" y="678" type="line"/>
      <point x="87" y="605" type="line"/>
      <point x="370" y="605" type="line"/>
    </contour>
  </outline>
</glyph>
<glyph name="Abreve" format="1">
  <advance width="592"/>
  <unicode hex="0102"/>
  <outline>
    <contour>
      <point x="187" y="148" type="line"/>
      <point x="404" y="148" type="line"/>
      <point x="442" y="0" type="line"/>
      <point x="576" y="0" type="line"/>
      <point x="368" y="718" type="line"/>
      <point x="226" y="718" type="line"/>
      <point x="16" y="0" type="line"/>
      <point x="146" y="0" type="line"/>
    </contour>
    <contour>
      <point x="296" y="559" type="line"/>
      <point x="370" y="271" type="line"/>
      <point x="220" y="271" type="line"/>
    </contour>
    <contour>
      <point x="382" y="936" type="line"/>
      <point x="371" y="884"/>
      <point x="350" y="867"/>
      <point x="297" y="867" type="curve" smooth="yes"/>
      <point x="243" y="867"/>
      <point x="221" y="885"/>
      <point x="212" y="936" type="curve"/>
      <point x="158" y="936" type="line"/>
      <point x="167" y="838"/>
      <point x="212" y="790"/>
      <point x="292" y="790" type="curve" smooth="yes"/>
      <point x="376" y="790"/>
      <point x="425" y="839"/>
      <point x="435" y="936" type="curve"/>
    </contour>
  </outline>
</glyph>
<glyph name="abreve" format="1">
  <advance width="456"/>
  <unicode hex="0103"/>
  <outline>
    <contour>
      <point x="148" y="360" type="line"/>
      <point x="155" y="414"/>
      <point x="175" y="434"/>
      <point x="224" y="434" type="curve" smooth="yes"/>
      <point x="271" y="434"/>
      <point x="295" y="414"/>
      <point x="295" y="374" type="curve" smooth="yes"/>
      <point x="295" y="349"/>
      <point x="283" y="335"/>
      <point x="255" y="330" type="curve" smooth="yes"/>
      <point x="152" y="311" type="line" smooth="yes"/>
      <point x="70" y="296"/>
      <point x="24" y="235"/>
      <point x="24" y="142" type="curve" smooth="yes"/>
      <point x="24" y="46"/>
      <point x="76" y="-14"/>
      <point x="160" y="-14" type="curve" smooth="yes"/>
      <point x="216" y="-14"/>
      <point x="253" y="6"/>
      <point x="298" y="63" type="curve"/>
      <point x="301" y="34"/>
      <point x="302" y="26"/>
      <point x="309" y="0" type="curve"/>
      <point x="432" y="0" type="line"/>
      <point x="432" y="21" type="line"/>
      <point x="413" y="31"/>
      <point x="407" y="52"/>
      <point x="407" y="104" type="curve" smooth="yes"/>
      <point x="407" y="392" type="line" smooth="yes"/>
      <point x="407" y="489"/>
      <point x="342" y="546"/>
      <point x="229" y="546" type="curve" smooth="yes"/>
      <point x="154" y="546"/>
      <point x="103" y="524"/>
      <point x="72" y="478" type="curve" smooth="yes"/>
      <point x="53" y="447"/>
      <point x="44" y="419"/>
      <point x="38" y="360" type="curve"/>
    </contour>
    <contour>
      <point x="295" y="191" type="line" smooth="yes"/>
      <point x="295" y="133"/>
      <point x="250" y="86"/>
      <point x="194" y="86" type="curve" smooth="yes"/>
      <point x="160" y="86"/>
      <point x="139" y="111"/>
      <point x="139" y="151" type="curve" smooth="yes"/>
      <point x="139" y="197"/>
      <point x="160" y="218"/>
      <point x="217" y="230" type="curve" smooth="yes"/>
      <point x="263" y="239"/>
      <point x="280" y="245"/>
      <point x="295" y="259" type="curve"/>
    </contour>
    <contour>
      <point x="314" y="750" type="line"/>
      <point x="303" y="698"/>
      <point x="282" y="681"/>
      <point x="229" y="681" type="curve" smooth="yes"/>
      <point x="175" y="681"/>
      <point x="153" y="699"/>
      <point x="144" y="750" type="curve"/>
      <point x="90" y="750" type="line"/>
      <point x="99" y="652"/>
      <point x="144" y="604"/>
      <point x="224" y="604" type="curve" smooth="yes"/>
      <point x="308" y="604"/>
      <point x="357" y="653"/>
      <point x="367" y="750" type="curve"/>
    </contour>
  </outline>
</glyph>
<glyph name="Aogonek" format="1">
  <advance width="592"/>
  <unicode hex="0104"/>
  <outline>
    <contour>
      <point x="368" y="718" type="line"/>
      <point x="226" y="718" type="line"/>
      <point x="16" y="0" type="line"/>
      <point x="146" y="0" type="line"/>
      <point x="187" y="148" type="line"/>
      <point x="404" y="148" type="line"/>
      <point x="442" y="0" type="line"/>
      <point x="507" y="0" type="line"/>
      <point x="483" y="-13"/>
      <point x="476" y="-17"/>
      <point x="467" y="-26" type="curve"/>
      <point x="436" y="-52"/>
      <point x="418" y="-92"/>
      <point x="418" y="-132" type="curve" smooth="yes"/>
      <point x="418" y="-189"/>
      <point x="460" y="-228"/>
      <point x="521" y="-228" type="curve" smooth="yes"/>
      <point x="548" y="-228"/>
      <point x="568" y="-222"/>
      <point x="609" y="-204" type="curve"/>
      <point x="594" y="-155" type="line"/>
      <point x="569" y="-165"/>
      <point x="547" y="-171"/>
      <point x="532" y="-171" type="curve" smooth="yes"/>
      <point x="512" y="-171"/>
      <point x="495" y="-150"/>
      <point x="495" y="-125" type="curve" smooth="yes"/>
      <point x="495" y="-85"/>
      <point x="523" y="-42"/>
      <point x="576" y="-4" type="curve"/>
      <point x="576" y="0" type="line"/>
    </contour>
    <contour>
      <point x="296" y="559" type="line"/>
      <point x="370" y="271" type="line"/>
      <point x="220" y="271" type="line"/>
    </contour>
  </outline>
</glyph>
<glyph name="aogonek" format="1">
  <advance width="456"/>
  <unicode hex="0105"/>
  <outline>
    <contour>
      <point x="432" y="21" type="line"/>
      <point x="413" y="31"/>
      <point x="407" y="52"/>
      <point x="407" y="104" type="curve" smooth="yes"/>
      <point x="407" y="392" type="line" smooth="yes"/>
      <point x="407" y="489"/>
      <point x="342" y="546"/>
      <point x="229" y="546" type="curve" smooth="yes"/>
      <point x="154" y="546"/>
      <point x="103" y="524"/>
      <point x="72" y="478" type="curve" smooth="yes"/>
      <point x="53" y="447"/>
      <point x="44" y="419"/>
      <point x="38" y="360" type="curve"/>
      <point x="148" y="360" type="line"/>
      <point x="155" y="414"/>
      <point x="175" y="434"/>
      <point x="224" y="434" type="curve" smooth="yes"/>
      <point x="271" y="434"/>
      <point x="295" y="414"/>
      <point x="295" y="374" type="curve" smooth="yes"/>
      <point x="295" y="349"/>
      <point x="283" y="335"/>
      <point x="255" y="330" type="curve" smooth="yes"/>
      <point x="152" y="311" type="line" smooth="yes"/>
      <point x="70" y="296"/>
      <point x="24" y="235"/>
      <point x="24" y="142" type="curve" smooth="yes"/>
      <point x="24" y="46"/>
      <point x="76" y="-14"/>
      <point x="160" y="-14" type="curve" smooth="yes"/>
      <point x="216" y="-14"/>
      <point x="253" y="6"/>
      <point x="298" y="63" type="curve"/>
      <point x="301" y="34"/>
      <point x="302" y="26"/>
      <point x="309" y="0" type="curve"/>
      <point x="363" y="0" type="line"/>
      <point x="339" y="-13"/>
      <point x="332" y="-17"/>
      <point x="323" y="-26" type="curve"/>
      <point x="292" y="-52"/>
      <point x="274" y="-92"/>
      <point x="274" y="-132" type="curve" smooth="yes"/>
      <point x="274" y="-189"/>
      <point x="316" y="-228"/>
      <point x="377" y="-228" type="curve" smooth="yes"/>
      <point x="404" y="-228"/>
      <point x="424" y="-222"/>
      <point x="465" y="-204" type="curve"/>
      <point x="450" y="-155" type="line"/>
      <point x="425" y="-165"/>
      <point x="403" y="-171"/>
      <point x="388" y="-171" type="curve" smooth="yes"/>
      <point x="368" y="-171"/>
      <point x="351" y="-150"/>
      <point x="351" y="-125" type="curve" smooth="yes"/>
      <point x="351" y="-85"/>
      <point x="379" y="-42"/>
      <point x="432" y="-4" type="curve"/>
    </contour>
    <contour>
      <point x="295" y="191" type="line" smooth="yes"/>
      <point x="295" y="133"/>
      <point x="250" y="86"/>
      <point x="194" y="86" type="curve" smooth="yes"/>
      <point x="160" y="86"/>
      <point x="139" y="111"/>
      <point x="139" y="151" type="curve" smooth="yes"/>
      <point x="139" y="197"/>
      <point x="160" y="218"/>
      <point x="217" y="230" type="curve" smooth="yes"/>
      <point x="263" y="239"/>
      <point x="280" y="245"/>
      <point x="295" y="259" type="curve"/>
    </contour>
  </outline>
</glyph>
<glyph name="ccaron" format="1">
  <advance width="456"/>
  <unicode hex="010D"/>
  <outline>
    <contour>
      <point x="313" y="194" type="line"/>
      <point x="308" y="138"/>
      <point x="277" y="101"/>
      <point x="233" y="101" type="curve" smooth="yes"/>
      <point x="175" y="101"/>
      <point x="146" y="156"/>
      <point x="146" y="265" type="curve" smooth="yes"/>
      <point x="146" y="372"/>
      <point x="178" y="428"/>
      <point x="240" y="428" type="curve" smooth="yes"/>
      <point x="281" y="428"/>
      <point x="303" y="402"/>
      <point x="314" y="342" type="curve"/>
      <point x="430" y="342" type="line"/>
      <point x="425" y="395"/>
      <point x="418" y="421"/>
      <point x="401" y="452" type="curve" smooth="yes"/>
      <point x="368" y="512"/>
      <point x="307" y="546"/>
      <point x="235" y="546" type="curve" smooth="yes"/>
      <point x="105" y="546"/>
      <point x="28" y="439"/>
      <point x="28" y="259" type="curve" smooth="yes"/>
      <point x="28" y="84"/>
      <point x="100" y="-14"/>
      <point x="229" y="-14" type="curve" smooth="yes"/>
      <point x="342" y="-14"/>
      <point x="412" y="59"/>
      <point x="429" y="194" type="curve"/>
    </contour>
    <contour>
      <point x="373" y="750" type="line"/>
      <point x="280" y="750" type="line"/>
      <point x="228" y="668" type="line"/>
      <point x="177" y="750" type="line"/>
      <point x="84" y="750" type="line"/>
      <point x="177" y="604" type="line"/>
      <point x="280" y="604" type="line"/>
    </contour>
  </outline>
</glyph>
<glyph name="Dcaron" format="1">
  <advance width="592"/>
  <unicode hex="010E"/>
  <outline>
    <contour>
      <point x="62" y="0" type="line"/>
      <point x="317" y="0" type="line" smooth="yes"/>
      <point x="382" y="0"/>
      <point x="439" y="27"/>
      <point x="478" y="75" type="curve" smooth="yes"/>
      <point x="532" y="144"/>
      <point x="562" y="250"/>
      <point x="562" y="374" type="curve" smooth="yes"/>
      <point x="562" y="592"/>
      <point x="474" y="718"/>
      <point x="322" y="718" type="curve" smooth="yes"/>
      <point x="62" y="718" type="line"/>
    </contour>
    <contour>
      <point x="182" y="595" type="line"/>
      <point x="300" y="595" type="line" smooth="yes"/>
      <point x="340" y="595"/>
      <point x="370" y="582"/>
      <point x="391" y="557" type="curve" smooth="yes"/>
      <point x="421" y="520"/>
      <point x="437" y="455"/>
      <point x="437" y="370" type="curve" smooth="yes"/>
      <point x="437" y="214"/>
      <point x="387" y="123"/>
      <point x="302" y="123" type="curve" smooth="yes"/>
      <point x="182" y="123" type="line"/>
    </contour>
    <contour>
      <point x="441" y="936" type="line"/>
      <point x="348" y="936" type="line"/>
      <point x="296" y="854" type="line"/>
      <point x="245" y="936" type="line"/>
      <point x="152" y="936" type="line"/>
      <point x="245" y="790" type="line"/>
      <point x="348" y="790" type="line"/>
    </contour>
  </outline>
</glyph>
<glyph name="dcaron" format="1">
  <advance width="561"/>
  <unicode hex="010F"/>
  <outline>
    <contour>
      <point x="452" y="718" type="line"/>
      <point x="338" y="718" type="line"/>
      <point x="338" y="460" type="line"/>
      <point x="303" y="522"/>
      <point x="267" y="546"/>
      <point x="211" y="546" type="curve" smooth="yes"/>
      <point x="101" y="546"/>
      <point x="28" y="437"/>
      <point x="28" y="272" type="curve" smooth="yes"/>
      <point x="28" y="98"/>
      <point x="100" y="-14"/>
      <point x="212" y="-14" type="curve" smooth="yes"/>
      <point x="271" y="-14"/>
      <point x="312" y="13"/>
      <point x="340" y="70" type="curve"/>
      <point x="340" y="0" type="line"/>
      <point x="452" y="0" type="line"/>
    </contour>
    <contour>
      <point x="246" y="424" type="curve" smooth="yes"/>
      <point x="307" y="424"/>
      <point x="342" y="364"/>
      <point x="342" y="260" type="curve" smooth="yes"/>
      <point x="342" y="159"/>
      <point x="306" y="101"/>
      <point x="242" y="101" type="curve" smooth="yes"/>
      <point x="183" y="101"/>
      <point x="146" y="164"/>
      <point x="146" y="264" type="curve" smooth="yes"/>
      <point x="146" y="365"/>
      <point x="183" y="424"/>
    </contour>
    <contour>
      <point x="473" y="718" type="line"/>
      <point x="473" y="606" type="line"/>
      <point x="536" y="606" type="line"/>
      <point x="536" y="600" type="line" smooth="yes"/>
      <point x="538" y="558"/>
      <point x="513" y="525"/>
      <point x="473" y="517" type="curve"/>
      <point x="473" y="471" type="line"/>
      <point x="497" y="472"/>
      <point x="525" y="486"/>
      <point x="544" y="505" type="curve" smooth="yes"/>
      <point x="569" y="530"/>
      <point x="581" y="566"/>
      <point x="581" y="615" type="curve" smooth="yes"/>
      <point x="581" y="718" type="line"/>
    </contour>
  </outline>
</glyph>
<glyph name="Dcroat" format="1">
  <advance width="592"/>
  <unicode hex="0110"/>
  <outline>
    <contour>
      <point x="62" y="317" type="line"/>
      <point x="62" y="0" type="line"/>
      <point x="317" y="0" type="line" smooth="yes"/>
      <point x="383" y="0"/>
      <point x="440" y="26"/>
      <point x="478" y="75" type="curve" smooth="yes"/>
      <point x="532" y="144"/>
      <point x="562" y="250"/>
      <point x="562" y="375" type="curve" smooth="yes"/>
      <point x="562" y="592"/>
      <point x="474" y="718"/>
      <point x="322" y="718" type="curve" smooth="yes"/>
      <point x="62" y="718" type="line"/>
      <point x="62" y="440" type="line"/>
      <point x="-4" y="440" type="line"/>
      <point x="-4" y="317" type="line"/>
    </contour>
    <contour>
      <point x="182" y="595" type="line"/>
      <point x="301" y="595" type="line" smooth="yes"/>
      <point x="393" y="595"/>
      <point x="437" y="522"/>
      <point x="437" y="369" type="curve" smooth="yes"/>
      <point x="437" y="214"/>
      <point x="387" y="123"/>
      <point x="303" y="123" type="curve" smooth="yes"/>
      <point x="182" y="123" type="line"/>
      <point x="182" y="317" type="line"/>
      <point x="319" y="317" type="line"/>
      <point x="319" y="440" type="line"/>
      <point x="182" y="440" type="line"/>
    </contour>
  </outline>
</glyph>
<glyph name="Eogonek" format="1">
  <advance width="547"/>
  <unicode hex="0118"/>
  <outline>
    <contour>
      <point x="495" y="718" type="line"/>
      <point x="62" y="718" type="line"/>
      <point x="62" y="0" type="line"/>
      <point x="440" y="0" type="line"/>
      <point x="416" y="-13"/>
      <point x="409" y="-17"/>
      <point x="400" y="-26" type="curve"/>
      <point x="369" y="-52"/>
      <point x="351" y="-92"/>
      <point x="351" y="-132" type="curve" smooth="yes"/>
      <point x="351" y="-189"/>
      <point x="393" y="-228"/>
      <point x="454" y="-228" type="curve" smooth="yes"/>
      <point x="481" y="-228"/>
      <point x="501" y="-222"/>
      <point x="542" y="-204" type="curve"/>
      <point x="527" y="-155" type="line"/>
      <point x="502" y="-165"/>
      <point x="480" y="-171"/>
      <point x="465" y="-171" type="curve" smooth="yes"/>
      <point x="445" y="-171"/>
      <point x="428" y="-150"/>
      <point x="428" y="-125" type="curve" smooth="yes"/>
      <point x="428" y="-85"/>
      <point x="456" y="-42"/>
      <point x="509" y="-4" type="curve"/>
      <point x="509" y="127" type="line"/>
      <point x="182" y="127" type="line"/>
      <point x="182" y="313" type="line"/>
      <point x="470" y="313" type="line"/>
      <point x="470" y="440" type="line"/>
      <point x="182" y="440" type="line"/>
      <point x="182" y="591" type="line"/>
      <point x="495" y="591" type="line"/>
    </contour>
  </outline>
</glyph>
<glyph name="eogonek" format="1">
  <advance width="456"/>
  <unicode hex="0119"/>
  <outline>
    <contour>
      <point x="433" y="227" type="line"/>
      <point x="433" y="252" type="line" smooth="yes"/>
      <point x="433" y="441"/>
      <point x="359" y="546"/>
      <point x="226" y="546" type="curve" smooth="yes"/>
      <point x="97" y="546"/>
      <point x="19" y="442"/>
      <point x="19" y="268" type="curve" smooth="yes"/>
      <point x="19" y="88"/>
      <point x="96" y="-14"/>
      <point x="232" y="-14" type="curve" smooth="yes"/>
      <point x="250" y="-14"/>
      <point x="264" y="-12"/>
      <point x="284" y="-8" type="curve"/>
      <point x="236" y="-36"/>
      <point x="209" y="-80"/>
      <point x="209" y="-132" type="curve" smooth="yes"/>
      <point x="209" y="-189"/>
      <point x="251" y="-228"/>
      <point x="312" y="-228" type="curve" smooth="yes"/>
      <point x="339" y="-228"/>
      <point x="360" y="-222"/>
      <point x="401" y="-204" type="curve"/>
      <point x="386" y="-155" type="line"/>
      <point x="360" y="-165"/>
      <point x="338" y="-171"/>
      <point x="324" y="-171" type="curve" smooth="yes"/>
      <point x="302" y="-171"/>
      <point x="286" y="-150"/>
      <point x="286" y="-121" type="curve" smooth="yes"/>
      <point x="286" y="-88"/>
      <point x="297" y="-65"/>
      <point x="348" y="5" type="curve" smooth="yes"/>
      <point x="405" y="87"/>
      <point x="413" y="101"/>
      <point x="428" y="157" type="curve"/>
      <point x="310" y="157" type="line"/>
      <point x="299" y="119"/>
      <point x="273" y="99"/>
      <point x="234" y="99" type="curve" smooth="yes"/>
      <point x="172" y="99"/>
      <point x="141" y="138"/>
      <point x="134" y="227" type="curve"/>
    </contour>
    <contour>
      <point x="137" y="319" type="line"/>
      <point x="147" y="396"/>
      <point x="174" y="431"/>
      <point x="225" y="431" type="curve" smooth="yes"/>
      <point x="277" y="431"/>
      <point x="307" y="394"/>
      <point x="315" y="319" type="curve"/>
    </contour>
  </outline>
</glyph>
<glyph name="Ecaron" format="1">
  <advance width="547"/>
  <unicode hex="011A"/>
  <outline>
    <contour>
      <point x="495" y="718" type="line"/>
      <point x="62" y="718" type="line"/>
      <point x="62" y="0" type="line"/>
      <point x="509" y="0" type="line"/>
      <point x="509" y="127" type="line"/>
      <point x="182" y="127" type="line"/>
      <point x="182" y="313" type="line"/>
      <point x="470" y="313" type="line"/>
      <point x="470" y="440" type="line"/>
      <point x="182" y="440" type="line"/>
      <point x="182" y="591" type="line"/>
      <point x="495" y="591" type="line"/>
    </contour>
    <contour>
      <point x="418" y="936" type="line"/>
      <point x="325" y="936" type="line"/>
      <point x="273" y="854" type="line"/>
      <point x="222" y="936" type="line"/>
      <point x="129" y="936" type="line"/>
      <point x="222" y="790" type="line"/>
      <point x="325" y="790" type="line"/>
    </contour>
  </outline>
</glyph>
<glyph name="Gbreve" format="1">
  <advance width="638"/>
  <unicode hex="011E"/>
  <outline>
    <contour>
      <point x="338" y="265" type="line"/>
      <point x="476" y="265" type="line"/>
      <point x="462" y="205"/>
      <point x="450" y="178"/>
      <point x="425" y="151" type="curve" smooth="yes"/>
      <point x="398" y="122"/>
      <point x="365" y="108"/>
      <point x="327" y="108" type="curve" smooth="yes"/>
      <point x="222" y="108"/>
      <point x="161" y="198"/>
      <point x="161" y="354" type="curve" smooth="yes"/>
      <point x="161" y="514"/>
      <point x="225" y="614"/>
      <point x="327" y="614" type="curve" smooth="yes"/>
      <point x="392" y="614"/>
      <point x="447" y="565"/>
      <point x="459" y="495" type="curve"/>
      <point x="583" y="495" type="line"/>
      <point x="576" y="547"/>
      <point x="568" y="575"/>
      <point x="547" y="612" type="curve" smooth="yes"/>
      <point x="501" y="693"/>
      <point x="422" y="737"/>
      <point x="324" y="737" type="curve" smooth="yes"/>
      <point x="148" y="737"/>
      <point x="36" y="588"/>
      <point x="36" y="354" type="curve" smooth="yes"/>
      <point x="36" y="131"/>
      <point x="145" y="-19"/>
      <point x="306" y="-19" type="curve" smooth="yes"/>
      <point x="357" y="-19"/>
      <point x="401" y="-4"/>
      <point x="436" y="27" type="curve" smooth="yes"/>
      <point x="454" y="42"/>
      <point x="466" y="56"/>
      <point x="490" y="90" type="curve"/>
      <point x="503" y="0" type="line"/>
      <point x="585" y="0" type="line"/>
      <point x="585" y="387" type="line"/>
      <point x="338" y="387" type="line"/>
    </contour>
    <contour>
      <point x="405" y="936" type="line"/>
      <point x="394" y="884"/>
      <point x="373" y="867"/>
      <point x="320" y="867" type="curve" smooth="yes"/>
      <point x="266" y="867"/>
      <point x="244" y="885"/>
      <point x="235" y="936" type="curve"/>
      <point x="181" y="936" type="line"/>
      <point x="190" y="838"/>
      <point x="235" y="790"/>
      <point x="315" y="790" type="curve" smooth="yes"/>
      <point x="399" y="790"/>
      <point x="448" y="839"/>
      <point x="458" y="936" type="curve"/>
    </contour>
  </outline>
</glyph>
<glyph name="gbreve" format="1">
  <advance width="501"/>
  <unicode hex="011F"/>
  <outline>
    <contour>
      <point x="343" y="532" type="line"/>
      <point x="343" y="450" type="line"/>
      <point x="313" y="518"/>
      <point x="275" y="546"/>
      <point x="215" y="546" type="curve" smooth="yes"/>
      <point x="105" y="546"/>
      <point x="33" y="437"/>
      <point x="33" y="271" type="curve" smooth="yes"/>
      <point x="33" y="102"/>
      <point x="105" y="-3"/>
      <point x="220" y="-3" type="curve" smooth="yes"/>
      <point x="278" y="-3"/>
      <point x="308" y="18"/>
      <point x="338" y="80" type="curve"/>
      <point x="338" y="11" type="line" smooth="yes"/>
      <point x="338" y="-74"/>
      <point x="310" y="-110"/>
      <point x="243" y="-110" type="curve" smooth="yes"/>
      <point x="211" y="-110"/>
      <point x="187" y="-101"/>
      <point x="177" y="-85" type="curve"/>
      <point x="172" y="-78"/>
      <point x="170" y="-72"/>
      <point x="167" y="-57" type="curve"/>
      <point x="42" y="-57" type="line"/>
      <point x="49" y="-108"/>
      <point x="57" y="-130"/>
      <point x="80" y="-156" type="curve" smooth="yes"/>
      <point x="115" y="-196"/>
      <point x="170" y="-217"/>
      <point x="240" y="-217" type="curve" smooth="yes"/>
      <point x="313" y="-217"/>
      <point x="373" y="-194"/>
      <point x="408" y="-151" type="curve" smooth="yes"/>
      <point x="439" y="-113"/>
      <point x="453" y="-59"/>
      <point x="453" y="28" type="curve" smooth="yes"/>
      <point x="453" y="532" type="line"/>
    </contour>
    <contour>
      <point x="243" y="424" type="curve" smooth="yes"/>
      <point x="300" y="424"/>
      <point x="339" y="360"/>
      <point x="339" y="267" type="curve" smooth="yes"/>
      <point x="339" y="171"/>
      <point x="304" y="115"/>
      <point x="243" y="115" type="curve" smooth="yes"/>
      <point x="185" y="115"/>
      <point x="151" y="172"/>
      <point x="151" y="267" type="curve" smooth="yes"/>
      <point x="151" y="364"/>
      <point x="186" y="424"/>
    </contour>
    <contour>
      <point x="336" y="750" type="line"/>
      <point x="325" y="698"/>
      <point x="304" y="681"/>
      <point x="251" y="681" type="curve" smooth="yes"/>
      <point x="197" y="681"/>
      <point x="175" y="699"/>
      <point x="166" y="750" type="curve"/>
      <point x="112" y="750" type="line"/>
      <point x="121" y="652"/>
      <point x="166" y="604"/>
      <point x="246" y="604" type="curve" smooth="yes"/>
      <point x="330" y="604"/>
      <point x="379" y="653"/>
      <point x="389" y="750" type="curve"/>
    </contour>
  </outline>
</glyph>
<glyph name="Gcommaaccent" format="1">
  <advance width="638"/>
  <unicode hex="0122"/>
  <outline>
    <contour>
      <point x="338" y="265" type="line"/>
      <point x="476" y="265" type="line"/>
      <point x="462" y="205"/>
      <point x="450" y="178"/>
      <point x="425" y="151" type="curve" smooth="yes"/>
      <point x="398" y="122"/>
      <point x="365" y="108"/>
      <point x="327" y="108" type="curve" smooth="yes"/>
      <point x="222" y="108"/>
      <point x="161" y="198"/>
      <point x="161" y="354" type="curve" smooth="yes"/>
      <point x="161" y="514"/>
      <point x="225" y="614"/>
      <point x="327" y="614" type="curve" smooth="yes"/>
      <point x="392" y="614"/>
      <point x="447" y="565"/>
      <point x="459" y="495" type="curve"/>
      <point x="583" y="495" type="line"/>
      <point x="576" y="547"/>
      <point x="568" y="575"/>
      <point x="547" y="612" type="curve" smooth="yes"/>
      <point x="501" y="693"/>
      <point x="422" y="737"/>
      <point x="324" y="737" type="curve" smooth="yes"/>
      <point x="148" y="737"/>
      <point x="36" y="588"/>
      <point x="36" y="354" type="curve" smooth="yes"/>
      <point x="36" y="131"/>
      <point x="145" y="-19"/>
      <point x="306" y="-19" type="curve" smooth="yes"/>
      <point x="357" y="-19"/>
      <point x="401" y="-4"/>
      <point x="436" y="27" type="curve" smooth="yes"/>
      <point x="454" y="42"/>
      <point x="466" y="56"/>
      <point x="490" y="90" type="curve"/>
      <point x="503" y="0" type="line"/>
      <point x="585" y="0" type="line"/>
      <point x="585" y="387" type="line"/>
      <point x="338" y="387" type="line"/>
    </contour>
    <contour>
      <point x="265" y="-60" type="line"/>
      <point x="265" y="-172" type="line"/>
      <point x="328" y="-172" type="line"/>
      <point x="328" y="-178" type="line" smooth="yes"/>
      <point x="330" y="-220"/>
      <point x="305" y="-253"/>
      <point x="265" y="-261" type="curve"/>
      <point x="265" y="-307" type="line"/>
      <point x="289" y="-306"/>
      <point x="317" y="-292"/>
      <point x="336" y="-273" type="curve" smooth="yes"/>
      <point x="361" y="-248"/>
      <point x="373" y="-212"/>
      <point x="373" y="-163" type="curve" smooth="yes"/>
      <point x="373" y="-60" type="line"/>
    </contour>
  </outline>
</glyph>
<glyph name="gcommaaccent" format="1">
  <advance width="501"/>
  <unicode hex="0123"/>
  <outline>
    <contour>
      <point x="343" y="532" type="line"/>
      <point x="343" y="450" type="line"/>
      <point x="313" y="518"/>
      <point x="275" y="546"/>
      <point x="215" y="546" type="curve" smooth="yes"/>
      <point x="105" y="546"/>
      <point x="33" y="437"/>
      <point x="33" y="271" type="curve" smooth="yes"/>
      <point x="33" y="102"/>
      <point x="105" y="-3"/>
      <point x="220" y="-3" type="curve" smooth="yes"/>
      <point x="278" y="-3"/>
      <point x="308" y="18"/>
      <point x="338" y="80" type="curve"/>
      <point x="338" y="11" type="line" smooth="yes"/>
      <point x="338" y="-74"/>
      <point x="310" y="-110"/>
      <point x="243" y="-110" type="curve" smooth="yes"/>
      <point x="211" y="-110"/>
      <point x="187" y="-101"/>
      <point x="177" y="-85" type="curve"/>
      <point x="172" y="-78"/>
      <point x="170" y="-72"/>
      <point x="167" y="-57" type="curve"/>
      <point x="42" y="-57" type="line"/>
      <point x="49" y="-108"/>
      <point x="57" y="-130"/>
      <point x="80" y="-156" type="curve" smooth="yes"/>
      <point x="115" y="-196"/>
      <point x="170" y="-217"/>
      <point x="240" y="-217" type="curve" smooth="yes"/>
      <point x="313" y="-217"/>
      <point x="373" y="-194"/>
      <point x="408" y="-151" type="curve" smooth="yes"/>
      <point x="439" y="-113"/>
      <point x="453" y="-59"/>
      <point x="453" y="28" type="curve" smooth="yes"/>
      <point x="453" y="532" type="line"/>
    </contour>
    <contour>
      <point x="243" y="424" type="curve" smooth="yes"/>
      <point x="300" y="424"/>
      <point x="339" y="360"/>
      <point x="339" y="267" type="curve" smooth="yes"/>
      <point x="339" y="171"/>
      <point x="304" y="115"/>
      <point x="243" y="115" type="curve" smooth="yes"/>
      <point x="185" y="115"/>
      <point x="151" y="172"/>
      <point x="151" y="267" type="curve" smooth="yes"/>
      <point x="151" y="364"/>
      <point x="186" y="424"/>
    </contour>
    <contour>
      <point x="305" y="606" type="line"/>
      <point x="305" y="718" type="line"/>
      <point x="242" y="718" type="line"/>
      <point x="242" y="724" type="line" smooth="yes"/>
      <point x="240" y="766"/>
      <point x="265" y="799"/>
      <point x="305" y="807" type="curve"/>
      <point x="305" y="853" type="line"/>
      <point x="281" y="852"/>
      <point x="253" y="838"/>
      <point x="234" y="819" type="curve" smooth="yes"/>
      <point x="209" y="794"/>
      <point x="197" y="758"/>
      <point x="197" y="709" type="curve" smooth="yes"/>
      <point x="197" y="606" type="line"/>
    </contour>
  </outline>
</glyph>
<glyph name="Hbar" format="1">
  <advance width="592"/>
  <unicode hex="0126"/>
  <outline>
    <contour>
      <point x="411" y="323" type="line"/>
      <point x="411" y="0" type="line"/>
      <point x="534" y="0" type="line"/>
      <point x="534" y="718" type="line"/>
      <point x="411" y="718" type="line"/>
      <point x="411" y="446" type="line"/>
      <point x="181" y="446" type="line"/>
      <point x="181" y="718" type="line"/>
      <point x="58" y="718" type="line"/>
      <point x="58" y="0" type="line"/>
      <point x="181" y="0" type="line"/>
      <point x="181" y="323" type="line"/>
    </contour>
  </outline>
</glyph>
<glyph name="Imacron" format="1">
  <advance width="228"/>
  <unicode hex="012A"/>
  <outline>
    <contour>
      <point x="175" y="718" type="line"/>
      <point x="52" y="718" type="line"/>
      <point x="52" y="0" type="line"/>
      <point x="175" y="0" type="line"/>
    </contour>
    <contour>
      <point x="255" y="864" type="line"/>
      <point x="-28" y="864" type="line"/>
      <point x="-28" y="791" type="line"/>
      <point x="255" y="791" type="line"/>
    </contour>
  </outline>
</glyph>
<glyph name="imacron" format="1">
  <advance width="228"/>
  <unicode hex="012B"/>
  <outline>
    <contour>
      <point x="57" y="532" type="line"/>
      <point x="57" y="0" type="line"/>
      <point x="171" y="0" type="line"/>
      <point x="171" y="532" type="line"/>
    </contour>
    <contour>
      <point x="255" y="678" type="line"/>
      <point x="-28" y="678" type="line"/>
      <point x="-28" y="605" type="line"/>
      <point x="255" y="605" type="line"/>
    </contour>
  </outline>
</glyph>
<glyph name="Iogonek" format="1">
  <advance width="228"/>
  <unicode hex="012E"/>
  <outline>
    <contour>
      <point x="175" y="718" type="line"/>
      <point x="52" y="718" type="line"/>
      <point x="52" y="0" type="line"/>
      <point x="106" y="0" type="line"/>
      <point x="82" y="-13"/>
      <point x="75" y="-17"/>
      <point x="66" y="-26" type="curve"/>
      <point x="35" y="-52"/>
      <point x="17" y="-92"/>
      <point x="17" y="-132" type="curve" smooth="yes"/>
      <point x="17" y="-189"/>
      <point x="59" y="-228"/>
      <point x="120" y="-228" type="curve" smooth="yes"/>
      <point x="147" y="-228"/>
      <point x="167" y="-222"/>
      <point x="208" y="-204" type="curve"/>
      <point x="193" y="-155" type="line"/>
      <point x="168" y="-165"/>
      <point x="146" y="-171"/>
      <point x="131" y="-171" type="curve" smooth="yes"/>
      <point x="111" y="-171"/>
      <point x="94" y="-150"/>
      <point x="94" y="-125" type="curve" smooth="yes"/>
      <point x="94" y="-85"/>
      <point x="122" y="-42"/>
      <point x="175" y="-4" type="curve"/>
    </contour>
  </outline>
</glyph>
<glyph name="iogonek" format="1">
  <advance width="228"/>
  <unicode hex="012F"/>
  <outline>
    <contour>
      <point x="171" y="532" type="line"/>
      <point x="57" y="532" type="line"/>
      <point x="57" y="0" type="line"/>
      <point x="102" y="0" type="line"/>
      <point x="78" y="-13"/>
      <point x="71" y="-17"/>
      <point x="62" y="-26" type="curve"/>
      <point x="31" y="-52"/>
      <point x="13" y="-92"/>
      <point x="13" y="-132" type="curve" smooth="yes"/>
      <point x="13" y="-189"/>
      <point x="55" y="-228"/>
      <point x="116" y="-228" type="curve" smooth="yes"/>
      <point x="143" y="-228"/>
      <point x="163" y="-222"/>
      <point x="204" y="-204" type="curve"/>
      <point x="189" y="-155" type="line"/>
      <point x="164" y="-165"/>
      <point x="142" y="-171"/>
      <point x="127" y="-171" type="curve" smooth="yes"/>
      <point x="107" y="-171"/>
      <point x="90" y="-150"/>
      <point x="90" y="-125" type="curve" smooth="yes"/>
      <point x="90" y="-85"/>
      <point x="118" y="-42"/>
      <point x="171" y="-4" type="curve"/>
    </contour>
    <contour>
      <point x="171" y="725" type="line"/>
      <point x="57" y="725" type="line"/>
      <point x="57" y="595" type="line"/>
      <point x="171" y="595" type="line"/>
    </contour>
  </outline>
</glyph>
<glyph name="Idotaccent" format="1">
  <advance width="228"/>
  <unicode hex="0130"/>
  <outline>
    <contour>
      <point x="175" y="718" type="line"/>
      <point x="52" y="718" type="line"/>
      <point x="52" y="0" type="line"/>
      <point x="175" y="0" type="line"/>
    </contour>
    <contour>
      <point x="167" y="915" type="line"/>
      <point x="63" y="915" type="line"/>
      <point x="63" y="800" type="line"/>
      <point x="167" y="800" type="line"/>
    </contour>
  </outline>
</glyph>
<glyph name="IJ" format="1">
  <advance width="648"/>
  <unicode hex="0132"/>
  <outline>
    <contour>
      <point x="597" y="718" type="line"/>
      <point x="474" y="718" type="line"/>
      <point x="474" y="208" type="line" smooth="yes"/>
      <point x="474" y="131"/>
      <point x="456" y="104"/>
      <point x="405" y="104" type="curve" smooth="yes"/>
      <point x="347" y="104"/>
      <point x="334" y="135"/>
      <point x="333" y="271" type="curve"/>
      <point x="218" y="271" type="line"/>
      <point x="218" y="160"/>
      <point x="224" y="111"/>
      <point x="245" y="70" type="curve" smooth="yes"/>
      <point x="273" y="12"/>
      <point x="329" y="-18"/>
      <point x="407" y="-18" type="curve" smooth="yes"/>
      <point x="535" y="-18"/>
      <point x="597" y="56"/>
      <point x="597" y="208" type="curve" smooth="yes"/>
    </contour>
    <contour>
      <point x="175" y="718" type="line"/>
      <point x="52" y="718" type="line"/>
      <point x="52" y="0" type="line"/>
      <point x="175" y="0" type="line"/>
    </contour>
  </outline>
</glyph>
